<?xml version="1.0" encoding="UTF-8" standalone="no"?>
<!-- Created with Inkscape (http://www.inkscape.org/) -->
<svg
   xmlns:dc="http://purl.org/dc/elements/1.1/"
   xmlns:cc="http://creativecommons.org/ns#"
   xmlns:rdf="http://www.w3.org/1999/02/22-rdf-syntax-ns#"
   xmlns:svg="http://www.w3.org/2000/svg"
   xmlns="http://www.w3.org/2000/svg"
   xmlns:sodipodi="http://sodipodi.sourceforge.net/DTD/sodipodi-0.dtd"
   xmlns:inkscape="http://www.inkscape.org/namespaces/inkscape"
   width="800"
   height="480"
   id="svg2"
   sodipodi:version="0.32"
   inkscape:version="0.46"
   sodipodi:docname="electric1.svg"
   inkscape:output_extension="org.inkscape.output.svg.inkscape"
   version="1.0">
  <sodipodi:namedview
     id="base"
     pagecolor="#ffffff"
     bordercolor="#666666"
     borderopacity="1.0"
     gridtolerance="10000"
     guidetolerance="10"
     objecttolerance="10"
     inkscape:pageopacity="0.0"
     inkscape:pageshadow="2"
     inkscape:zoom="0.35"
     inkscape:cx="494.4206"
     inkscape:cy="333.33638"
     inkscape:document-units="px"
     inkscape:current-layer="layer1"
     showgrid="false"
     inkscape:window-width="1278"
     inkscape:window-height="722"
     inkscape:window-x="0"
     inkscape:window-y="25" />
  <defs
     id="defs4">
    <inkscape:perspective
       id="perspective10"
       inkscape:persp3d-origin="372.04724 : 350.78739 : 1"
       inkscape:vp_z="744.09448 : 526.18109 : 1"
       inkscape:vp_y="0 : 1000 : 0"
       inkscape:vp_x="0 : 526.18109 : 1"
       sodipodi:type="inkscape:persp3d" />
  </defs>
  <metadata
     id="metadata7">
    <rdf:RDF>
      <cc:Work
         rdf:about="">
        <dc:format>image/svg+xml</dc:format>
        <dc:type
           rdf:resource="http://purl.org/dc/dcmitype/StillImage" />
      </cc:Work>
    </rdf:RDF>
  </metadata>
  <g
     id="layer1"
     inkscape:groupmode="layer"
     inkscape:label="Layer 1">
    <path
       id="path2391"
       d="M-128.97512 40.731585L-130.17352 -13.531221L-102.48027 -71.960131L-46.951858 -133.67183L-20.362098 -139.44093L14.455562 -116.81377L54.543999 -85.659051L63.462389 -77.829461L142.81865 -63.043591L151.86085 -85.889511L142.61801 -53.469081L104.79623 -44.188441L43.412289 -86.934761L5.5254316 -111.69924L-38.245858 -103.32361L-58.195638 -117.21616L-72.130829 -96.158581L-97.864718 -81.698281L-105.67328 -43.421941L-117.29483 -33.705491L-121.43228 -22.015371L-127.3167 11.124733L-128.97512 40.731585L-128.97512 40.731585"
       style="opacity:0.78571424;fill:#00ffff;fill-rule:evenodd;stroke:none;stroke-width:1px;stroke-linecap:butt;stroke-linejoin:miter;stroke-opacity:1" />
    <path
       sodipodi:nodetypes="cccccccccccccccccccccccccccc"
       id="path2393"
       d="M-199.54628 66.125172L-143.96982 69.009622L-132.65421 88.352924L-115.36629 103.39841L-79.821709 80.018574L-50.151848 48.772362L-13.497448 4.8037486L20.698672 -18.705151L49.114109 -28.159061L72.471889 -29.575581L116.39296 -20.502531L142.20551 -8.2932214L167.43614 42.815686L165.84193 90.139869L134.44034 101.7427L96.632649 121.25388L147.20555 74.965321L148.51053 30.048168L101.31762 -8.5544914L46.608799 -18.660031L-16.147358 15.506303L-59.591128 47.868934L-86.130238 75.762736L-112.42716 90.288829L-139.10734 85.300592L-169.83293 79.925171L-186.64 72.229824L-199.54628 66.125172L-199.54628 66.125172"
       style="opacity:0.55882353;fill:#008080;fill-rule:evenodd;stroke:none;stroke-width:1.14952362px;stroke-linecap:butt;stroke-linejoin:miter;stroke-opacity:1" />
    <path
       id="path2395"
       d="M114.72077 -45.256731L79.461109 -84.646671L67.981209 -134.64159L54.861319 -160.39654L43.381429 -178.57651L13.041702 -211.90646L-19.757998 -214.93645L-48.457738 -196.75648L-86.177398 -148.27656L-100.93726 -90.706661L-99.297278 3.2231786L-75.517489 74.428062L-70.597539 116.84799L-77.977469 139.57296L-89.457368 148.66294L-82.077428 136.54296L-74.697499 106.24301L-71.417529 68.368073L-78.797459 33.523134L-92.737338 -10.411791L-100.93726 -52.831721L-103.39724 -89.191661L-101.75726 -137.67158L-91.917338 -169.48653L-82.077428 -196.75648L-68.957549 -207.36147L-45.997758 -224.02644L-18.938008 -228.57143L11.401722 -204.33147L23.701612 -198.27148L43.381429 -151.30656L63.881239 -133.12659L81.921079 -122.52161L90.120989 -102.82664L100.78091 -67.981701L114.72077 -45.256731L114.72077 -45.256731"
       style="opacity:0.23529412;fill:#00ffff;fill-rule:evenodd;stroke:none;stroke-width:1px;stroke-linecap:butt;stroke-linejoin:miter;stroke-opacity:1" />
    <path
       sodipodi:nodetypes="cccccccccccscccsscscccccccc"
       id="path2397"
       d="M-176.52512 -17.017611L-134.45401 -112.46995L-91.163888 -111.05967L-66.472279 -97.571311L-40.537618 -67.857481L-14.248208 -39.509531L9.9396516 -41.591241L32.145179 -60.553831L45.744599 -98.908821L64.814169 -140.8162L94.973029 -172.89239L109.99433 -174.69877L154.8255 -123.19114L168.75564 -82.274871L165.94751 -67.960591L153.61515 -94.017261L129.77915 -135.3136L91.336199 -169.39507L63.067369 -172.61174L39.177529 -136.65814L14.312882 -86.445301L-13.923278 -44.262611L-44.439778 -52.832711L-93.706688 -108.27283L-114.91049 -142.19445L-143.35527 -123.72209L-176.52512 -17.017611L-176.52512 -17.017611"
       style="opacity:0.11344539;fill:#000080;fill-rule:evenodd;stroke:none;stroke-width:1px;stroke-linecap:butt;stroke-linejoin:miter;stroke-opacity:1" />
    <path
       id="path2399"
       d="M-184.5765 47.158109L-191.13644 113.818L-102.57725 169.8729L49.121379 185.02288L84.381039 154.72293L144.24052 112.303L172.94026 51.703102L182.78017 0.19318857L155.72042 -96.766651L139.32055 -128.5816L172.94026 -81.616671L181.14018 -49.801731L200.00001 15.343162L151.62046 35.03813L122.10071 91.093039L100.78091 136.54296L49.121379 181.99289L8.9417416 197.14286L-32.877878 148.66294L-75.517489 162.29792L-161.61671 180.47789L-183.75651 116.84799L-182.93652 82.003053L-189.49646 63.82308L-184.5765 47.158109L-184.5765 47.158109"
       style="opacity:0.55882353;fill:#00ffff;fill-rule:evenodd;stroke:none;stroke-width:1px;stroke-linecap:butt;stroke-linejoin:miter;stroke-opacity:1" />
    <path
       id="path2401"
       d="M-186.43926 34.13299L-134.75574 -38.591831L-100.17239 -40.287531L-53.190428 -26.139091L-26.520428 -67.104151L25.278192 -58.723801L49.578309 -53.521261L85.040739 -83.350691L108.72919 -88.248021L145.05832 -79.396561L167.30708 -41.045631L169.88133 13.644418L156.90925 -17.761561L123.24319 -49.661541L105.25049 -78.666011L55.580169 -33.627651L24.679402 -38.147331L-7.5722684 -77.157291L-69.195219 -46.691731L-83.683408 -23.925531L-123.08342 -16.461741L-158.95366 6.6344386L-186.43926 34.13299L-186.43926 34.13299"
       style="opacity:0.55882353;fill:#008080;fill-rule:evenodd;stroke:none;stroke-width:1px;stroke-linecap:butt;stroke-linejoin:miter;stroke-opacity:1" />
    <path
       style="fill:#00ffff;fill-rule:evenodd;stroke:none;stroke-width:0.77184999px;stroke-linecap:butt;stroke-linejoin:miter;stroke-opacity:1"
       d="M-138.83673 8.9910046L-140.03533 41.31277L-112.33742 76.116089L-56.799688 112.87481L-30.205468 116.31119L4.6180516 102.83327L44.713219 84.275886L53.633099 79.61217L133.00271 70.804934L142.0464 84.413157L132.80201 65.10185L94.973889 59.573817L33.579639 85.035765L-4.3135884 99.786779L-48.092228 94.797819L-68.045359 103.07295L-81.982888 90.529949L-107.72111 81.916643L-115.53097 59.117246L-127.15447 53.329625L-131.29262 46.366372L-137.17804 26.626396L-138.83673 8.9910046L-138.83673 8.9910046"
       id="path2403" />
    <path
       style="fill:#008080;fill-rule:evenodd;stroke:none;stroke-width:0.88725978px;stroke-linecap:butt;stroke-linejoin:miter;stroke-opacity:1"
       d="M-209.41974 -6.1347514L-153.83395 -7.8528814L-142.51643 -19.374761L-125.22561 -28.336641L-89.675058 -14.410381L-60.000218 4.2014986L-23.339658 30.391504L10.862202 44.39463L39.282419 50.025881L62.644119 50.869635L106.57257 45.465251L132.38945 38.192741L157.62433 7.7495986L156.02983 -20.439161L124.62299 -27.350411L86.808929 -38.972291L137.39033 -11.400401L138.69553 15.354604L91.494709 38.348369L36.776679 44.367757L-25.990018 24.016499L-69.441079 4.7396286L-95.984648 -11.875381L-122.28598 -20.527881L-148.97065 -17.556631L-179.7014 -14.354751L-196.5113 -9.7709914L-209.41974 -6.1347514L-209.41974 -6.1347514"
       id="path2405"
       sodipodi:nodetypes="cccccccccccccccccccccccccccc" />
    <path
       style="opacity:0.18067226;fill:#0000ff;fill-rule:evenodd;stroke:none;stroke-width:0.77184999px;stroke-linecap:butt;stroke-linejoin:miter;stroke-opacity:1"
       d="M104.9001 60.210148L69.634519 83.672855L58.152689 113.45245L45.030589 128.79345L33.548769 139.62239L3.2039516 159.47545L-29.601258 161.28027L-58.305818 150.45133L-96.031818 121.57416L-110.79416 87.282504L-109.1539 31.332972L-85.370118 -11.080381L-80.449339 -36.347911L-87.830508 -49.884091L-99.312338 -55.298561L-91.931168 -48.079271L-84.549988 -30.031031L-81.269469 -7.4707414L-88.650638 13.284735L-102.59286 39.454676L-110.79416 64.722207L-113.25455 86.380089L-111.61429 115.25727L-101.77273 134.20792L-91.931168 150.45133L-78.809079 156.76822L-55.845428 166.69474L-28.781128 169.40198L1.5636916 154.96339L13.865642 151.35374L33.548769 123.37898L54.052029 112.55004L72.094889 106.23315L80.296179 94.501799L90.957909 73.746326L104.9001 60.210148L104.9001 60.210148"
       id="path2407" />
    <path
       style="opacity:0.0630252;fill:#000080;fill-rule:evenodd;stroke:none;stroke-width:0.77184999px;stroke-linecap:butt;stroke-linejoin:miter;stroke-opacity:1"
       d="M-186.39471 43.389448L-144.31654 100.24586L-101.01915 99.405819L-76.323389 91.371449L-50.384368 73.672335L-24.090548 56.786817L0.10137157 58.026789L22.310632 69.321896L35.912329 92.168139L54.985099 117.13037L85.149049 136.23663L100.17285 137.31261L145.01157 106.63196L158.94403 82.260091L156.13545 73.733749L143.80101 89.254469L119.961 113.85274L81.511589 134.15344L53.238009 136.06946L29.344169 114.65361L4.4753416 84.744218L-23.765558 59.617998L-54.287188 64.722796L-103.56238 97.745839L-124.76974 117.95133L-153.21929 106.94823L-186.39471 43.389448L-186.39471 43.389448"
       id="path2409"
       sodipodi:nodetypes="cccccccccccscccsscscccccccc" />
    <path
       style="opacity:0.55882353;fill:#00ffff;fill-rule:evenodd;stroke:none;stroke-width:0.77184999px;stroke-linecap:butt;stroke-linejoin:miter;stroke-opacity:1"
       d="M-194.44745 5.1630286L-201.00849 -34.543091L-112.43442 -67.932321L39.289679 -76.956441L74.555289 -58.908211L134.42481 -33.640681L163.12937 2.4557986L172.97091 33.137797L145.90663 90.892149L129.50401 109.8428L163.12937 81.868035L171.33067 62.917383L190.19366 24.113678L141.80598 12.382325L112.28127 -21.006921L90.957909 -48.079271L39.289679 -75.151621L-0.89669843 -84.175741L-42.723348 -55.298561L-85.370118 -63.420271L-171.4838 -74.249211L-193.62732 -36.347911L-192.80719 -15.592441L-199.36823 -4.7635014L-194.44745 5.1630286L-194.44745 5.1630286"
       id="path2411" />
    <path
       style="fill:#008080;fill-rule:evenodd;stroke:none;stroke-width:0.77184999px;stroke-linecap:butt;stroke-linejoin:miter;stroke-opacity:1"
       d="M-196.31052 12.921472L-144.61832 56.240184L-110.02916 57.250229L-63.039319 48.822682L-36.364828 73.223612L15.442492 68.231842L39.746699 65.132933L75.215069 82.900908L98.907499 85.818009L135.24275 80.545615L157.49524 57.701794L160.06992 25.125537L147.09566 43.832582L113.42395 62.833884L95.428229 80.110466L45.749559 53.283255L14.843602 55.975414L-17.413488 79.211789L-79.046779 61.06491L-93.537408 47.504165L-132.94404 43.058344L-168.8203 29.301052L-196.31052 12.921472L-196.31052 12.921472"
       id="path2413" />
  </g>
</svg>
