<?xml version="1.0" encoding="UTF-8" standalone="no"?>
<!-- Created with Inkscape (http://www.inkscape.org/) -->
<svg
   xmlns:dc="http://purl.org/dc/elements/1.1/"
   xmlns:cc="http://creativecommons.org/ns#"
   xmlns:rdf="http://www.w3.org/1999/02/22-rdf-syntax-ns#"
   xmlns:svg="http://www.w3.org/2000/svg"
   xmlns="http://www.w3.org/2000/svg"
   xmlns:sodipodi="http://sodipodi.sourceforge.net/DTD/sodipodi-0.dtd"
   xmlns:inkscape="http://www.inkscape.org/namespaces/inkscape"
   width="800"
   height="480"
   id="svg2"
   sodipodi:version="0.32"
   inkscape:version="0.46"
   version="1.0"
   sodipodi:docname="guns_fire2.svg"
   inkscape:output_extension="org.inkscape.output.svg.inkscape">
  <defs
     id="defs4">
    <inkscape:perspective
       sodipodi:type="inkscape:persp3d"
       inkscape:vp_x="0 : 526.18109 : 1"
       inkscape:vp_y="0 : 1000 : 0"
       inkscape:vp_z="744.09448 : 526.18109 : 1"
       inkscape:persp3d-origin="372.04724 : 350.78739 : 1"
       id="perspective10" />
    <inkscape:perspective
       sodipodi:type="inkscape:persp3d"
       inkscape:vp_x="0 : 526.18109 : 1"
       inkscape:vp_y="0 : 1000 : 0"
       inkscape:vp_z="744.09448 : 526.18109 : 1"
       inkscape:persp3d-origin="372.04724 : 350.78739 : 1"
       id="perspective2401" />
    <inkscape:perspective
       id="perspective2399"
       inkscape:persp3d-origin="372.04724 : 350.78739 : 1"
       inkscape:vp_z="744.09448 : 526.18109 : 1"
       inkscape:vp_y="0 : 1000 : 0"
       inkscape:vp_x="0 : 526.18109 : 1"
       sodipodi:type="inkscape:persp3d" />
  </defs>
  <sodipodi:namedview
     id="base"
     pagecolor="#ffffff"
     bordercolor="#666666"
     borderopacity="1.0"
     gridtolerance="10000"
     guidetolerance="10"
     objecttolerance="10"
     inkscape:pageopacity="0.0"
     inkscape:pageshadow="2"
     inkscape:zoom="1.4"
     inkscape:cx="543.44442"
     inkscape:cy="182.02485"
     inkscape:document-units="px"
     inkscape:current-layer="layer1"
     showgrid="false"
     inkscape:window-width="1278"
     inkscape:window-height="722"
     inkscape:window-x="0"
     inkscape:window-y="25" />
  <metadata
     id="metadata7">
    <rdf:RDF>
      <cc:Work
         rdf:about="">
        <dc:format>image/svg+xml</dc:format>
        <dc:type
           rdf:resource="http://purl.org/dc/dcmitype/StillImage" />
      </cc:Work>
    </rdf:RDF>
  </metadata>
  <g
     inkscape:label="Layer 1"
     inkscape:groupmode="layer"
     id="layer1">
    <path
       style="opacity:0.12393165;fill:#008000;fill-rule:evenodd;stroke:none;stroke-width:1px;stroke-linecap:butt;stroke-linejoin:miter;stroke-opacity:1"
       d="M 505.31379,341.99364 C 506.74239,341.99364 540.10149,347.1744 540.10149,347.1744 L 552.95869,351.81725 L 575.10149,348.60297 C 575.10149,348.60297 586.17299,354.6744 589.38719,354.6744 C 592.60149,354.6744 634.74439,353.24583 636.17299,353.24583 C 637.60149,353.24583 643.67299,353.96011 643.67299,353.96011 C 643.67299,353.96011 660.10149,361.81725 661.88719,362.1744 C 663.67299,362.53154 700.10149,365.03154 700.10149,365.03154 L 637.95869,369.31725 L 592.24439,369.31725 L 584.38719,363.24583 L 569.74439,361.46011 L 523.42039,357.26106 L 505.31379,341.99364 z"
       id="path2384"
       sodipodi:nodetypes="ccccsscsccccccc" />
    <path
       style="fill:#0000ff;fill-rule:evenodd;stroke:none;stroke-width:1px;stroke-linecap:butt;stroke-linejoin:miter;stroke-opacity:1"
       d="M 586.23945,481.06694 L 496.60689,342.80877 L 502.0621,340.56118 L 506.69618,342.85341 L 672.4551,482.6302 L 586.23945,481.06694 z"
       id="path2383"
       sodipodi:nodetypes="cccccc" />
    <path
       style="opacity:0.35092444;fill:#000080;fill-rule:evenodd;stroke:none;stroke-width:1px;stroke-linecap:butt;stroke-linejoin:miter;stroke-opacity:1"
       d="M 501.91939,340.57663 L 527.81225,368.52306 L 538.08011,369.41592 L 506.91939,342.98735 L 501.91939,340.57663 z"
       id="path3176"
       sodipodi:nodetypes="ccccc" />
    <path
       style="fill:#000080;fill-rule:evenodd;stroke:none;stroke-width:1px;stroke-linecap:butt;stroke-linejoin:miter;stroke-opacity:1"
       d="M 496.74082,342.6302 L 496.74082,385.48734 L 536.80395,481.05927 L 586.28278,480.95653 L 496.74082,342.6302 z"
       id="path2385"
       sodipodi:nodetypes="ccccc" />
    <path
       style="fill:#000080;fill-rule:evenodd;stroke:none;stroke-width:1px;stroke-linecap:butt;stroke-linejoin:miter;stroke-opacity:1"
       d="M 526.99336,387.98177 L 529.09551,363.92221 L 540.49975,370.94903 L 546.74082,416.91592 L 526.99336,387.98177 z"
       id="path2387"
       sodipodi:nodetypes="ccccc" />
    <path
       style="fill:#00112b;fill-rule:evenodd;stroke:none;stroke-width:1px;stroke-linecap:butt;stroke-linejoin:miter;stroke-opacity:1"
       d="M 546.5089,416.8044 L 572.12475,412.02821 L 590.90332,413.0578 L 576.30841,371.095 L 539.94292,371.095 L 546.5089,416.8044 z"
       id="path2389"
       sodipodi:nodetypes="cccccc" />
    <path
       style="fill:#000000;fill-rule:evenodd;stroke:none;stroke-width:1px;stroke-linecap:butt;stroke-linejoin:miter;stroke-opacity:1"
       d="M 392.57524,482.27306 L 491.96067,419.58232 L 494.99112,397.35897 L 499.53681,368.56962 L 505.26597,377.13054 L 503.57742,402.40973 L 511.65864,419.58232 L 515.73252,429.85979 L 517.51297,434.46675 L 509.13326,440.29045 L 466.76197,481.4975 L 392.57524,482.27306 z"
       id="path2563"
       sodipodi:nodetypes="cccccccccccc" />
    <path
       style="fill:#800080;fill-rule:evenodd;stroke:none;stroke-width:1px;stroke-linecap:butt;stroke-linejoin:miter;stroke-opacity:1"
       d="M 401.38367,480.1302 L 493.16939,420.84449 L 499.9551,371.91592 L 502.81224,374.77306 L 499.9551,398.70163 L 498.16939,400.1302 L 499.59796,401.91592 L 499.24082,422.27306 L 495.66939,422.27306 L 496.02653,425.1302 L 477.81225,441.91592 L 442.4551,480.84449 L 401.38367,480.1302 z"
       id="path2386"
       sodipodi:nodetypes="ccccccccccccc" />
    <path
       style="fill:#00002a;fill-opacity:1;fill-rule:evenodd;stroke:none;stroke-width:1px;stroke-linecap:butt;stroke-linejoin:miter;stroke-opacity:1"
       d="M 504.59796,407.27306 L 510.31224,418.34449 L 514.9551,429.77306 L 511.02653,431.20163 L 509.24082,426.55877 L 503.52653,422.27306 L 504.59796,407.27306 z"
       id="path2388" />
    <path
       style="opacity:0.32051284;fill:#ffcc00;fill-opacity:1;fill-rule:evenodd;stroke:none;stroke-width:0.39894184px;stroke-linecap:butt;stroke-linejoin:miter;stroke-opacity:1"
       d="M 380.39557,256.17061 L 385.49745,228.49599 L 417.52598,228.09491 L 422.91131,256.17061 L 415.6229,238.52303 L 390.51837,238.12194 L 380.80048,255.76953 L 380.39557,255.76953 L 380.39557,256.17061 z"
       id="path2466" />
    <path
       id="path2468"
       d="M 380.39418,256.72939 L 385.49641,284.24631 L 417.52702,284.24631 L 422.9127,256.72939 L 415.6238,274.03284 L 390.51764,274.4261 L 380.79912,257.12265 L 380.39418,257.12265 L 380.39418,256.72939 z"
       style="opacity:0.32051284;fill:#ffcc00;fill-opacity:1;fill-rule:evenodd;stroke:none;stroke-width:0.39504597px;stroke-linecap:butt;stroke-linejoin:miter;stroke-opacity:1" />
    <path
       style="fill:#000000;fill-rule:evenodd;stroke:none;stroke-width:1px;stroke-linecap:butt;stroke-linejoin:miter;stroke-opacity:1"
       d="M 505.09265,401.39958 L 548.02413,478.17118 L 586.91501,480.19148 L 537.41753,480.19148 L 505.09265,401.39958 z"
       id="path2390"
       sodipodi:nodetypes="ccccc" />
    <path
       style="opacity:0.56302526;fill:#000080;fill-rule:evenodd;stroke:none;stroke-width:1px;stroke-linecap:butt;stroke-linejoin:miter;stroke-opacity:1"
       d="M 547.667,416.66916 L 573.8913,413.67713 L 588.43023,419.07725 L 669.27833,480.93641 L 589.34848,413.28157 L 572.78328,412.21978 L 547.667,416.66916 z"
       id="path2392"
       sodipodi:nodetypes="ccccccc" />
    <path
       style="fill:#0000ff;fill-rule:evenodd;stroke:none;stroke-width:1px;stroke-linecap:butt;stroke-linejoin:miter;stroke-opacity:1"
       d="M 528.83124,364.02393 L 539.94291,371.095 L 576.81348,371.095 L 547.51906,364.02393 L 528.83124,364.02393 z"
       id="path3164" />
    <path
       style="opacity:1;fill:#000000;fill-rule:evenodd;stroke:none;stroke-width:1px;stroke-linecap:butt;stroke-linejoin:miter;stroke-opacity:1"
       d="M 0.811031,481.14914 L 1.063109,242.19094 L 29.545531,484.0031 L 401.56864,471.52795 L 771.70516,484.09646 L 801.36436,242.6674 L 801.56864,481.52795 L 0.811031,481.14914 z"
       id="path3166"
       sodipodi:nodetypes="cccccccc" />
    <path
       style="opacity:1;fill:#000000;fill-rule:evenodd;stroke:none;stroke-width:1px;stroke-linecap:butt;stroke-linejoin:miter;stroke-opacity:1"
       d="M -0.431355,1.52795 L 399.56864,31.52795 L 799.56864,1.52795 L -0.431355,1.52795 z"
       id="path3168"
       sodipodi:nodetypes="cccc" />
    <path
       style="fill:#00ffff;fill-rule:evenodd;stroke:#000000;stroke-width:1px;stroke-linecap:butt;stroke-linejoin:miter;stroke-opacity:1"
       d="M 541.2051,372.27306 L 575.31225,371.73734 L 587.63368,409.23734 L 546.38368,411.55877 L 541.2051,372.27306 z"
       id="path3178" />
    <path
       style="opacity:0.23109245;fill:#005544;fill-rule:evenodd;stroke:none;stroke-width:1px;stroke-linecap:butt;stroke-linejoin:miter;stroke-opacity:1"
       d="M 542.05332,376.46949 L 577.09795,378.38913 L 574.9551,372.0052 L 541.56225,372.45163 L 542.05332,376.46949 z"
       id="path3180"
       sodipodi:nodetypes="ccccc" />
    <path
       style="opacity:0.83613443;fill:#37abc8;fill-rule:evenodd;stroke:none;stroke-width:1px;stroke-linecap:butt;stroke-linejoin:miter;stroke-opacity:1"
       d="M 545.66939,402.09449 L 546.74082,411.02306 L 587.031,408.76859 L 550.75868,408.96949 L 545.66939,402.09449 z"
       id="path3182"
       sodipodi:nodetypes="ccccc" />
    <path
       style="opacity:0.11344539;fill:#0b2228;fill-rule:evenodd;stroke:none;stroke-width:1px;stroke-linecap:butt;stroke-linejoin:miter;stroke-opacity:1"
       d="M 571.25764,412.00618 L 633.38203,477.41356 L 667.22214,479.43386 L 590.70308,413.26887 L 571.25764,412.00618 z"
       id="path3184"
       sodipodi:nodetypes="ccccc" />
  </g>
</svg>
