<?xml version="1.0" encoding="UTF-8" standalone="no"?>
<!-- Created with Inkscape (http://www.inkscape.org/) -->
<svg
   xmlns:dc="http://purl.org/dc/elements/1.1/"
   xmlns:cc="http://creativecommons.org/ns#"
   xmlns:rdf="http://www.w3.org/1999/02/22-rdf-syntax-ns#"
   xmlns:svg="http://www.w3.org/2000/svg"
   xmlns="http://www.w3.org/2000/svg"
   xmlns:sodipodi="http://sodipodi.sourceforge.net/DTD/sodipodi-0.dtd"
   xmlns:inkscape="http://www.inkscape.org/namespaces/inkscape"
   width="800"
   height="480"
   id="svg3383"
   sodipodi:version="0.32"
   inkscape:version="0.46"
   sodipodi:docname="chapter4b.svg"
   inkscape:output_extension="org.inkscape.output.svg.inkscape"
   version="1.0">
  <defs
     id="defs3385">
    <inkscape:perspective
       sodipodi:type="inkscape:persp3d"
       inkscape:vp_x="0 : 526.18109 : 1"
       inkscape:vp_y="0 : 1000 : 0"
       inkscape:vp_z="744.09448 : 526.18109 : 1"
       inkscape:persp3d-origin="372.04724 : 350.78739 : 1"
       id="perspective3391" />
    <inkscape:perspective
       id="perspective3400"
       inkscape:persp3d-origin="372.04724 : 350.78739 : 1"
       inkscape:vp_z="744.09448 : 526.18109 : 1"
       inkscape:vp_y="0 : 1000 : 0"
       inkscape:vp_x="0 : 526.18109 : 1"
       sodipodi:type="inkscape:persp3d" />
    <inkscape:perspective
       id="perspective2402"
       inkscape:persp3d-origin="372.04724 : 350.78739 : 1"
       inkscape:vp_z="744.09448 : 526.18109 : 1"
       inkscape:vp_y="0 : 1000 : 0"
       inkscape:vp_x="0 : 526.18109 : 1"
       sodipodi:type="inkscape:persp3d" />
    <inkscape:perspective
       id="perspective3221"
       inkscape:persp3d-origin="372.04724 : 350.78739 : 1"
       inkscape:vp_z="744.09448 : 526.18109 : 1"
       inkscape:vp_y="0 : 1000 : 0"
       inkscape:vp_x="0 : 526.18109 : 1"
       sodipodi:type="inkscape:persp3d" />
  </defs>
  <sodipodi:namedview
     id="base"
     pagecolor="#ffffff"
     bordercolor="#666666"
     borderopacity="1.0"
     gridtolerance="10000"
     guidetolerance="10"
     objecttolerance="10"
     inkscape:pageopacity="0.0"
     inkscape:pageshadow="2"
     inkscape:zoom="0.98994948"
     inkscape:cx="472.05576"
     inkscape:cy="245.6883"
     inkscape:document-units="px"
     inkscape:current-layer="layer1"
     showgrid="false"
     inkscape:window-width="1280"
     inkscape:window-height="729"
     inkscape:window-x="0"
     inkscape:window-y="25"
     showguides="true"
     inkscape:guide-bbox="true" />
  <metadata
     id="metadata3388">
    <rdf:RDF>
      <cc:Work
         rdf:about="">
        <dc:format>image/svg+xml</dc:format>
        <dc:type
           rdf:resource="http://purl.org/dc/dcmitype/StillImage" />
      </cc:Work>
    </rdf:RDF>
  </metadata>
  <g
     inkscape:label="Layer 1"
     inkscape:groupmode="layer"
     id="layer1">
    <path
       style="fill:#999999;fill-rule:evenodd;stroke:none;stroke-width:1px;stroke-linecap:butt;stroke-linejoin:miter;stroke-opacity:1"
       d="M -0.36361224,0.83375686 L 588.52311,-0.035193302 L -0.36361224,0.83375686 z"
       id="path3947"
       sodipodi:nodetypes="ccc" />
    <path
       style="fill:#1a1a1a;fill-rule:evenodd;stroke:none;stroke-width:1px;stroke-linecap:butt;stroke-linejoin:miter;stroke-opacity:1"
       d="M 1.4931948,2.5200556 L 107.89746,0.59206764 L 115.94671,489.57446 L 3.6988448,490.1168 L 1.4931948,2.5200556 z"
       id="path3949"
       sodipodi:nodetypes="ccccc" />
    <path
       style="fill:#808080;fill-rule:evenodd;stroke:none;stroke-width:1px;stroke-linecap:butt;stroke-linejoin:miter;stroke-opacity:1"
       d="M 105.03778,-3.2258726 L 112.15375,490.78257 L 262.41976,481.14661 L 247.6043,-4.2224597 L 105.03778,-3.2258726 z"
       id="path3951"
       sodipodi:nodetypes="ccccc" />
    <path
       style="opacity:1;fill:#4d4d4d;fill-rule:evenodd;stroke:none;stroke-width:1px;stroke-linecap:butt;stroke-linejoin:miter;stroke-opacity:1"
       d="M 260.64204,486.12557 L 242.38276,-5.5150297 L 582.28412,-2.4193722 L 800.08185,-0.1763957 L 803.53563,482.48089 L 260.64204,486.12557 z"
       id="path3953"
       sodipodi:nodetypes="cccccc" />
    <path
       style="fill:#800080;fill-rule:evenodd;stroke:none;stroke-width:1px;stroke-linecap:butt;stroke-linejoin:miter;stroke-opacity:1"
       d="M 499.42537,199.15195 L 466.97334,193.6671 L 427.66525,216.97771 L 419.89505,232.06105 L 427.66525,264.97014 L 414.4102,285.9954 L 391.55667,310.67722 L 390.18546,344.95752 L 394.75616,366.89692 L 395.6703,405.29087 L 572.09962,426.31612 L 579.41275,377.86662 L 612.32184,384.26561 L 633.80417,379.69491 L 641.57437,373.29591 L 641.57437,364.61157 L 652.08699,291.02318 L 637.91781,268.16964 L 615.52134,258.57116 L 574.84204,235.26055 L 562.9582,221.54842 L 557.93042,198.69488 L 567.52891,140.6469 L 524.56425,182.6974 L 493.48345,186.81104 L 499.42537,193.21004 L 499.42537,199.15195 z"
       id="path2428" />
    <path
       style="fill:#000000;fill-rule:evenodd;stroke:none;stroke-width:1px;stroke-linecap:butt;stroke-linejoin:miter;stroke-opacity:1"
       d="M 390.18546,328.96005 L 424.92283,362.78329 L 464.68799,367.81107 L 503.99607,393.86409 L 576.67032,388.37925 L 572.47826,497.76581 L 395.10232,479.62637 L 394.75616,363.69743 L 390.18546,344.95752 L 390.18546,328.96005 z"
       id="path2430"
       sodipodi:nodetypes="cccccccccc" />
    <path
       style="fill:#000000;fill-rule:evenodd;stroke:none;stroke-width:1px;stroke-linecap:butt;stroke-linejoin:miter;stroke-opacity:1"
       d="M 606.37993,256.2858 L 487.99859,280.51055 L 461.94556,286.90954 L 472.00112,250.34388 L 457.83193,231.60397 L 465.14506,194.58125 L 487.54152,197.78074 L 498.05415,198.69488 L 499.42537,229.31862 L 525.93547,238.46004 L 561.58699,237.5459 L 571.64255,233.88933 L 606.37993,256.2858 z"
       id="path2432" />
    <path
       style="fill:#000000;fill-rule:evenodd;stroke:none;stroke-width:1px;stroke-linecap:butt;stroke-linejoin:miter;stroke-opacity:1"
       d="M 494.39759,186.35397 L 513.59456,199.15195 L 520.45062,210.12165 L 558.84457,189.55346 L 567.52891,141.10397 L 527.30668,181.32619 L 494.39759,186.35397 z"
       id="path2434"
       sodipodi:nodetypes="ccccccc" />
    <path
       style="fill:#000000;fill-rule:evenodd;stroke:none;stroke-width:1px;stroke-linecap:butt;stroke-linejoin:miter;stroke-opacity:1"
       d="M 497.24398,61.041438 L 519.18338,23.561631 L 623.39551,55.556584 L 638.02178,98.521227 L 569.46116,203.6475 L 457.02175,212.78891 L 435.99649,186.27881 L 497.24398,61.041438 z"
       id="path2442" />
    <path
       style="fill:#000000;fill-rule:evenodd;stroke:none;stroke-width:1px;stroke-linecap:butt;stroke-linejoin:miter;stroke-opacity:1"
       d="M 423.55161,223.83378 L 365.9607,246.68731 L 349.50616,255.82873 L 336.70817,255.82873 L 214.20206,287.24225 L 253.52129,308.84894 L 310.19807,307.02065 L 333.05161,293.30853 L 397.04151,286.90954 L 412.58192,285.9954 L 430.86475,262.22772 L 423.55161,223.83378 z"
       id="path2436"
       sodipodi:nodetypes="cccccccccccc" />
    <path
       style="fill:#000000;fill-rule:evenodd;stroke:none;stroke-width:1px;stroke-linecap:butt;stroke-linejoin:miter;stroke-opacity:1"
       d="M 472.00112,479.7934 L 557.93042,358.21258 L 563.41527,344.50046 L 592.6678,339.92975 L 631.06174,354.55601 L 635.63245,362.78329 L 555.18799,456.02572 L 534.16274,493.50552 L 473.8294,484.36411 L 472.00112,479.7934 z"
       id="path2438"
       sodipodi:nodetypes="cccccccccc" />
    <path
       style="fill:#ffe6d5;fill-rule:evenodd;stroke:none;stroke-width:1px;stroke-linecap:butt;stroke-linejoin:miter;stroke-opacity:1"
       d="M 485.25617,107.28074 L 481.60375,116.30093 L 476.55469,130.91656 L 472.91526,164.87165 L 472.00112,171.27064 L 479.77132,179.04084 L 500.72622,181.91098 L 534.83446,166.36877 L 545.27313,143.18585 L 566.61477,139.73275 L 563.87234,117.3363 L 560.67285,104.08124 L 557.93042,100.42467 L 560.21577,89.912047 L 551.9885,75.742849 L 554.73093,65.687299 L 537.36224,58.831233 L 523.19304,61.573659 L 513.13749,61.573659 L 499.88243,75.285784 L 489.58686,89.404287 L 485.25617,107.28074 z"
       id="path2408"
       sodipodi:nodetypes="cccccccccccccccccccccc" />
    <path
       style="fill:#803300;fill-rule:evenodd;stroke:none;stroke-width:1px;stroke-linecap:butt;stroke-linejoin:miter;stroke-opacity:1"
       d="M 477.45405,145.50674 L 483.70341,145.1581 L 489.02126,146.9749 L 495.82936,149.52922 L 500.33951,154.58755 L 506.05289,155.27316 L 508.33824,156.41584 L 503.2531,152.29156 L 496.6638,144.84376 L 490.27536,140.24037 L 486.1098,139.9258 L 479.54279,140.6469 L 477.94304,143.16078 L 479.54279,144.30347 L 477.45405,145.50674 z"
       id="path2410"
       sodipodi:nodetypes="ccccccccccccccc" />
    <path
       style="fill:#808080;fill-rule:evenodd;stroke:none;stroke-width:1px;stroke-linecap:butt;stroke-linejoin:miter;stroke-opacity:1"
       d="M 488.97335,127.94885 L 490.51248,122.82114 L 496.68294,126.47771 L 499.88243,134.01937 L 502.39632,134.93351 L 497.36854,134.01937 L 494.39759,128.76306 L 491.76573,129.41675 L 488.97335,127.94885 z"
       id="path2412"
       sodipodi:nodetypes="ccccccccc" />
    <path
       style="fill:#cccccc;fill-rule:evenodd;stroke:none;stroke-width:1px;stroke-linecap:butt;stroke-linejoin:miter;stroke-opacity:1"
       d="M 496.4544,120.07871 L 500.56804,123.96382 L 501.36421,127.43117 L 501.87126,134.41584 L 504.54567,134.78038 L 504.63496,127.885 L 503.31047,118.0219 L 503.31047,115.05093 L 507.65264,113.45119 L 515.87991,117.33629 L 519.07941,122.82114 L 525.47839,124.87796 L 533.70567,123.27821 L 536.67663,124.42089 L 546.73219,123.04968 C 546.73219,123.04968 541.93294,119.16457 541.0188,119.62165 C 540.10467,120.07871 529.13496,120.53579 529.13496,120.53579 L 521.13623,118.0219 L 515.19431,111.39437 L 514.5087,103.1671 L 508.33824,100.88174 L 505.82435,105.22391 L 499.42537,110.70877 L 496.68294,115.50801 L 494.62612,116.19361 L 496.4544,120.07871 z"
       id="path2414"
       sodipodi:nodetypes="cccccccccccccccscccccccccc" />
    <path
       style="fill:#808080;fill-rule:evenodd;stroke:none;stroke-width:1px;stroke-linecap:butt;stroke-linejoin:miter;stroke-opacity:1"
       d="M 515.42284,94.482752 L 519.53647,97.682244 L 527.99228,99.510532 L 538.73345,103.1671 L 545.58951,108.65195 L 550.38875,113.22266 L 553.13118,118.0219 L 551.30289,110.25169 L 544.2183,103.8527 L 535.76249,96.768105 L 532.79153,94.254215 L 521.82183,94.482752 L 515.42284,94.482752 z"
       id="path2416" />
    <path
       style="fill:#808080;fill-rule:evenodd;stroke:none;stroke-width:1px;stroke-linecap:butt;stroke-linejoin:miter;stroke-opacity:1"
       d="M 490.51248,88.312297 L 493.71198,88.540834 L 496.4544,87.398158 L 501.25365,92.883002 L 499.19683,85.798407 L 497.59708,85.56987 L 495.08319,82.141841 L 490.96956,86.484018 L 490.51248,88.312297 z"
       id="path2418" />
    <path
       style="fill:#ffffff;fill-rule:evenodd;stroke:none;stroke-width:1px;stroke-linecap:butt;stroke-linejoin:miter;stroke-opacity:1"
       d="M 522.50744,108.42341 L 524.67852,111.33724 L 527.30668,111.1087 L 529.30637,110.65163 L 530.10624,110.02316 L 531.07751,108.30915 L 533.53427,110.13742 L 534.67695,112.82272 L 534.79121,113.79399 L 537.24797,115.96508 L 533.19147,116.42215 L 528.67789,114.4796 L 525.59266,112.59418 L 523.47872,111.05157 L 522.50744,108.42341 z"
       id="path2420" />
    <path
       style="fill:#ffffff;fill-rule:evenodd;stroke:none;stroke-width:1px;stroke-linecap:butt;stroke-linejoin:miter;stroke-opacity:1"
       d="M 488.91273,100.82461 L 491.65516,101.39595 L 493.36918,99.853337 L 494.34045,97.396577 L 495.99733,96.825244 L 497.99701,99.567661 L 497.65422,100.02474 L 499.25396,101.79588 L 499.19683,104.25264 L 497.08288,105.62385 L 489.99828,103.45276 L 488.96987,102.08155 L 488.91273,100.82461 z"
       id="path2422" />
    <path
       style="opacity:0.66379311;fill:#000000;fill-rule:evenodd;stroke:none;stroke-width:1px;stroke-linecap:butt;stroke-linejoin:miter;stroke-opacity:1"
       d="M 522.22177,108.19488 L 524.67852,110.88016 L 529.24923,110.65163 L 530.96325,107.96634 L 533.64853,109.73749 L 535.30541,113.33692 L 538.21925,116.02221 L 541.07593,118.47897 L 540.05978,114.93354 L 536.58063,109.8395 L 529.30637,103.5099 L 523.93578,102.82429 L 519.70788,106.48086 L 518.16526,109.10902 L 522.67884,113.73686 L 523.70724,112.36565 L 522.22177,108.19488 z"
       id="path2424"
       sodipodi:nodetypes="ccccccccccccccccc" />
    <path
       style="opacity:0.66379311;fill:#000000;fill-rule:evenodd;stroke:none;stroke-width:1px;stroke-linecap:butt;stroke-linejoin:miter;stroke-opacity:1"
       d="M 489.36981,103.5099 L 487.08446,103.8527 L 486.62738,101.45308 L 488.79847,94.368484 L 492.8401,93.640616 L 498.41208,96.268774 L 500.91084,99.510532 L 501.02511,104.08124 L 499.3111,104.08124 L 498.85402,100.76748 L 498.05415,99.853337 L 497.48281,98.367855 L 495.426,96.882373 L 494.28332,97.225179 L 493.48345,99.6248 L 491.76943,101.22455 L 489.14127,100.88174 L 489.36981,102.59575 L 489.36981,103.5099 z"
       id="path2426"
       sodipodi:nodetypes="ccccccccccccccccccc" />
    <path
       style="opacity:0.51724135;fill:#800000;fill-rule:evenodd;stroke:none;stroke-width:1.05719352px;stroke-linecap:butt;stroke-linejoin:miter;stroke-opacity:1"
       d="M 468.69974,192.09447 L 531.64587,187.27221 L 575.22396,144.83637 L 592.6552,69.609178 L 533.58267,31.995591 L 507.43581,49.355703 L 455.14212,162.19648 L 468.69974,192.09447 z"
       id="path2440" />
    <path
       style="fill:#000080;fill-rule:evenodd;stroke:none;stroke-width:1px;stroke-linecap:butt;stroke-linejoin:miter;stroke-opacity:1"
       d="M 174.44705,237.94348 L 441.25563,485.79602 L 328.81914,478.74397 L 146.43394,266.52159 L 137.26939,212.1268 L 153.50529,213.84078 L 174.44705,237.94348 z"
       id="path3227"
       sodipodi:nodetypes="ccccccc" />
    <path
       style="fill:#0000ff;fill-rule:evenodd;stroke:none;stroke-width:1px;stroke-linecap:butt;stroke-linejoin:miter;stroke-opacity:1"
       d="M 138.33946,212.17848 L 216.46179,296.54844 L 228.60076,293.68852 L 247.47193,330.05066 L 388.81424,482.53582 L 438.17789,484.36411 L 267.23015,322.13025 L 243.948,290.97689 L 233.13138,287.78707 L 152.96573,211.94993 L 138.33946,212.17848 z"
       id="path3231"
       sodipodi:nodetypes="ccccccccccc" />
    <path
       style="fill:#00ffff;fill-rule:evenodd;stroke:none;stroke-width:1px;stroke-linecap:butt;stroke-linejoin:miter;stroke-opacity:1"
       d="M 229.23319,293.58742 L 244.26189,291.64824 L 267.37053,322.51363 L 247.00907,329.30078 L 229.23319,293.58742 z"
       id="path3233"
       sodipodi:nodetypes="ccccc" />
    <path
       id="path3235"
       d="M 138.15644,244.9451 L 140.7131,223.01738 L 166.6529,246.77674 L 171.99707,268.5415 L 166.05122,286.71321 L 152.92269,274.49646 L 135.22112,251.53494 L 138.15644,244.9451 z"
       style="fill:#000080;fill-rule:evenodd;stroke:none;stroke-width:1.75509572px;stroke-linecap:butt;stroke-linejoin:miter;stroke-opacity:1"
       sodipodi:nodetypes="cccccccc" />
    <path
       style="fill:#000000;fill-rule:evenodd;stroke:none;stroke-width:1px;stroke-linecap:butt;stroke-linejoin:miter;stroke-opacity:1"
       d="M 172.64978,293.26817 L 175.23536,269.99792 L 186.22409,280.98665 L 190.74886,298.43933 L 191.39526,317.18481 L 181.05293,313.95283 L 172.64978,300.37852 L 172.64978,293.26817 z"
       id="path3229" />
    <path
       style="fill:#22002b;fill-rule:evenodd;stroke:none;stroke-width:1px;stroke-linecap:butt;stroke-linejoin:miter;stroke-opacity:1"
       d="M 497.59708,208.75044 L 558.84456,204.17973 L 562.50113,221.54842 L 574.38497,232.51812 L 561.58699,238.46004 L 526.84961,238.91711 L 499.65389,229.77569 L 497.59708,208.75044 z"
       id="path3237"
       sodipodi:nodetypes="cccccccc" />
    <path
       style="opacity:0.66810345;fill:#000000;fill-rule:evenodd;stroke:none;stroke-width:1px;stroke-linecap:butt;stroke-linejoin:miter;stroke-opacity:1"
       d="M 564.87414,342.0671 L 571.98449,312.3329 L 592.66915,340.12791 L 535.78633,390.54677 L 564.87414,342.0671 z"
       id="path3239" />
  </g>
</svg>
