<?xml version="1.0" encoding="UTF-8" standalone="no"?>
<!-- Created with Inkscape (http://www.inkscape.org/) -->
<svg
   xmlns:dc="http://purl.org/dc/elements/1.1/"
   xmlns:cc="http://creativecommons.org/ns#"
   xmlns:rdf="http://www.w3.org/1999/02/22-rdf-syntax-ns#"
   xmlns:svg="http://www.w3.org/2000/svg"
   xmlns="http://www.w3.org/2000/svg"
   xmlns:xlink="http://www.w3.org/1999/xlink"
   xmlns:sodipodi="http://sodipodi.sourceforge.net/DTD/sodipodi-0.dtd"
   xmlns:inkscape="http://www.inkscape.org/namespaces/inkscape"
   width="800"
   height="480"
   id="svg2"
   sodipodi:version="0.32"
   inkscape:version="0.46"
   sodipodi:docname="chapter3c.svg"
   inkscape:output_extension="org.inkscape.output.svg.inkscape"
   version="1.0">
  <defs
     id="defs4">
    <inkscape:perspective
       sodipodi:type="inkscape:persp3d"
       inkscape:vp_x="0 : 526.18109 : 1"
       inkscape:vp_y="0 : 1000 : 0"
       inkscape:vp_z="744.09448 : 526.18109 : 1"
       inkscape:persp3d-origin="372.04724 : 350.78739 : 1"
       id="perspective10" />
    <inkscape:perspective
       id="perspective2390"
       inkscape:persp3d-origin="372.04724 : 350.78739 : 1"
       inkscape:vp_z="744.09448 : 526.18109 : 1"
       inkscape:vp_y="0 : 1000 : 0"
       inkscape:vp_x="0 : 526.18109 : 1"
       sodipodi:type="inkscape:persp3d" />
    <inkscape:perspective
       id="perspective3257"
       inkscape:persp3d-origin="372.04724 : 350.78739 : 1"
       inkscape:vp_z="744.09448 : 526.18109 : 1"
       inkscape:vp_y="0 : 1000 : 0"
       inkscape:vp_x="0 : 526.18109 : 1"
       sodipodi:type="inkscape:persp3d" />
  </defs>
  <sodipodi:namedview
     id="base"
     pagecolor="#ffffff"
     bordercolor="#666666"
     borderopacity="1.0"
     gridtolerance="10000"
     guidetolerance="10"
     objecttolerance="10"
     inkscape:pageopacity="0.0"
     inkscape:pageshadow="2"
     inkscape:zoom="0.9899495"
     inkscape:cx="224.99417"
     inkscape:cy="216.54496"
     inkscape:document-units="px"
     inkscape:current-layer="layer1"
     showgrid="false"
     inkscape:window-width="1278"
     inkscape:window-height="722"
     inkscape:window-x="0"
     inkscape:window-y="25" />
  <metadata
     id="metadata7">
    <rdf:RDF>
      <cc:Work
         rdf:about="">
        <dc:format>image/svg+xml</dc:format>
        <dc:type
           rdf:resource="http://purl.org/dc/dcmitype/StillImage" />
      </cc:Work>
    </rdf:RDF>
  </metadata>
  <g
     inkscape:label="Layer 1"
     inkscape:groupmode="layer"
     id="layer1">
    <image
       y="-1223.7806"
       x="11117.143"
       id="image2392"
       height="2338"
       width="1700"
       sodipodi:absref="/home/daniel/Desktop/storyboards/foto4.jpg"
       xlink:href="foto4.jpg"
       style="stroke:none" />
    <path
       style="fill:#2b1100;fill-opacity:1;stroke:none"
       d="M 109.09671,1.0809305 L 804.93692,1.0809305 L 804.93692,481.00296 L 109.09671,481.00296 L 104.811,308.57143 L 83.529761,154.96955 L 109.09671,1.0809305 z"
       id="rect3244"
       sodipodi:nodetypes="ccccccc" />
    <path
       style="fill:#000000;fill-rule:evenodd;stroke:none;stroke-width:1px;stroke-linecap:butt;stroke-linejoin:miter;stroke-opacity:1"
       d="M 416.96021,168.33903 L 357.96959,146.40354 L 297.84455,171.08097 L 309.18889,182.0487 L 323.93655,173.82291 L 323.93655,183.41969 L 329.60872,182.0487 L 336.41533,172.45193 L 355.70072,161.48419 L 411.28803,193.01645 L 406.39941,218.42043 L 418.38503,224.28213 L 424.90125,247.85518 L 373.85168,269.79067 L 371.58281,286.24228 L 419.22907,306.80681 L 415.82577,328.7423 L 430.57343,326.00037 L 429.43899,295.83906 L 402.21255,278.01648 L 422.63238,280.75842 L 440.78334,282.12938 L 449.85882,278.01648 L 465.7409,376.72619 L 468.00977,405.51651 L 483.89186,402.77458 L 477.08525,378.09715 L 467.44256,266.36325 L 465.7409,251.96809 L 456.09821,236.88744 L 454.39656,195.7584 L 492.96734,177.93581 L 527.00039,213.58098 L 527.00039,225.91969 L 537.2103,230.0326 L 533.807,214.95194 L 540.6136,209.46807 L 545.15134,223.17776 L 546.28578,205.35517 L 531.53812,195.7584 L 495.23621,149.14548 L 447.58995,173.82291 L 450.99325,140.91967 L 431.70786,132.69387 L 420.36351,142.29063 L 426.03569,175.19387 L 416.96021,168.33903 z"
       id="path3214"
       sodipodi:nodetypes="ccccccccccccccccccccccccccccccccccccccccccccccc" />
    <path
       style="opacity:0.47280333;fill:#00ff00;fill-rule:evenodd;stroke:none;stroke-width:1px;stroke-linecap:butt;stroke-linejoin:miter;stroke-opacity:1"
       d="M 407.31751,217.0084 L 432.27507,219.06485 L 441.91777,211.52453 L 449.2916,217.69388 L 449.85882,228.66163 L 432.27507,226.60518 L 420.36351,227.97615 L 418.09464,224.54873 L 407.31751,217.0084 z"
       id="path3216" />
    <path
       style="opacity:0.47280333;fill:#00ff00;fill-rule:evenodd;stroke:none;stroke-width:1px;stroke-linecap:butt;stroke-linejoin:miter;stroke-opacity:1"
       d="M 371.0156,285.55681 L 382.35994,286.24228 L 427.17012,301.32294 L 418.09464,306.8068 L 371.0156,285.55681 z"
       id="path3218" />
    <path
       style="opacity:0.47280333;fill:#00ff00;fill-rule:evenodd;stroke:none;stroke-width:1px;stroke-linecap:butt;stroke-linejoin:miter;stroke-opacity:1"
       d="M 405.61585,278.70196 L 411.85525,275.27455 L 437.94725,273.90357 L 451.56047,275.96003 L 441.35055,282.81487 L 405.61585,278.70196 z"
       id="path3220" />
    <path
       style="opacity:0.47280333;fill:#00ff00;fill-rule:evenodd;stroke:none;stroke-width:1px;stroke-linecap:butt;stroke-linejoin:miter;stroke-opacity:1"
       d="M 309.75611,181.36323 L 325.6382,168.33903 L 357.96959,154.62935 L 412.42246,186.8471 L 410.72082,194.38743 L 356.83516,160.79871 L 338.6842,171.76646 L 330.17594,182.73419 L 323.93655,182.73419 L 323.93655,175.19388 L 309.75611,181.36323 z"
       id="path3222" />
    <path
       style="opacity:0.47280333;fill:#00ff00;fill-rule:evenodd;stroke:none;stroke-width:1px;stroke-linecap:butt;stroke-linejoin:miter;stroke-opacity:1"
       d="M 428.30455,175.19388 L 428.87177,165.5971 L 444.75386,173.82291 L 428.30455,175.19388 z"
       id="path3224" />
    <path
       style="opacity:0.47280333;fill:#00ff00;fill-rule:evenodd;stroke:none;stroke-width:1px;stroke-linecap:butt;stroke-linejoin:miter;stroke-opacity:1"
       d="M 453.82934,193.70194 L 495.23621,168.33903 L 531.53812,210.15356 L 533.807,229.34711 L 524.73151,225.91969 L 527.00039,212.21002 L 493.53456,178.62129 L 453.82934,193.70194 z"
       id="path3226" />
    <path
       style="opacity:0.47280333;fill:#00ff00;fill-rule:evenodd;stroke:none;stroke-width:1px;stroke-linecap:butt;stroke-linejoin:miter;stroke-opacity:1"
       d="M 448.72438,278.01647 L 460.63595,322.57294 L 462.90482,334.91165 L 466.87534,402.77456 L 458.80958,328.52774 L 448.72438,278.01647 z"
       id="path3228"
       sodipodi:nodetypes="cccccc" />
    <path
       style="fill:#00ff00;fill-rule:evenodd;stroke:none;stroke-width:1px;stroke-linecap:butt;stroke-linejoin:miter;stroke-opacity:1"
       d="M 251.33272,449.38748 L 278.55915,395.91974 L 266.08037,448.01652 L 255.87046,458.98426 L 251.33272,449.38748 z"
       id="path3230" />
    <path
       style="fill:#00ff00;fill-rule:evenodd;stroke:none;stroke-width:1px;stroke-linecap:butt;stroke-linejoin:miter;stroke-opacity:1"
       d="M 367.04508,472.69395 L 378.38942,441.16169 L 374.98612,476.80685 L 367.04508,472.69395 z"
       id="path3232" />
    <path
       style="fill:#00ff00;fill-rule:evenodd;stroke:none;stroke-width:1px;stroke-linecap:butt;stroke-linejoin:miter;stroke-opacity:1"
       d="M 554.22682,402.77458 L 559.899,450.75846 L 568.97448,458.98426 L 574.64665,448.01652 L 554.22682,402.77458 z"
       id="path3234" />
    <path
       style="fill:#0000ff;fill-rule:evenodd;stroke:none;stroke-width:1px;stroke-linecap:butt;stroke-linejoin:miter;stroke-opacity:1"
       d="M 533.807,217.69388 L 555.36125,293.09713 L 566.70561,287.61325 L 540.6136,209.46807 L 533.807,217.69388 z"
       id="path3236" />
    <path
       style="fill:#00ff00;fill-rule:evenodd;stroke:none;stroke-width:1px;stroke-linecap:butt;stroke-linejoin:miter;stroke-opacity:1;opacity:0.25431034"
       d="M 104.99063,412.37136 L 120.87272,394.54877 L 122.00715,404.14555 L 124.27602,419.22618 L 116.33497,423.33909 L 127.67932,430.19393 L 114.06611,441.16169 L 125.41045,450.75846 L 108.39393,449.38748 L 104.99063,412.37136 z"
       id="path3238" />
    <path
       style="fill:#00ffff;fill-rule:evenodd;stroke:none;stroke-width:1px;stroke-linecap:butt;stroke-linejoin:miter;stroke-opacity:1"
       d="M 111.79723,378.09715 L 146.96471,334.22616 L 190.07324,375.35521 L 237.7195,353.41972 L 270.61811,271.16164 L 310.32333,242.37131 L 344.35638,257.45195 L 423.76682,313.66165 L 488.4296,268.41971 L 516.79047,182.0487 L 545.15134,136.80677 L 571.24334,147.77452 L 538.34473,205.35517 L 571.24334,132.69387 L 545.15134,151.88742 L 509.98387,172.45193 L 494.10178,268.41971 L 445.32107,280.75842 L 427.17012,323.25843 L 318.26437,231.40357 L 276.29028,278.01648 L 222.97184,352.04876 L 198.01428,386.32296 L 183.26663,349.30682 L 146.96471,352.04876 L 125.41045,347.93586 L 111.79723,378.09715 z"
       id="path3240" />
    <path
       style="fill:#552200;fill-opacity:1;stroke:none"
       d="M 0.51236862,0.75541604 L 109.63862,0.75541604 C 110.09368,42.505921 109.37785,75.84209 103.64926,115.01053 C 101.61547,128.91629 90.834544,145.42993 90.53702,160.71146 C 93.801334,166.8834 106.34003,172.35238 107.79835,180.33032 L 111.06719,272.14286 L 105.86637,301.43452 L 109.63862,480.5182 L 0.51236862,480.5182 L 0.51236862,0.75541604 z"
       id="rect3242"
       sodipodi:nodetypes="ccsccccccc" />
    <path
       style="fill:#ff0000;fill-rule:evenodd;stroke:none;stroke-width:1px;stroke-linecap:butt;stroke-linejoin:miter;stroke-opacity:1"
       d="M 449.2916,171.08097 L 440.78334,162.16967 L 435.11116,140.91967 L 450.99325,147.77452 L 449.2916,171.08097 z"
       id="path3246" />
    <path
       style="opacity:0.32905986;fill:#000000;fill-rule:evenodd;stroke:none;stroke-width:1px;stroke-linecap:butt;stroke-linejoin:miter;stroke-opacity:1"
       d="M 749.00814,10.050762 L 724.00814,111.47933 L 722.57957,138.62219 L 730.43671,167.9079 L 744.72242,184.33647 L 744.00814,251.47933 L 723.29385,283.62219 L 742.57957,309.33647 L 741.86528,353.62219 L 735.43671,412.9079 L 719.00814,412.9079 L 731.86528,445.76505 L 741.86528,446.47933 L 744.72242,467.19362 L 735.43671,478.62219 L 750.43671,487.9079 L 746.151,311.47933 L 753.29385,281.47933 L 747.57957,182.19362 L 729.00814,165.76505 L 743.29385,124.33647 L 753.29385,50.765047 L 750.43671,40.050762 L 749.00814,10.050762 z"
       id="path8107" />
    <path
       id="path4395"
       d="M 633.03594,148.86352 L 592.3522,207.73326 L 542.48179,152.54289 L 487.36189,181.97775 L 449.30287,292.35849 L 403.36957,330.99173 L 363.99823,310.7553 L 272.13169,235.32844 L 197.32609,296.03784 L 164.51661,411.93764 L 131.70712,472.64707 L 101.52241,457.92961 L 139.5814,380.66308 L 101.52241,478.16609 L 131.70712,452.41059 L 172.3909,424.81541 L 190.76419,296.03784 L 247.1965,279.48073 L 268.19458,222.45068 L 394.18294,345.70919 L 442.74099,283.1601 L 504.42281,183.81742 L 533.29514,137.82545 L 550.35605,187.49679 L 592.3522,183.81742 L 617.28738,189.33645 L 633.03594,148.86352 z"
       style="fill:#00ffff;fill-rule:evenodd;stroke:none;stroke-width:1px;stroke-linecap:butt;stroke-linejoin:miter;stroke-opacity:1;opacity:0.17672414" />
    <path
       style="opacity:0.04621851000000000;fill:#000000;fill-rule:evenodd;stroke:none;stroke-width:1px;stroke-linecap:butt;stroke-linejoin:miter;stroke-opacity:1"
       d="M 37.375644,21.390748 L 21.213204,52.705476 L 30.304576,104.22325 L 33.335034,186.04561 L 3.0304577,255.74613 L 20.203051,324.43651 L 55.55839,399.1878 L 18.182746,445.65481 L 31.314729,420.401 L 33.335034,374.94413 L 40.406102,353.73093 L 16.162441,278.97964 L 10.101526,232.51263 L 30.304576,147.65981 L 24.243661,106.24356 L 37.375644,34.522731 L 37.375644,21.390748 z"
       id="path6456" />
    <path
       id="path6967"
       d="M 63.639614,-87.705726 L 79.802054,-56.390998 L 70.710682,-4.873219 L 67.680224,76.949141 L 97.9848,146.64966 L 80.812207,215.34004 L 45.456865,290.09133 L 82.832512,336.55834 L 69.700529,311.30453 L 67.680224,265.84766 L 60.609156,244.63446 L 84.852817,169.88317 L 90.913732,123.41616 L 70.710682,38.563341 L 76.771597,-2.852909 L 63.639614,-74.573743 L 63.639614,-87.705726 z"
       style="opacity:0.5;fill:#000000;fill-rule:evenodd;stroke:none;stroke-width:1px;stroke-linecap:butt;stroke-linejoin:miter;stroke-opacity:1" />
    <path
       style="opacity:0.5;fill:#000000;fill-rule:evenodd;stroke:none;stroke-width:1px;stroke-linecap:butt;stroke-linejoin:miter;stroke-opacity:1"
       d="M 19.192902,38.563341 L 35.355342,69.878069 L 26.26397,121.39585 L 23.233512,203.21821 L 53.538091,272.91873 L 36.365495,341.60911 L 1.0101529,416.3604 L 38.3858,462.82741 L 25.253817,437.5736 L 23.233512,392.11673 L 16.162444,370.90353 L 40.406105,296.15224 L 46.46702,249.68523 L 26.26397,164.83241 L 32.324885,123.41616 L 19.192902,51.695324 L 19.192902,38.563341 z"
       id="path6969" />
    <path
       id="path6971"
       d="M 45.26261,519.39596 L 72.925247,488.08123 L 57.365014,436.56346 L 52.178269,354.7411 L 104.04572,285.04058 L 74.654154,216.3502 L 14.142136,141.59889 L 78.111992,95.131883 L 55.636098,120.38569 L 52.178269,165.84257 L 40.075864,187.05577 L 81.569813,261.80707 L 91.94331,308.27408 L 57.365014,393.12689 L 67.738503,434.54315 L 45.26261,506.26398 L 45.26261,519.39596 z"
       style="opacity:0.6;fill:#000000;fill-rule:evenodd;stroke:none;stroke-width:1px;stroke-linecap:butt;stroke-linejoin:miter;stroke-opacity:1" />
    <path
       style="opacity:0.5;fill:#000000;fill-rule:evenodd;stroke:none;stroke-width:1px;stroke-linecap:butt;stroke-linejoin:miter;stroke-opacity:1"
       d="M 77.781749,-65.482369 L 61.619309,-34.167639 L 70.710681,17.350136 L 73.741139,99.172496 L 43.436559,168.87302 L 60.609156,237.5634 L 95.964498,312.31471 L 58.588851,358.78171 L 71.720834,333.5279 L 73.741139,288.07102 L 80.812207,266.85782 L 56.568546,192.10653 L 50.507631,145.63952 L 70.710681,60.786706 L 64.649766,19.370446 L 77.781749,-52.350389 L 77.781749,-65.482369 z"
       id="path6973" />
  </g>
</svg>
