<?xml version="1.0" encoding="UTF-8" standalone="no"?>
<!-- Created with Inkscape (http://www.inkscape.org/) -->
<svg
   xmlns:dc="http://purl.org/dc/elements/1.1/"
   xmlns:cc="http://creativecommons.org/ns#"
   xmlns:rdf="http://www.w3.org/1999/02/22-rdf-syntax-ns#"
   xmlns:svg="http://www.w3.org/2000/svg"
   xmlns="http://www.w3.org/2000/svg"
   xmlns:sodipodi="http://sodipodi.sourceforge.net/DTD/sodipodi-0.dtd"
   xmlns:inkscape="http://www.inkscape.org/namespaces/inkscape"
   width="800"
   height="480"
   id="svg2"
   sodipodi:version="0.32"
   inkscape:version="0.46"
   version="1.0"
   sodipodi:docname="crack_floor.svg"
   inkscape:output_extension="org.inkscape.output.svg.inkscape">
  <defs
     id="defs4">
    <inkscape:perspective
       sodipodi:type="inkscape:persp3d"
       inkscape:vp_x="0 : 526.18109 : 1"
       inkscape:vp_y="0 : 1000 : 0"
       inkscape:vp_z="744.09448 : 526.18109 : 1"
       inkscape:persp3d-origin="372.04724 : 350.78739 : 1"
       id="perspective10" />
  </defs>
  <sodipodi:namedview
     id="base"
     pagecolor="#ffffff"
     bordercolor="#666666"
     borderopacity="1.0"
     gridtolerance="10000"
     guidetolerance="10"
     objecttolerance="10"
     inkscape:pageopacity="0.0"
     inkscape:pageshadow="2"
     inkscape:zoom="0.061871844"
     inkscape:cx="-2879.2236"
     inkscape:cy="1426.7526"
     inkscape:document-units="px"
     inkscape:current-layer="svg2"
     showgrid="false"
     inkscape:window-width="1280"
     inkscape:window-height="725"
     inkscape:window-x="0"
     inkscape:window-y="25"
     showguides="true"
     inkscape:guide-bbox="true" />
  <metadata
     id="metadata7">
    <rdf:RDF>
      <cc:Work
         rdf:about="">
        <dc:format>image/svg+xml</dc:format>
        <dc:type
           rdf:resource="http://purl.org/dc/dcmitype/StillImage" />
      </cc:Work>
    </rdf:RDF>
  </metadata>
  <path
     style="fill:#000000;fill-rule:evenodd;stroke:#000000;stroke-width:2.94989085px;stroke-linecap:butt;stroke-linejoin:miter;stroke-opacity:1"
     d="M 219.92889,-1747.9052 L 219.92889,-1747.9052 L -420.11836,-958.27567 L -393.3102,-979.47377 L -366.50196,-1000.6719 L -81.66411,-793.99029 L -81.66411,-793.99029 L -141.98268,-650.90303 L -28.04761,-417.72383 L 18.86689,-301.13429 L -105.1213,-189.8441 L 28.91999,75.132207 L -68.26001,-173.9456 L 206.52479,-407.12474 L -31.39861,-703.89833 L 79.18549,-846.98559 L 863.32729,-952.97612 L 162.96129,-1164.9573 L -28.04761,-1244.4502 L 364.02329,-1530.6247 L 139.50409,-1435.2332 L 219.92889,-1747.9052 z"
     id="path2387"
     sodipodi:nodetypes="cscccccccccccccccc" />
  <path
     style="fill:#000000;fill-rule:evenodd;stroke:#000000;stroke-width:2.16976643px;stroke-linecap:butt;stroke-linejoin:miter;stroke-opacity:1"
     d="M 1255.716,-2044.8684 L 1113.2733,-1430.1182 L 1113.2733,-1430.1182 L 1379.779,-1122.743 L 1358.3361,-1116.47 L 1336.8931,-1110.1971 L 1157.691,-959.646 L 1157.691,-959.646 L 1177.6023,-859.2786 L 981.55209,-884.3705 L 1042.8178,-639.7249 L 774.78049,-771.4571 L 555.75559,-181.7988 L 779.37539,-144.161 L 920.28649,-489.1739 L 811.53989,-288.439 L 715.04639,-520.5387 L 736.48939,-846.7327 L 479.17359,-470.355 L 1200.5769,-896.9164 L 1365.9943,-1191.7456 L 1255.716,-2044.8684 z"
     id="path2389"
     sodipodi:nodetypes="ccsccccccccccccccc" />
</svg>
