<?xml version="1.0" encoding="UTF-8" standalone="no"?>
<!-- Created with Inkscape (http://www.inkscape.org/) -->
<svg
   xmlns:dc="http://purl.org/dc/elements/1.1/"
   xmlns:cc="http://creativecommons.org/ns#"
   xmlns:rdf="http://www.w3.org/1999/02/22-rdf-syntax-ns#"
   xmlns:svg="http://www.w3.org/2000/svg"
   xmlns="http://www.w3.org/2000/svg"
   xmlns:sodipodi="http://sodipodi.sourceforge.net/DTD/sodipodi-0.dtd"
   xmlns:inkscape="http://www.inkscape.org/namespaces/inkscape"
   width="800"
   height="480"
   id="svg2"
   sodipodi:version="0.32"
   inkscape:version="0.46"
   version="1.0"
   sodipodi:docname="crack.svg"
   inkscape:output_extension="org.inkscape.output.svg.inkscape">
  <defs
     id="defs4">
    <inkscape:perspective
       sodipodi:type="inkscape:persp3d"
       inkscape:vp_x="0 : 526.18109 : 1"
       inkscape:vp_y="0 : 1000 : 0"
       inkscape:vp_z="744.09448 : 526.18109 : 1"
       inkscape:persp3d-origin="372.04724 : 350.78739 : 1"
       id="perspective10" />
  </defs>
  <sodipodi:namedview
     id="base"
     pagecolor="#ffffff"
     bordercolor="#666666"
     borderopacity="1.0"
     gridtolerance="10000"
     guidetolerance="10"
     objecttolerance="10"
     inkscape:pageopacity="0.0"
     inkscape:pageshadow="2"
     inkscape:zoom="0.70000001"
     inkscape:cx="227.52873"
     inkscape:cy="185.5332"
     inkscape:document-units="px"
     inkscape:current-layer="layer1"
     showgrid="false"
     inkscape:window-width="1280"
     inkscape:window-height="725"
     inkscape:window-x="0"
     inkscape:window-y="25" />
  <metadata
     id="metadata7">
    <rdf:RDF>
      <cc:Work
         rdf:about="">
        <dc:format>image/svg+xml</dc:format>
        <dc:type
           rdf:resource="http://purl.org/dc/dcmitype/StillImage" />
      </cc:Work>
    </rdf:RDF>
  </metadata>
  <g
     inkscape:label="Layer 1"
     inkscape:groupmode="layer"
     id="layer1">
    <path
       style="fill:#000000;fill-rule:evenodd;stroke:#000000;stroke-width:1px;stroke-linecap:butt;stroke-linejoin:miter;stroke-opacity:1"
       d="M 268.57142,8.5714353 C 268.57142,8.5714353 101.42857,160 112.85714,154.28572 C 124.28571,148.57143 245.71428,204.28572 245.71428,204.28572 L 114.28571,304.28572 L 162.85714,367.14286 L 182.85714,398.57143 L 130,428.57143 L 187.14285,500 L 145.71428,432.85714 L 262.85714,370 L 161.42857,290 L 208.57143,251.42857 L 277.14285,190 L 244.28571,165.71429 L 162.85714,144.28572 L 135.71428,152.85715 L 144.28571,132.85715 L 268.57142,8.5714353 z"
       id="path2387" />
    <path
       style="fill:#000000;fill-rule:evenodd;stroke:#000000;stroke-width:1px;stroke-linecap:butt;stroke-linejoin:miter;stroke-opacity:1"
       d="M 340,32.857149 L 594.28571,164.28572 C 594.28571,164.28572 842.85713,234.28572 822.85713,235.71429 C 802.85713,237.14286 635.71428,271.42857 635.71428,271.42857 L 654.2857,294.28572 L 471.42856,288.57143 L 528.57142,344.28572 L 278.57142,314.28572 L 332.85714,381.42857 L 282.85714,457.14286 L 414.28571,378.57143 L 312.85714,424.28572 L 328.57142,331.42857 L 609.99999,344.28572 L 495.71428,300 L 675.71428,285.71429 L 829.99999,218.57143 L 340,32.857149 z"
       id="path2389"
       sodipodi:nodetypes="ccsccccccccccccccc" />
  </g>
</svg>
