<?xml version="1.0" encoding="UTF-8" standalone="no"?>
<!-- Created with Inkscape (http://www.inkscape.org/) -->
<svg
   xmlns:dc="http://purl.org/dc/elements/1.1/"
   xmlns:cc="http://creativecommons.org/ns#"
   xmlns:rdf="http://www.w3.org/1999/02/22-rdf-syntax-ns#"
   xmlns:svg="http://www.w3.org/2000/svg"
   xmlns="http://www.w3.org/2000/svg"
   xmlns:sodipodi="http://sodipodi.sourceforge.net/DTD/sodipodi-0.dtd"
   xmlns:inkscape="http://www.inkscape.org/namespaces/inkscape"
   width="800"
   height="480"
   id="svg2"
   sodipodi:version="0.32"
   inkscape:version="0.46"
   sodipodi:docname="door.svg"
   inkscape:output_extension="org.inkscape.output.svg.inkscape"
   version="1.0">
  <sodipodi:namedview
     id="base"
     pagecolor="#ffffff"
     bordercolor="#666666"
     borderopacity="1.0"
     gridtolerance="10000"
     guidetolerance="10"
     objecttolerance="10"
     inkscape:pageopacity="0.0"
     inkscape:pageshadow="2"
     inkscape:zoom="0.7"
     inkscape:cx="1906.4388"
     inkscape:cy="-490.95337"
     inkscape:document-units="px"
     inkscape:current-layer="layer1"
     showgrid="false"
     inkscape:window-width="1278"
     inkscape:window-height="722"
     inkscape:window-x="0"
     inkscape:window-y="25" />
  <defs
     id="defs4">
    <inkscape:perspective
       id="perspective10"
       inkscape:persp3d-origin="372.04724 : 350.78739 : 1"
       inkscape:vp_z="744.09448 : 526.18109 : 1"
       inkscape:vp_y="0 : 1000 : 0"
       inkscape:vp_x="0 : 526.18109 : 1"
       sodipodi:type="inkscape:persp3d" />
  </defs>
  <metadata
     id="metadata7">
    <rdf:RDF>
      <cc:Work
         rdf:about="">
        <dc:format>image/svg+xml</dc:format>
        <dc:type
           rdf:resource="http://purl.org/dc/dcmitype/StillImage" />
      </cc:Work>
    </rdf:RDF>
  </metadata>
  <g
     id="layer1"
     inkscape:groupmode="layer"
     inkscape:label="Layer 1">
    <path
       sodipodi:nodetypes="ccccc"
       id="path2435"
       d="M -9.9033031,0.4721466 L -9.9033031,1953.3184 L 3177.6047,1951.8032 L 3177.6048,-12.57787 L -9.9033031,0.4721466 z"
       style="fill:#445500;fill-rule:evenodd;stroke:none;stroke-width:1px;stroke-linecap:butt;stroke-linejoin:miter;stroke-opacity:1" />
    <path
       id="path3209"
       d="M 233.58004,160.03663 L 233.58004,1724.1413 L 2992.3149,1724.1413 L 2851.4718,1578.8041 L 331.94659,1578.8041 L 331.94659,233.85868 L 233.58004,160.03663 z"
       style="fill:#222b00;fill-rule:evenodd;stroke:none;stroke-width:1px;stroke-linecap:butt;stroke-linejoin:miter;stroke-opacity:1" />
    <path
       sodipodi:nodetypes="ccccccc"
       id="path3215"
       d="M 229.52764,160.33157 L 332.28025,232.10667 L 2855.2537,235.36918 L 2855.2537,1577.8898 L 2995.0684,1730.1735 L 2995.0684,155.4378 L 229.52764,160.33157 z"
       style="fill:#668000;fill-rule:evenodd;stroke:none;stroke-width:1px;stroke-linecap:butt;stroke-linejoin:miter;stroke-opacity:1" />
    <path
       id="path3265"
       d="M 634.2857,811.42856 L 611.42856,759.99999 L 674.2857,771.42856 L 771.42855,782.85713 L 748.57141,817.14285 L 685.71427,851.42856 L 651.42855,874.2857 L 571.42856,845.71428 L 634.2857,811.42856 z"
       style="fill:#000000;fill-rule:evenodd;stroke:none;stroke-width:1px;stroke-linecap:butt;stroke-linejoin:miter;stroke-opacity:1;opacity:0.57264957000000005" />
    <path
       id="path3776"
       d="M 577.14284,565.71428 L 474.2857,777.14285 L 588.57141,994.2857 L 765.71427,1034.2857 L 942.85712,942.85713 L 1114.2857,839.99999 C 1114.2857,839.99999 948.5714,794.28571 925.71426,788.57142 C 902.85712,782.85713 799.99998,708.57142 799.99998,708.57142 L 645.71427,725.71428 L 577.14284,565.71428 z"
       style="fill:#333333;fill-rule:evenodd;stroke:none;stroke-width:1px;stroke-linecap:butt;stroke-linejoin:miter;stroke-opacity:1;opacity:0.34188034000000000" />
    <path
       id="path3778"
       d="M 757.14284,1045.7143 L 1205.7143,902.85713 C 1205.7143,902.85713 1360,782.85713 1382.8571,777.14285 C 1405.7142,771.42856 2411.4285,417.14286 2411.4285,417.14286 L 1394.2857,742.85714 L 1100,842.85714 L 757.14284,1045.7143 z"
       style="fill:#666666;fill-rule:evenodd;stroke:none;stroke-width:1px;stroke-linecap:butt;stroke-linejoin:miter;stroke-opacity:1;opacity:0.17094017000000000"
       sodipodi:nodetypes="ccscccc" />
    <path
       id="path3780"
       d="M -11.428571,1908.5714 L 228.57142,1828.5714 L 554.2857,1857.1428 C 554.2857,1857.1428 1068.5714,1851.4285 1091.4285,1840 C 1114.2857,1828.5714 1417.1428,1885.7142 1417.1428,1885.7142 L 2239.9999,1891.4285 C 2239.9999,1891.4285 2394.2857,1851.4285 2417.1428,1851.4285 C 2439.9999,1851.4285 2702.8571,1765.7143 2702.8571,1765.7143 L 3097.1428,1862.8571 L 3177.1428,1857.1428 L 3171.4285,1948.5714 L -11.428571,1954.2857 L -11.428571,1908.5714 z"
       style="fill:#552200;fill-rule:evenodd;stroke:none;stroke-width:1px;stroke-linecap:butt;stroke-linejoin:miter;stroke-opacity:1;opacity:0.33760684000000002" />
    <path
       sodipodi:nodetypes="cccccccccc"
       id="path3782"
       d="M 2107.1428,1105.7142 L 2105.7142,772.85713 L 2365.7142,771.42856 L 2366.4285,1104.2857 L 2301.4285,1105 L 2295.7143,1000.7143 L 2187.8571,999.2857 L 2187.8571,1103.5714 L 2107.1428,1105.7142 L 2107.1428,1105.7142"
       style="fill:#000000;fill-rule:evenodd;stroke:none;stroke-width:1px;stroke-linecap:butt;stroke-linejoin:miter;stroke-opacity:1" />
    <path
       sodipodi:nodetypes="ccccc"
       id="path3784"
       d="M 2188.5714,902.14285 L 2187.4999,827.85713 L 2291.4285,828.57142 L 2291.4285,902.85713 L 2188.5714,902.14285 z"
       style="fill:#445500;fill-rule:evenodd;stroke:none;stroke-width:1px;stroke-linecap:butt;stroke-linejoin:miter;stroke-opacity:1;fill-opacity:1" />
    <path
       sodipodi:nodetypes="cccc"
       id="path3373"
       d="M 1377.7309,1074.2905 L 1613.0164,1074.2905 L 1613.0164,910.73308 L 1377.7309,1074.2905 z"
       style="fill:#280b0b;fill-rule:evenodd;stroke:none;stroke-width:1.76034832000000008px;stroke-linecap:butt;stroke-linejoin:miter;stroke-opacity:1" />
    <path
       sodipodi:nodetypes="cccccc"
       style="fill:#aa0000;fill-rule:evenodd;stroke:none;stroke-width:1.76034832000000008px;stroke-linecap:butt;stroke-linejoin:miter;stroke-opacity:1"
       d="M 1381.5881,877.17345 L 1373.8738,924.87775 L 1377.7309,1074.8053 L 1613.0164,911.24794 L 1589.8736,873.76603 L 1381.5881,877.17345 z"
       id="path3375" />
    <path
       style="fill:#ff0000;fill-rule:evenodd;stroke:none;stroke-width:1.45571147999999995px;stroke-linecap:butt;stroke-linejoin:miter;stroke-opacity:1"
       d="M 1400.7376,896.03865 L 1394.3583,935.48747 L 1397.548,1059.4694 L 1592.1162,1059.4694 L 1592.1162,924.21634 L 1572.9783,893.22088 L 1400.7376,896.03865 z"
       id="path3377" />
    <path
       sodipodi:nodetypes="cccccccccccccccccccccccccccc"
       id="path3379"
       d="M 1464.8437,1033.4659 L 1451.0244,992.40848 L 1432.6322,965.4277 L 1441.5024,957.0421 L 1455.6831,977.24292 L 1462.6596,969.59899 L 1455.5736,952.12052 L 1455.6831,936.77953 L 1467.2546,930.81646 L 1468.701,947.00188 L 1474.4866,965.31692 L 1487.0223,964.03907 L 1486.5402,914.2052 L 1500.5223,911.6496 L 1500.0402,939.33514 L 1502.4509,964.46506 L 1514.0223,965.74283 L 1520.6087,939.40535 L 1525.5937,922.29787 L 1539.4681,927.43453 L 1536.683,948.70557 L 1525.1116,975.96515 L 1533.3079,989.16896 L 1549.2187,975.11335 L 1562.2365,987.03939 L 1537.6473,1002.3729 L 1514.9866,1033.4659 L 1464.8437,1033.4659 z"
       style="fill:#aa0000;fill-rule:evenodd;stroke:none;stroke-width:1px;stroke-linecap:butt;stroke-linejoin:miter;stroke-opacity:1" />
    <path
       style="fill:#550000;fill-rule:evenodd;stroke:none;stroke-width:1px;stroke-linecap:butt;stroke-linejoin:miter;stroke-opacity:1"
       d="M 1466.7934,1036.1534 L 1454.3464,999.17358 L 1437.7808,974.87228 L 1445.7702,967.31957 L 1458.5424,985.5141 L 1464.8261,978.6294 L 1458.4439,962.88671 L 1458.5424,949.06927 L 1468.9646,943.6985 L 1470.2674,958.27645 L 1475.4784,974.77257 L 1486.7692,973.62162 L 1486.335,928.73686 L 1498.9285,926.43513 L 1498.4942,951.37108 L 1500.6655,974.00524 L 1511.0878,975.15621 L 1519.3387,953.28922 L 1521.5099,936.02584 L 1534.0064,940.65239 L 1531.4979,959.81097 L 1521.0758,984.36331 L 1528.458,996.25576 L 1542.7886,983.59603 L 1554.5136,994.3377 L 1532.3665,1008.1483 L 1511.9563,1036.1534 L 1466.7934,1036.1534 z"
       id="path3381"
       sodipodi:nodetypes="cccccccccccccccccccccccccccc" />
  </g>
</svg>
