<?xml version="1.0" encoding="UTF-8" standalone="no"?>
<!-- Created with Inkscape (http://www.inkscape.org/) -->

<svg
   xmlns:dc="http://purl.org/dc/elements/1.1/"
   xmlns:cc="http://creativecommons.org/ns#"
   xmlns:rdf="http://www.w3.org/1999/02/22-rdf-syntax-ns#"
   xmlns:svg="http://www.w3.org/2000/svg"
   xmlns="http://www.w3.org/2000/svg"
   xmlns:sodipodi="http://sodipodi.sourceforge.net/DTD/sodipodi-0.dtd"
   xmlns:inkscape="http://www.inkscape.org/namespaces/inkscape"
   width="800"
   height="480"
   id="svg2"
   sodipodi:version="0.32"
   inkscape:version="0.47 r22583"
   sodipodi:docname="end1.svg"
   inkscape:output_extension="org.inkscape.output.svg.inkscape"
   version="1.0">
  <sodipodi:namedview
     id="base"
     pagecolor="#ffffff"
     bordercolor="#666666"
     borderopacity="1.0"
     gridtolerance="10000"
     guidetolerance="10"
     objecttolerance="10"
     inkscape:pageopacity="0.0"
     inkscape:pageshadow="2"
     inkscape:zoom="0.7"
     inkscape:cx="132.60533"
     inkscape:cy="403.29377"
     inkscape:document-units="px"
     inkscape:current-layer="layer1"
     showgrid="false"
     showguides="true"
     inkscape:guide-bbox="true"
     inkscape:window-width="1280"
     inkscape:window-height="725"
     inkscape:window-x="0"
     inkscape:window-y="24"
     inkscape:window-maximized="1" />
  <defs
     id="defs4">
    <inkscape:perspective
       id="perspective10"
       inkscape:persp3d-origin="372.04724 : 350.78739 : 1"
       inkscape:vp_z="744.09448 : 526.18109 : 1"
       inkscape:vp_y="0 : 1000 : 0"
       inkscape:vp_x="0 : 526.18109 : 1"
       sodipodi:type="inkscape:persp3d" />
    <inkscape:perspective
       sodipodi:type="inkscape:persp3d"
       inkscape:vp_x="0 : 526.18109 : 1"
       inkscape:vp_y="0 : 1000 : 0"
       inkscape:vp_z="744.09448 : 526.18109 : 1"
       inkscape:persp3d-origin="372.04724 : 350.78739 : 1"
       id="perspective2390" />
    <inkscape:perspective
       sodipodi:type="inkscape:persp3d"
       inkscape:vp_x="0 : 526.18109 : 1"
       inkscape:vp_y="0 : 1000 : 0"
       inkscape:vp_z="744.09448 : 526.18109 : 1"
       inkscape:persp3d-origin="372.04724 : 350.78739 : 1"
       id="perspective2448" />
    <inkscape:perspective
       sodipodi:type="inkscape:persp3d"
       inkscape:vp_x="0 : 526.18109 : 1"
       inkscape:vp_y="0 : 1000 : 0"
       inkscape:vp_z="744.09448 : 526.18109 : 1"
       inkscape:persp3d-origin="372.04724 : 350.78739 : 1"
       id="perspective3265" />
    <inkscape:perspective
       id="perspective3476"
       inkscape:persp3d-origin="372.04724 : 350.78739 : 1"
       inkscape:vp_z="744.09448 : 526.18109 : 1"
       inkscape:vp_y="0 : 1000 : 0"
       inkscape:vp_x="0 : 526.18109 : 1"
       sodipodi:type="inkscape:persp3d" />
  </defs>
  <metadata
     id="metadata7">
    <rdf:RDF>
      <cc:Work
         rdf:about="">
        <dc:format>image/svg+xml</dc:format>
        <dc:type
           rdf:resource="http://purl.org/dc/dcmitype/StillImage" />
      </cc:Work>
    </rdf:RDF>
  </metadata>
  <g
     id="layer1"
     inkscape:groupmode="layer"
     inkscape:label="Layer 1">
    <path
       sodipodi:nodetypes="cccccccc"
       id="rect3367"
       d="M 4.0406322,-4.2573795 L 804.41105,-4.2573795 L 804.74392,256.96236 L 773.09633,249.91638 L 647.46048,277.46506 L 127.48117,314.41246 L -2.020283,337.79965 L 4.0406322,-4.2573795 L 4.0406322,-4.2573795"
       style="fill:#550000;fill-opacity:1;stroke:none" />
    <path
       sodipodi:nodetypes="cccccccc"
       id="rect3369"
       d="M -1.0101305,335.77934 L 118.79405,313.43391 L 641.47484,277.61928 L 772.39621,249.91638 L 805.88381,255.51132 L 802.70079,482.53062 L -2.020283,481.52047 L -1.0101305,335.77934 L -1.0101305,335.77934"
       style="fill:#d45500;fill-opacity:1;stroke:none" />
    <path
       style="fill:#000000;fill-rule:evenodd;stroke:none;stroke-width:1px;stroke-linecap:butt;stroke-linejoin:miter;stroke-opacity:1;opacity:0.2"
       d="M -2.1428571,335.71429 L 134.28571,312.85714 L 450,395 L 736.42857,405.71429 L 802.14285,400.71429 L 816.42857,490.71429 L -9.9999999,495 L -2.1428571,335.71429 z"
       id="path7512" />
    <path
       sodipodi:nodetypes="cccccccc"
       id="path3256"
       d="M 235.10579,119.91308 L 223.99411,154.25826 L 218.18574,166.38009 L 227.78219,166.12755 L 239.39894,177.74431 L 253.036,177.74431 L 228.28726,167.64278 L 235.10579,119.91308 L 235.10579,119.91308"
       style="fill:#2b1100;fill-rule:evenodd;stroke:none;stroke-width:1px;stroke-linecap:butt;stroke-linejoin:miter;stroke-opacity:1" />
    <path
       sodipodi:nodetypes="cccccccccccccccccccccc"
       id="path2396"
       d="M 218.99953,425.9886 L 204.48803,356.55546 L 189.9766,316.66835 L 168.29531,298.7692 L 161.17368,277.47507 L 150.37242,263.74887 L 184.41763,221.05118 L 216.5809,202.91619 L 228.67378,191.09779 L 240.76675,191.09779 L 268.58036,177.80207 L 296.39398,197.00698 L 361.38488,323.97315 L 321.78905,312.23644 L 285.51041,269.39473 L 284.3011,329.96405 L 294.72084,394.22671 L 316.3285,438.98111 L 324.82951,483.78509 L 192.45157,484.04684 L 218.99953,425.9886 L 218.99953,425.9886"
       style="fill:#000000;fill-rule:evenodd;stroke:none;stroke-width:1px;stroke-linecap:butt;stroke-linejoin:miter;stroke-opacity:1" />
    <path
       sodipodi:nodetypes="ccccccccccccc"
       id="path3273"
       d="M 295.52524,152.45074 L 296.99443,166.66144 L 296.99443,172.16894 L 303.60343,177.01554 L 301.84103,180.98094 L 305.14553,183.84484 L 301.84103,187.58994 L 306.90793,195.74105 L 295.01173,187.36964 L 289.06363,179.43884 L 288.62302,170.40654 L 293.55171,159.9188 L 295.52524,152.45074 L 295.52524,152.45074"
       style="fill:#803300;fill-rule:evenodd;stroke:none;stroke-width:1px;stroke-linecap:butt;stroke-linejoin:miter;stroke-opacity:1" />
    <path
       id="path2416"
       d="M 199.0462,278.99718 L 206.302,278.99718 L 223.23204,293.77019 L 249.83634,211.77999 L 199.0462,278.99718 L 199.0462,278.99718"
       style="fill:#1a1a1a;fill-rule:evenodd;stroke:none;stroke-width:1px;stroke-linecap:butt;stroke-linejoin:miter;stroke-opacity:1" />
    <path
       sodipodi:nodetypes="cccccccc"
       id="path3204"
       d="M 229.29742,342.39918 L 219.90536,362.58677 L 235.86341,429.2723 L 218.77748,477.79551 L 200.59473,480.73931 L 228.28727,421.19108 L 207.57914,359.0667 L 229.29742,342.39918 L 229.29742,342.39918"
       style="opacity:0.09051723000000000;fill:#ff6600;fill-rule:evenodd;stroke:none;stroke-width:1px;stroke-linecap:butt;stroke-linejoin:miter;stroke-opacity:1" />
    <path
       sodipodi:nodetypes="cccccccc"
       id="path3208"
       d="M 240.03029,184.81538 L 241.79805,177.3655 L 280.81519,158.04634 L 275.8907,187.71956 L 253.4148,186.58314 L 242.55566,192.01272 L 237.5049,191.63391 L 240.03029,184.81538 L 240.03029,184.81538"
       style="opacity:0.68103451999999998;fill:#ff9955;fill-rule:evenodd;stroke:none;stroke-width:1px;stroke-linecap:butt;stroke-linejoin:miter;stroke-opacity:1" />
    <path
       id="path6002"
       d="M 776.8073,249.68522 L 803.07127,-2.8529132 L 804.08142,256.75629 L 776.8073,249.68522 L 776.8073,249.68522"
       style="opacity:0.44871796000000003;fill:#552200;fill-rule:evenodd;stroke:none;stroke-width:1px;stroke-linecap:butt;stroke-linejoin:miter;stroke-opacity:1" />
    <path
       id="path2454"
       d="M 249.13713,96.044227 L 234.87129,117.4472 L 234.46149,123.60258 L 229.66182,133.11823 L 227.48221,157.7133 L 227.13815,164.73863 L 228.83706,172.08071 L 236.79721,177.67093 L 255.25057,176.94956 L 272.22868,170.95556 L 280.35022,159.97747 L 286.56025,150.42254 L 277.63967,135.68462 L 270.6707,116.49193 L 269.03753,110.01981 L 261.57765,107.48764 L 255.1064,104.67886 L 254.04009,97.692797 L 249.13713,96.044227 L 249.13713,96.044227"
       style="fill:#ffccaa;fill-rule:evenodd;stroke:none;stroke-width:1px;stroke-linecap:butt;stroke-linejoin:miter;stroke-opacity:1" />
    <path
       id="path2456"
       d="M 269.81012,136.27624 L 262.69344,131.16068 L 254.99623,129.05026 L 250.91028,128.41678 L 247.73355,129.12793 L 255.65444,133.30781 L 263.4968,134.66695 L 269.81012,136.27624 L 269.81012,136.27624"
       style="fill:#552200;fill-rule:evenodd;stroke:none;stroke-width:1px;stroke-linecap:butt;stroke-linejoin:miter;stroke-opacity:1" />
    <path
       sodipodi:nodetypes="cccccc"
       id="path2458"
       d="M 242.22445,126.58296 L 241.33519,122.86437 L 238.40317,120.54538 L 236.38751,115.24629 L 235.72758,119.87264 L 242.22445,126.58296 L 242.22445,126.58296"
       style="fill:#552200;fill-rule:evenodd;stroke:none;stroke-width:1px;stroke-linecap:butt;stroke-linejoin:miter;stroke-opacity:1" />
    <path
       id="path2460"
       d="M 265.46932,141.39946 L 259.66972,141.46753 L 254.19669,139.84523 L 250.69128,136.20663 L 255.24892,134.39844 L 259.13381,135.26584 L 262.59994,137.49407 L 265.28172,140.25269 L 265.46932,141.39946 L 265.46932,141.39946"
       style="fill:#e6e6e6;fill-rule:evenodd;stroke:none;stroke-width:1px;stroke-linecap:butt;stroke-linejoin:miter;stroke-opacity:1" />
    <path
       id="path2462"
       d="M 242.00951,130.41855 L 237.95664,129.10956 L 235.09666,127.77774 L 233.75268,125.3555 L 233.74628,124.38012 L 235.70388,123.12172 L 238.4817,123.3661 L 240.50141,124.71094 L 241.31159,126.97162 L 242.09531,129.7727 L 242.00951,130.41855 L 242.00951,130.41855"
       style="fill:#e6e6e6;fill-rule:evenodd;stroke:none;stroke-width:1px;stroke-linecap:butt;stroke-linejoin:miter;stroke-opacity:1" />
    <path
       id="path2464"
       d="M 258.04296,135.9708 L 257.18581,137.98731 L 258.05874,139.51975 L 259.36346,140.53164 L 261.68986,140.5914 L 262.87633,139.59318 L 263.10066,138.33115 L 261.03165,136.33385 L 258.39896,135.33819 L 258.04296,135.9708 L 258.04296,135.9708"
       style="fill:#008000;fill-rule:evenodd;stroke:none;stroke-width:1px;stroke-linecap:butt;stroke-linejoin:miter;stroke-opacity:1" />
    <path
       id="path2466"
       d="M 241.45288,129.06411 L 239.39348,128.52989 L 238.191,127.08964 L 237.5125,125.45838 L 238.44862,124.04162 L 238.80782,123.8967 L 240.03677,124.79653 L 241.20296,126.42459 L 241.83856,128.37878 L 241.45288,129.06411 L 241.45288,129.06411"
       style="fill:#008000;fill-rule:evenodd;stroke:none;stroke-width:1px;stroke-linecap:butt;stroke-linejoin:miter;stroke-opacity:1" />
    <path
       id="path2468"
       d="M 254.29018,133.51184 L 247.21918,130.78204 L 244.16069,133.50329 L 241.1547,137.3647 L 238.05652,140.89657 L 237.70692,142.50456 L 239.47925,145.02904 L 238.41123,146.92689 L 242.76055,148.81918 L 244.85006,147.07971 L 245.30509,145.53104 L 247.39885,155.87184 L 245.94454,144.64146 L 247.7378,141.20819 L 248.00887,136.77948 L 249.41966,134.51923 L 252.53705,133.91352 L 254.29018,133.51184 L 254.29018,133.51184"
       style="opacity:0.61637931999999995;fill:#ff9955;fill-rule:evenodd;stroke:none;stroke-width:1px;stroke-linecap:butt;stroke-linejoin:miter;stroke-opacity:1" />
    <path
       id="path2470"
       d="M 243.69624,149.62339 L 240.62494,150.39388 L 237.38291,148.0141 L 235.97939,146.80778 L 235.0104,147.78957 L 232.8556,146.43811 L 232.02535,145.69324 L 233.03317,148.34278 L 234.21259,149.70064 L 233.18427,150.78787 L 233.09164,152.6793 L 237.44779,153.32601 L 239.91891,154.85546 L 242.21245,154.48025 L 240.98052,151.98224 L 241.71217,151.42219 L 243.63007,150.97442 L 243.69624,149.62339 L 243.69624,149.62339"
       style="opacity:0.63362068000000005;fill:#ff6600;fill-rule:evenodd;stroke:none;stroke-width:1px;stroke-linecap:butt;stroke-linejoin:miter;stroke-opacity:1" />
    <path
       id="path2472"
       d="M 244.76808,162.02679 L 242.95561,162.53391 L 241.71686,161.28148 L 238.01978,160.45037 L 235.49573,160.00173 L 232.64898,158.39971 L 231.35088,157.25272 L 229.86839,155.44665 L 232.93924,156.89715 L 233.8617,157.97157 L 237.5784,159.50785 L 239.95091,159.73239 L 243.15368,160.7018 L 244.76808,162.02679 L 244.76808,162.02679"
       style="fill:#552200;fill-rule:evenodd;stroke:none;stroke-width:1px;stroke-linecap:butt;stroke-linejoin:miter;stroke-opacity:1" />
    <path
       id="path2474"
       d="M 240.64883,163.17932 L 238.36212,162.30894 L 234.90196,163.27706 L 231.7914,162.63719 L 229.63659,161.28573 L 228.23306,160.07941 L 230.90138,164.21872 L 235.55377,166.55922 L 237.97922,165.70294 L 240.85927,165.51896 L 241.22211,163.64076 L 240.64883,163.17932 L 240.64883,163.17932"
       style="opacity:0.61637931999999995;fill:#d45500;fill-rule:evenodd;stroke:none;stroke-width:1px;stroke-linecap:butt;stroke-linejoin:miter;stroke-opacity:1" />
    <path
       id="path2476"
       d="M 267.2844,110.42148 L 266.30089,118.3364 L 265.42922,127.28604 L 264.98698,130.78548 L 261.61687,143.18801 L 260.11301,149.56067 L 255.01667,159.6035 L 258.84478,164.39549 L 258.50115,169.19984 L 253.81503,170.86631 L 243.59931,173.72458 L 235.52602,173.76256 L 235.92769,175.51569 L 235.07738,176.28661 L 236.84332,177.8357 L 255.52076,176.9628 L 271.54996,170.43479 L 279.6126,157.34115 L 279.98313,149.77541 L 282.36333,144.3124 L 268.94533,109.69027 L 267.2844,110.42148 L 267.2844,110.42148"
       style="opacity:0.26293102000000002;fill:#803300;fill-rule:evenodd;stroke:none;stroke-width:1px;stroke-linecap:butt;stroke-linejoin:miter;stroke-opacity:1" />
    <path
       id="path2478"
       d="M 241.2053,131.35423 L 237.16736,138.03615 L 233.72321,141.44273 L 230.77698,142.97773 L 230.30231,143.82122 L 230.45876,135.64912 L 231.19746,132.73299 L 233.85107,127.77091 L 236.09786,130.5624 L 239.54458,130.97496 L 241.2053,131.35423 L 241.2053,131.35423"
       style="opacity:0.61637931999999995;fill:#ff9955;fill-rule:evenodd;stroke:none;stroke-width:1px;stroke-linecap:butt;stroke-linejoin:miter;stroke-opacity:1" />
    <path
       id="path3250"
       d="M 244.10124,162.78186 L 236.62087,163.98647 L 230.79822,163.97216 L 228.53478,162.07367 L 227.9948,159.82623 L 227.46485,156.82089 L 228.51963,155.19326 L 228.10472,153.71033 L 229.20903,151.62467 L 232.06582,152.4688 L 236.78073,155.19157 L 240.94864,158.02297 L 244.10487,161.04858 L 245.09328,161.88246 L 244.10124,162.78186 L 244.10124,162.78186"
       style="opacity:0.65086208999999995;fill:#ff6600;fill-rule:evenodd;stroke:none;stroke-width:1px;stroke-linecap:butt;stroke-linejoin:miter;stroke-opacity:1" />
    <path
       id="path3252"
       d="M 242.39989,126.06684 L 245.81565,133.19505 L 242.64532,134.88159 L 239.5243,137.22059 L 237.39168,140.39347 L 237.39446,143.10213 L 235.82573,144.16289 L 234.24718,144.87105 L 233.75607,145.49705 L 233.77657,141.76028 L 235.79031,139.90876 L 237.46149,137.30916 L 239.32069,133.63535 L 241.64412,132.09694 L 242.74841,130.01128 L 242.39989,126.06684 L 242.39989,126.06684"
       style="opacity:0.53448277000000000;fill:#ffffff;fill-rule:evenodd;stroke:none;stroke-width:1px;stroke-linecap:butt;stroke-linejoin:miter;stroke-opacity:1" />
    <path
       sodipodi:nodetypes="ccccccccccccccccccccccccccccccccccccc"
       id="path3254"
       d="M 249.50047,99.204947 L 255.56138,98.952407 L 253.54108,103.4981 L 266.16798,109.55901 L 266.16798,133.80267 L 259.09692,147.94481 L 262.63245,160.06664 L 264.14768,145.9245 L 270.71367,137.84328 L 268.69336,125.72145 L 274.2492,129.76206 L 278.79489,137.59075 L 277.78474,143.9042 L 279.29997,157.03618 L 279.29996,165.62247 L 277.27966,176.22908 L 270.20859,190.37121 L 271.72382,200.97782 L 286.87611,223.20117 L 285.36088,204.51335 L 294.45225,200.97782 L 301.01825,206.02858 L 313.64515,226.23163 L 309.60454,211.07934 L 309.60454,189.36106 L 300.51317,178.24938 L 309.60454,163.0971 L 315.66546,144.66181 L 311.62485,121.68084 L 297.98778,97.437177 L 274.75428,86.830577 L 260.10707,83.80012 L 252.02585,86.830577 L 245.45986,92.386417 L 238.89386,111.57932 L 244.4497,102.99302 L 249.50047,99.204947 L 249.50047,99.204947"
       style="fill:#552200;fill-rule:evenodd;stroke:none;stroke-width:1px;stroke-linecap:butt;stroke-linejoin:miter;stroke-opacity:1" />
    <path
       sodipodi:nodetypes="ccccccc"
       id="path3325"
       d="M 233.8431,428.26214 L 245.45986,432.80783 L 251.52077,424.22153 L 258.59184,410.58446 L 253.54108,461.59718 L 241.41925,449.98042 L 233.8431,428.26214 L 233.8431,428.26214"
       style="opacity:0.47413791000000000;fill:#2b1100;fill-rule:evenodd;stroke:none;stroke-width:1px;stroke-linecap:butt;stroke-linejoin:miter;stroke-opacity:1" />
    <path
       sodipodi:nodetypes="cccccc"
       id="path3327"
       d="M 264.14768,409.57432 L 253.036,483.31545 L 269.19844,482.3053 L 266.16798,466.64793 L 267.68321,445.93981 L 264.14768,409.57432 L 264.14768,409.57432"
       style="opacity:0.52155174999999998;fill:#2b1100;fill-rule:evenodd;stroke:none;stroke-width:1px;stroke-linecap:butt;stroke-linejoin:miter;stroke-opacity:1" />
    <path
       style="fill:#6c5353;fill-rule:evenodd;stroke:none;stroke-width:1px;stroke-linecap:butt;stroke-linejoin:miter;stroke-opacity:1"
       d="m 149.82143,263.75 -30.89286,44.46428 18.92858,29.10715 12.61352,26.62856 8.99361,6.40716 12.11829,-5.32732 -2.11828,-12.52983 -14.16723,-7.56625 -8.1542,-18.3266 -6.57057,-13.77046 -2.71514,-2.83669 5.71428,-5.17856 21.42856,-19.28572 -3.86386,-15.92184 -11.3147,-5.86388 z"
       id="path6983"
       sodipodi:nodetypes="ccccccccccccccc" />
    <path
       style="fill:#000000;fill-rule:evenodd;stroke:none;stroke-width:1px;stroke-linecap:butt;stroke-linejoin:miter;stroke-opacity:1;opacity:0.3"
       d="m 136.42856,313.21428 8.92858,16.07143 15.17858,23.03572 -7.67858,4.64285 -1.07143,6.60715 L 142.5,342.5 130.17857,321.78571 121.07143,309.64286 137.85714,283.57143 181.07142,259.28572 169.231,281.58612 138.21428,310 l -1.78572,3.21428 z"
       id="path6991"
       sodipodi:nodetypes="ccccccccccccc" />
    <path
       id="path2414"
       d="M 209.92985,225.07569 L 167.60473,273.08797 L 183.93012,281.95179 L 209.92985,225.07569 L 209.92985,225.07569"
       style="fill:#1a1a1a;fill-rule:evenodd;stroke:none;stroke-width:1px;stroke-linecap:butt;stroke-linejoin:miter;stroke-opacity:1" />
    <path
       id="path3206"
       d="M 181.31517,307.54891 L 185.35578,286.84078 L 192.42685,285.83063 L 207.57913,297.44739 L 225.2568,293.91185 L 200.50807,278.75956 L 185.86085,278.25449 L 167.17303,272.19357 L 159.59689,276.73926 L 168.18318,297.44739 L 181.31517,307.54891 L 181.31517,307.54891"
       style="opacity:0.09051723000000000;fill:#aa4400;fill-rule:evenodd;stroke:none;stroke-width:1px;stroke-linecap:butt;stroke-linejoin:miter;stroke-opacity:1" />
    <path
       style="fill:#483737;fill-rule:evenodd;stroke:none;stroke-width:1px;stroke-linecap:butt;stroke-linejoin:miter;stroke-opacity:1"
       d="M 325,310.00001 L 360,324.28572 L 366.42857,342.14286 L 352.85714,354.28572 L 287.14285,385.71429 L 253.57143,402.85715 L 258.57143,385.00001 L 257.14285,362.85715 L 261.42857,355.71429 L 268.57143,364.28572 L 270,376.42858 L 289.28571,370.00001 L 304.28571,355.00001 L 329.28571,324.28572 L 325,310.00001 z"
       id="path6985"
       sodipodi:nodetypes="ccccccccccccccc" />
    <path
       style="fill:#0000ff;fill-rule:evenodd;stroke:none;stroke-width:1px;stroke-linecap:butt;stroke-linejoin:miter;stroke-opacity:1"
       d="M 149.07646,355.9236 L 376.17066,434.85885 L 390.80323,381.22393 L 150.87282,332.35314 L 149.07646,355.9236 z"
       id="path6987"
       sodipodi:nodetypes="ccccc" />
    <path
       style="fill:#6c5353;fill-rule:evenodd;stroke:none;stroke-width:1px;stroke-linecap:butt;stroke-linejoin:miter;stroke-opacity:1"
       d="M 215.71429,362.14286 L 224.28572,391.42857 L 256.42857,403.57143 L 268.57143,397.14286 L 247.14286,390.71429 L 229.28572,378.57143 L 224.28572,369.28572 L 215.71429,362.14286 z"
       id="path6989"
       sodipodi:nodetypes="cccccccc" />
    <path
       style="fill:#000080;fill-rule:evenodd;stroke:none;stroke-width:1px;stroke-linecap:butt;stroke-linejoin:miter;stroke-opacity:1"
       d="M 333.92857,420.71428 L 307.14286,386.42857 L 150.71428,345 L 148.92857,356.78571 L 333.92857,420.71428 z"
       id="path6993"
       sodipodi:nodetypes="ccccc" />
    <path
       style="fill:#000080;fill-rule:evenodd;stroke:none;stroke-width:1px;stroke-linecap:butt;stroke-linejoin:miter;stroke-opacity:1"
       d="M 227.14286,352.5 L 225.71428,332.14286 L 269.64286,342.14286 L 285.35714,365.71429 L 227.14286,352.5 z"
       id="path6995"
       sodipodi:nodetypes="ccccc" />
    <path
       style="fill:#0000ff;fill-rule:evenodd;stroke:none;stroke-width:1px;stroke-linecap:butt;stroke-linejoin:miter;stroke-opacity:1"
       d="M 226.78572,332.85715 L 249.28571,333.92857 L 292.85714,342.14286 L 270,342.5 L 226.78572,332.85715 z"
       id="path6997"
       sodipodi:nodetypes="ccccc" />
    <path
       style="fill:#00ff00;fill-rule:evenodd;stroke:none;stroke-width:1px;stroke-linecap:butt;stroke-linejoin:miter;stroke-opacity:1"
       d="M 270,342.85714 L 291.42857,341.42857 L 306.42857,363.57143 L 285.35714,365 L 270,342.85714 z"
       id="path6999"
       sodipodi:nodetypes="ccccc" />
    <path
       style="fill:#00ffff;fill-rule:evenodd;stroke:none;stroke-width:1px;stroke-linecap:butt;stroke-linejoin:miter;stroke-opacity:1"
       d="M 377.85714,435 L 355.71428,385 L 394.28571,382.14286 L 377.85714,435 z"
       id="path7001" />
    <path
       style="fill:#cccccc;fill-rule:evenodd;stroke:none;stroke-width:1px;stroke-linecap:butt;stroke-linejoin:miter;stroke-opacity:1;opacity:0.20000000000000001"
       d="M 639.28571,278.57143 L 805.71428,300 L 795,261.42857 L 776.42857,250 L 639.28571,278.57143 z"
       id="path7514" />
  </g>
</svg>
