<?xml version="1.0" encoding="UTF-8" standalone="no"?>
<!-- Created with Inkscape (http://www.inkscape.org/) -->
<svg
   xmlns:dc="http://purl.org/dc/elements/1.1/"
   xmlns:cc="http://creativecommons.org/ns#"
   xmlns:rdf="http://www.w3.org/1999/02/22-rdf-syntax-ns#"
   xmlns:svg="http://www.w3.org/2000/svg"
   xmlns="http://www.w3.org/2000/svg"
   xmlns:sodipodi="http://sodipodi.sourceforge.net/DTD/sodipodi-0.dtd"
   xmlns:inkscape="http://www.inkscape.org/namespaces/inkscape"
   width="800"
   height="480"
   id="svg2"
   sodipodi:version="0.32"
   inkscape:version="0.46"
   sodipodi:docname="end2.svg"
   inkscape:output_extension="org.inkscape.output.svg.inkscape"
   version="1.0">
  <sodipodi:namedview
     id="base"
     pagecolor="#ffffff"
     bordercolor="#666666"
     borderopacity="1.0"
     gridtolerance="10000"
     guidetolerance="10"
     objecttolerance="10"
     inkscape:pageopacity="0.0"
     inkscape:pageshadow="2"
     inkscape:zoom="0.7"
     inkscape:cx="426.10935"
     inkscape:cy="205.45011"
     inkscape:document-units="px"
     inkscape:current-layer="layer1"
     showgrid="false"
     showguides="true"
     inkscape:guide-bbox="true"
     inkscape:window-width="1280"
     inkscape:window-height="729"
     inkscape:window-x="0"
     inkscape:window-y="25" />
  <defs
     id="defs4">
    <inkscape:perspective
       id="perspective10"
       inkscape:persp3d-origin="372.04724 : 350.78739 : 1"
       inkscape:vp_z="744.09448 : 526.18109 : 1"
       inkscape:vp_y="0 : 1000 : 0"
       inkscape:vp_x="0 : 526.18109 : 1"
       sodipodi:type="inkscape:persp3d" />
    <inkscape:perspective
       sodipodi:type="inkscape:persp3d"
       inkscape:vp_x="0 : 526.18109 : 1"
       inkscape:vp_y="0 : 1000 : 0"
       inkscape:vp_z="744.09448 : 526.18109 : 1"
       inkscape:persp3d-origin="372.04724 : 350.78739 : 1"
       id="perspective2390" />
    <inkscape:perspective
       sodipodi:type="inkscape:persp3d"
       inkscape:vp_x="0 : 526.18109 : 1"
       inkscape:vp_y="0 : 1000 : 0"
       inkscape:vp_z="744.09448 : 526.18109 : 1"
       inkscape:persp3d-origin="372.04724 : 350.78739 : 1"
       id="perspective5014" />
    <inkscape:perspective
       sodipodi:type="inkscape:persp3d"
       inkscape:vp_x="0 : 526.18109 : 1"
       inkscape:vp_y="0 : 1000 : 0"
       inkscape:vp_z="744.09448 : 526.18109 : 1"
       inkscape:persp3d-origin="372.04724 : 350.78739 : 1"
       id="perspective5554" />
  </defs>
  <metadata
     id="metadata7">
    <rdf:RDF>
      <cc:Work
         rdf:about="">
        <dc:format>image/svg+xml</dc:format>
        <dc:type
           rdf:resource="http://purl.org/dc/dcmitype/StillImage" />
      </cc:Work>
    </rdf:RDF>
  </metadata>
  <g
     id="layer1"
     inkscape:groupmode="layer"
     inkscape:label="Layer 1">
    <rect
       y="178.5695"
       x="-1.9826459"
       height="301.06812"
       width="791.01331"
       id="rect3246"
       style="fill:#800000;fill-opacity:1;stroke:none" />
    <path
       style="opacity:0.9497908;fill:#000000;fill-rule:evenodd;stroke:none;stroke-width:0.66346157px;stroke-linecap:butt;stroke-linejoin:miter;stroke-opacity:1"
       d="M 313.55325,334.47834 L 274.3868,349.19399 L 257.43416,382.74568 L 263.27989,409.23385 L 286.66285,407.46797 L 283.15541,377.44804 L 297.76975,367.4414 L 296.01603,395.10682 L 296.60061,415.12008 L 380.19466,390.98644 L 388.37869,364.49828 L 381.3638,345.07361 L 398.90101,398.63857 L 362.65744,415.70876 L 394.22442,420.41771 L 428.12971,396.8727 L 404.74675,343.30773 L 356.8117,330.94658 L 313.55325,334.47834 L 313.55325,334.47834"
       id="path3248"
       sodipodi:nodetypes="ccccccccccccccccccc" />
    <path
       style="opacity:0.9497908;fill:#000000;fill-rule:evenodd;stroke:none;stroke-width:0.66346157px;stroke-linecap:butt;stroke-linejoin:miter;stroke-opacity:1"
       d="M 335.76704,307.40154 L 328.75216,341.24755 L 348.62767,345.66224 L 369.67232,336.83285 L 379.0255,317.99682 L 363.82659,303.28116 L 335.76704,307.40154 L 335.76704,307.40154"
       id="path3250"
       sodipodi:nodetypes="ccccccc" />
    <path
       style="opacity:0.9497908;fill:#000000;fill-rule:evenodd;stroke:none;stroke-width:0.66346157px;stroke-linecap:butt;stroke-linejoin:miter;stroke-opacity:1"
       d="M 374.34892,415.12008 L 398.90101,434.54473 L 405.9159,449.84905 L 383.70209,456.32395 L 346.28938,452.7922 L 336.93619,439.84237 L 335.76704,425.12675 L 374.34892,415.12008 L 374.34892,415.12008"
       id="path3252" />
    <path
       style="opacity:0.9497908;fill:#000000;fill-rule:evenodd;stroke:none;stroke-width:0.66346157px;stroke-linecap:butt;stroke-linejoin:miter;stroke-opacity:1"
       d="M 339.27449,424.53815 L 333.42875,437.48789 L 321.73728,449.26045 L 305.36921,452.20352 L 276.14052,447.49457 L 271.46393,435.13342 L 290.17029,421.0064 L 300.69262,412.17701 L 319.39898,406.29068 L 339.27449,408.64526 L 339.27449,424.53815 L 339.27449,424.53815"
       id="path3254" />
    <path
       style="opacity:0.9497908;fill:#000000;fill-rule:evenodd;stroke:none;stroke-width:0.66346157px;stroke-linecap:butt;stroke-linejoin:miter;stroke-opacity:1"
       d="M 294.84688,409.23385 L 255.09587,402.17034 L 183.77787,417.47464 L 58.183667,420.02451 L -6.7931882,433.95614 L -4.4548909,479.28038 L 56.364393,479.92695 L 177.93213,460.44431 L 244.57354,448.67186 L 259.77246,441.60825 L 263.27989,463.97606 L 310.0458,479.86897 L 325.24472,466.33054 L 360.31914,467.50783 L 317.06069,461.03291 L 299.52347,452.20352 L 327.58301,436.31061 L 322.90643,421.0064 L 294.84688,409.23385 L 294.84688,409.23385"
       id="path3256"
       sodipodi:nodetypes="ccccccccccccccccccc" />
    <path
       style="opacity:0.9497908;fill:#000000;fill-rule:evenodd;stroke:none;stroke-width:0.66346157px;stroke-linecap:butt;stroke-linejoin:miter;stroke-opacity:1"
       d="M 301.86177,414.53148 L 315.76427,412.1565 L 307.70751,403.34762 L 341.79209,388.73974 L 369.67232,386.86606 L 388.37869,398.63857 L 367.64821,409.19179 L 343.95108,413.3542 L 317.06069,424.53815 L 301.86177,414.53148 L 301.86177,414.53148"
       id="path3258"
       sodipodi:nodetypes="cccccccccc" />
    <path
       style="opacity:0.9497908;fill:#000000;fill-rule:evenodd;stroke:none;stroke-width:0.66346157px;stroke-linecap:butt;stroke-linejoin:miter;stroke-opacity:1"
       d="M 314.72239,479.86897 L 322.90643,463.97606 L 363.82659,468.09642 L 366.16488,479.86897 L 314.72239,479.86897 L 314.72239,479.86897"
       id="path3260" />
    <path
       style="opacity:0.9497908;fill:#000000;fill-rule:evenodd;stroke:none;stroke-width:0.66346157px;stroke-linecap:butt;stroke-linejoin:miter;stroke-opacity:1"
       d="M 126.48964,421.595 L 160.39491,411.58832 L 181.43956,416.29736 L 204.82252,425.12675 L 186.11616,422.77228 L 194.3002,430.42439 L 187.28531,432.19026 L 176.76299,423.94947 L 184.94701,432.77886 L 177.93213,433.36754 L 169.7481,426.89262 L 174.42469,434.54473 L 168.57895,434.54473 L 161.56407,424.53815 L 154.54918,430.42439 L 152.21089,429.24711 L 158.05663,421.595 L 151.04174,419.24053 L 126.48964,421.595 L 126.48964,421.595"
       id="path3262" />
    <path
       style="opacity:0.9497908;fill:#000000;fill-rule:evenodd;stroke:none;stroke-width:0.66346157px;stroke-linecap:butt;stroke-linejoin:miter;stroke-opacity:1"
       d="M -7.9623327,453.96939 L 66.863106,450.43773 L 119.47476,439.25378 L 119.47476,426.30403 L 140.51941,442.19694 L 194.3002,456.91255 L 129.99708,443.37412 L 62.186527,461.62159 L -7.9623327,453.96939 L -7.9623327,453.96939"
       id="path3264" />
    <path
       style="opacity:0.9497908;fill:#000000;fill-rule:evenodd;stroke:none;stroke-width:0.66346157px;stroke-linecap:butt;stroke-linejoin:miter;stroke-opacity:1"
       d="M 223.52889,421.595 L 267.95649,409.82245 L 289.00115,410.99973 L 303.03091,410.41113 L 298.35433,416.29736 L 325.24472,426.30403 L 291.33944,420.41771 L 262.11075,413.3542 L 244.57354,421.595 L 223.52889,421.595 L 223.52889,421.595"
       id="path3266" />
    <path
       style="opacity:0.9497908;fill:#000000;fill-rule:evenodd;stroke:none;stroke-width:0.66346157px;stroke-linecap:butt;stroke-linejoin:miter;stroke-opacity:1"
       d="M 360.31914,386.27743 L 349.79682,395.10682 L 356.8117,401.58174 L 361.48829,393.34095 L 360.31914,402.17034 L 355.05798,409.82245 L 339.27449,413.94289 L 328.75216,418.06323 L 326.41386,429.24711 L 324.07557,435.72202 L 327.58301,438.07649 L 308.87665,445.14 L 299.52347,452.20352 L 299.52347,455.14667 L 290.17029,462.79887 L 301.86177,468.68511 L 298.35433,461.62159 L 307.70751,457.50114 L 324.07557,458.08984 L 339.27449,452.20352 L 346.28938,449.26045 L 354.47341,452.7922 L 373.17977,458.67844 L 404.74675,457.50114 L 417.60737,451.02633 L 387.20954,450.43773 L 381.3638,438.66518 L 390.71698,430.42439 L 370.84148,423.94947 L 384.87124,413.94289 L 388.37869,397.46129 L 381.3638,389.22057 L 369.67232,386.27743 L 360.31914,386.27743 L 360.31914,386.27743"
       id="path3268"
       sodipodi:nodetypes="cccccccccccccccccccccccccccccccccc" />
    <path
       style="opacity:0.9497908;fill:#000000;fill-rule:evenodd;stroke:none;stroke-width:0.66346157px;stroke-linecap:butt;stroke-linejoin:miter;stroke-opacity:1"
       d="M 331.67502,328.29777 L 327.58301,342.13049 L 349.79682,345.36792 L 337.52077,336.83285 L 331.67502,328.29777 L 331.67502,328.29777"
       id="path3270" />
    <path
       style="opacity:0.9497908;fill:#000000;fill-rule:evenodd;stroke:none;stroke-width:0.66346157px;stroke-linecap:butt;stroke-linejoin:miter;stroke-opacity:1"
       d="M 359.15,312.40486 L 363.24201,316.52524 L 374.93349,321.82288 L 372.01062,328.29777 L 370.2569,335.94991 L 372.01062,343.89636 L 360.90372,351.5485 L 362.65744,362.73239 L 374.93349,368.03003 L 371.42604,358.3177 L 383.70209,346.25086 L 388.37869,342.13049 L 396.56272,343.01343 L 404.16217,343.30773 L 410.59249,353.903 L 406.50047,342.13049 L 383.70209,337.71579 L 379.61008,330.65227 L 380.77923,323.88308 L 380.19466,316.81956 L 376.10264,307.99017 L 362.07286,302.39822 L 350.38139,301.51528 L 338.10535,305.04704 L 324.66014,316.81956 L 326.41386,323.88308 L 325.24472,332.41816 L 321.1527,340.65891 L 331.09046,354.19731 L 339.85906,362.14376 L 334.01333,373.62198 L 338.68992,379.21392 L 354.47341,384.21724 L 343.95108,375.97648 L 347.45852,368.03003 L 356.22713,356.84614 L 347.45852,350.07693 L 331.67502,341.83617 L 329.33674,333.88971 L 335.18247,326.8262 L 335.18247,319.46837 L 348.0431,312.11055 L 359.15,312.40486 L 359.15,312.40486"
       id="path3272" />
    <rect
       y="233.43077"
       x="-4.0857968"
       height="246.20679"
       width="805.03418"
       id="rect3297"
       style="fill:#550000;fill-opacity:1;stroke:none" />
    <path
       style="opacity:0.43514644;fill:#000000;fill-rule:evenodd;stroke:none;stroke-width:0.86215699px;stroke-linecap:butt;stroke-linejoin:miter;stroke-opacity:1"
       d="M 504.18096,358.06385 L 509.96932,375.63104 L 546.35329,388.98209 L 566.19909,373.52298 L 558.75692,351.03696 L 540.56493,318.71331 L 516.58459,325.03751 L 507.48859,337.68588 L 504.18096,358.06385 L 504.18096,358.06385"
       id="path3337" />
    <path
       sodipodi:nodetypes="cccsscccc"
       id="rect3299"
       d="M -2.9173887,1.9429042 L 803.28525,1.9429042 L 803.28525,234.76888 L 758.53952,227.81779 L 499.99327,228.00165 L 186.43513,238.95361 L 80.714283,220.48317 L -2.9173887,234.76888 L -2.9173887,1.9429042 L -2.9173887,1.9429042"
       style="fill:#aa0000;fill-opacity:1;stroke:none" />
    <path
       sodipodi:nodetypes="ccccccssccccccssscccccccccc"
       id="path7574"
       d="M 53.571429,123.57143 L 172.85714,82.142857 L 427.14286,21.428567 L 456.42857,41.428572 L 564.28571,92.857143 L 427.14286,40 L 310.71429,42.857143 L 126.42857,111.42857 L 31.428571,101.42857 L 11.428571,164.28571 L 136.42857,213.57143 L 206.42857,219.28571 L 389.28571,224.28571 L 557.14286,198.57143 L 587.14286,222.14286 L 399.28571,186.42857 L 157.85714,220.71429 L 56.428571,245.71429 L 37.857143,269.28571 L 12.142857,257.85714 L 58.571429,247.85714 L 106.42857,247.85714 L 140.71429,215.71429 L 5,195 L 52.142857,160.71429 L -2.8571429,103.57143 L 53.571429,123.57143 L 53.571429,123.57143"
       style="opacity:0.14102562;fill:#000000;fill-rule:evenodd;stroke:none;stroke-width:1px;stroke-linecap:butt;stroke-linejoin:miter;stroke-opacity:1" />
    <path
       sodipodi:nodetypes="cccccccccccccccccccc"
       id="path3220"
       d="M 322.3503,146.54606 L 298.56574,147.14093 L 260.9095,254.84007 L 266.75155,315.05369 L 290.11974,311.03944 L 286.61451,242.79736 L 301.21963,220.04998 L 307.82584,256.4078 L 301.96701,285.08262 L 289.33693,333.79163 L 383.59251,273.57319 L 381.94915,254.08998 L 390.34281,221.93101 L 402.28706,290.96824 L 366.06637,329.77256 L 397.61342,340.47722 L 431.49731,286.954 L 408.12911,165.18869 L 360.22432,137.089 L 322.3503,146.54606 L 322.3503,146.54606"
       style="fill:#000000;fill-rule:evenodd;stroke:none;stroke-width:1px;stroke-linecap:butt;stroke-linejoin:miter;stroke-opacity:1" />
    <path
       id="path3228"
       d="M 377.75046,328.43449 L 402.28706,372.59115 L 409.29752,407.38124 L 387.09774,422.10013 L 349.70863,414.07168 L 340.36135,384.63386 L 339.19294,351.18186 L 377.75046,328.43449 L 377.75046,328.43449"
       style="fill:#000000;fill-rule:evenodd;stroke:none;stroke-width:1px;stroke-linecap:butt;stroke-linejoin:miter;stroke-opacity:1" />
    <path
       id="path3230"
       d="M 342.69817,349.84379 L 336.85612,379.28155 L 325.17203,406.04312 L 308.8143,412.73357 L 279.60405,402.0289 L 274.93041,373.92922 L 293.62497,341.8153 L 304.14066,321.74409 L 322.83521,308.36328 L 342.69817,313.71562 L 342.69817,349.84379 L 342.69817,349.84379"
       style="fill:#000000;fill-rule:evenodd;stroke:none;stroke-width:1px;stroke-linecap:butt;stroke-linejoin:miter;stroke-opacity:1" />
    <path
       sodipodi:nodetypes="ccccccccccccccccccc"
       id="path3226"
       d="M 298.29861,315.05369 L 258.57268,298.99673 L 187.2997,333.78682 L 61.784765,339.58339 L -3.1510691,371.25307 L -0.81424981,474.28528 L 59.966644,475.75508 L 181.45765,431.46669 L 248.05699,404.70511 L 263.24632,388.6481 L 266.75155,439.49516 L 319.04377,479.41136 L 368.02269,480.35357 L 320.49839,432.80471 L 302.97225,412.73357 L 331.01407,376.60538 L 331.50413,338.74026 L 298.29861,315.05369 L 298.29861,315.05369"
       style="fill:#333333;fill-rule:evenodd;stroke:none;stroke-width:1px;stroke-linecap:butt;stroke-linejoin:miter;stroke-opacity:1" />
    <path
       id="path3234"
       d="M 136.61362,336.08231 L 163.93151,320.40601 L 184.96287,331.11065 L 208.33107,351.18186 L 189.63652,345.82953 L 197.81538,363.22458 L 190.80492,367.23881 L 180.28924,348.50569 L 188.46811,368.57691 L 181.45765,369.91499 L 173.27878,355.1961 L 177.95242,372.59115 L 172.11037,372.59115 L 165.09991,349.84379 L 158.08946,363.22458 L 155.75264,360.54842 L 161.59469,343.15338 L 154.58423,337.80105"
       style="fill:#ffb380;fill-rule:evenodd;stroke:none;stroke-width:1px;stroke-linecap:butt;stroke-linejoin:miter;stroke-opacity:1"
       sodipodi:nodetypes="cccccccccccccccccc" />
    <path
       id="path3236"
       d="M -4.3194784,416.74779 L 70.458732,408.71934 L 123.03717,383.29578 L 123.03717,353.85802 L 144.06854,389.98619 L 197.81538,423.43824 L 133.55285,392.66234 L 65.785098,434.14282 L -4.3194784,416.74779 L -4.3194784,416.74779"
       style="fill:#000000;fill-rule:evenodd;stroke:none;stroke-width:1px;stroke-linecap:butt;stroke-linejoin:miter;stroke-opacity:1" />
    <path
       sodipodi:nodetypes="cccccccccccc"
       id="path3238"
       d="M 227.02563,343.15338 L 271.42519,316.39177 L 288.54002,318.56956 L 288.94525,312.44477 L 299.72453,315.94034 L 311.64116,323.64338 L 305.72824,328.27216 L 328.67726,353.85802 L 294.79338,340.47722 L 265.58314,324.42025 L 248.05699,343.15338 L 227.02563,343.15338 L 227.02563,343.15338"
       style="fill:#000000;fill-rule:evenodd;stroke:none;stroke-width:1px;stroke-linecap:butt;stroke-linejoin:miter;stroke-opacity:1" />
    <path
       sodipodi:nodetypes="cccccccccc"
       id="path3242"
       d="M 335.10351,131.06765 L 331.01407,162.51253 L 353.39243,171.65768 L 367.54866,155.52942 L 359.50796,162.04233 L 352.82996,163.76597 L 348.44972,161.55631 L 340.94556,150.4698 L 335.80639,131.77524 L 335.10351,131.06765 L 335.10351,131.06765"
       style="fill:#28170b;fill-rule:evenodd;stroke:none;stroke-width:1px;stroke-linecap:butt;stroke-linejoin:miter;stroke-opacity:1" />
    <path
       sodipodi:nodetypes="ccccc"
       id="path3307"
       d="M 344.01263,148.96446 L 355.02045,152.97212 L 366.06637,150.13528 L 354.97068,152.65032 L 344.01263,148.96446 L 344.01263,148.96446"
       style="fill:#000000;fill-rule:evenodd;stroke:none;stroke-width:1px;stroke-linecap:butt;stroke-linejoin:miter;stroke-opacity:1" />
    <path
       id="path3329"
       d="M 505.00464,341.48585 L 510.78797,365.13999 L 547.14034,383.11714 L 566.96891,362.30148 L 559.5332,332.02418 L 541.35701,288.50057 L 517.39749,297.01607 L 508.3094,314.04704 L 505.00464,341.48585 L 505.00464,341.48585"
       style="fill:#000000;fill-rule:evenodd;stroke:none;stroke-width:1px;stroke-linecap:butt;stroke-linejoin:miter;stroke-opacity:1" />
    <path
       style="opacity:0.43514644;fill:#000000;fill-rule:evenodd;stroke:none;stroke-width:0.86215699px;stroke-linecap:butt;stroke-linejoin:miter;stroke-opacity:1"
       d="M 436.37447,424.81925 L 462.00863,428.33264 L 478.5468,443.0891 L 464.48936,449.41331 L 442.16283,440.27838 L 436.37447,424.81925 L 436.37447,424.81925"
       id="path3339" />
    <path
       id="path3331"
       d="M 437.25703,431.37163 L 462.86893,436.1024 L 479.39273,455.97187 L 465.3475,464.48739 L 443.04036,452.18722 L 437.25703,431.37163 L 437.25703,431.37163"
       style="fill:#483737;fill-rule:evenodd;stroke:none;stroke-width:1px;stroke-linecap:butt;stroke-linejoin:miter;stroke-opacity:1" />
    <path
       style="opacity:0.43514644;fill:#000000;fill-rule:evenodd;stroke:none;stroke-width:0.86215699px;stroke-linecap:butt;stroke-linejoin:miter;stroke-opacity:1"
       d="M 438.85519,426.22461 L 448.7781,396.71178 L 465.31627,400.22518 L 465.31627,410.06279 L 485.98898,417.08967 L 488.4697,433.95417 L 481.02753,442.38642 L 463.66245,429.03541 L 438.85519,426.22461 L 438.85519,426.22461"
       id="path3341" />
    <path
       id="path3333"
       d="M 439.7356,433.26395 L 449.64988,393.52499 L 466.17369,398.25576 L 466.17369,411.50215 L 486.82845,420.96378 L 489.30702,443.6717 L 481.87131,455.02575 L 464.52131,437.04861 L 439.7356,433.26395 L 439.7356,433.26395"
       style="fill:#000000;fill-rule:evenodd;stroke:none;stroke-width:1px;stroke-linecap:butt;stroke-linejoin:miter;stroke-opacity:1" />
    <path
       style="opacity:0.43514644;fill:#000000;fill-rule:evenodd;stroke:none;stroke-width:0.86215699px;stroke-linecap:butt;stroke-linejoin:miter;stroke-opacity:1"
       d="M 517.4115,343.30739 L 545.52638,346.11815 L 551.31475,340.49663 L 557.93001,362.27998 L 552.96856,380.54983 L 528.16131,370.00954 L 517.4115,343.30739 L 517.4115,343.30739"
       id="path3343" />
    <path
       id="path3335"
       d="M 518.22368,321.61636 L 546.31416,325.40102 L 552.09749,317.8317 L 558.70701,347.16284 L 553.74987,371.76315 L 528.96416,357.57067 L 518.22368,321.61636 L 518.22368,321.61636"
       style="fill:#ff0000;fill-rule:evenodd;stroke:none;stroke-width:1px;stroke-linecap:butt;stroke-linejoin:miter;stroke-opacity:1" />
    <path
       style="opacity:0.70179916;fill:#000000;fill-rule:evenodd;stroke:none;stroke-width:1px;stroke-linecap:butt;stroke-linejoin:miter;stroke-opacity:1"
       d="M 603.73438,439.88714 L 750.79627,339.59352 L 781.07246,343.66073 L 734.27247,394.47111 L 674.78675,420.96378 L 684.70104,464.48739 L 664.87247,472.05669 L 651.65343,434.21007 L 618.60581,449.34877 L 603.73438,439.88714 L 603.73438,439.88714"
       id="path3349"
       sodipodi:nodetypes="ccccccccccc" />
    <path
       style="fill:#000080;fill-rule:evenodd;stroke:none;stroke-width:1px;stroke-linecap:butt;stroke-linejoin:miter;stroke-opacity:1"
       d="M 602.4951,437.04861 L 749.55698,336.75501 L 781.26174,337.96509 L 733.03318,391.63263 L 716.99573,389.74307 L 673.54747,418.12525 L 683.46175,461.64885 L 663.63318,469.21816 L 650.41414,431.37153 L 617.36653,446.51024 L 602.4951,437.04861 L 602.4951,437.04861"
       id="path3347"
       sodipodi:nodetypes="cccccccccccc" />
    <path
       id="path3345"
       d="M 602.082,434.21016 L 708.6504,363.24241 L 710.05293,354.54062 L 730.92579,348.88722 L 764.85818,326.41651 L 779.77722,337.26946 L 732.62008,388.79412 L 715.89452,385.2501 L 673.13437,415.2868 L 683.04865,458.81041 L 663.22009,466.37971 L 650.00104,428.53309 L 616.95343,443.67179 L 602.082,434.21016 L 602.082,434.21016"
       style="fill:#0000ff;fill-rule:evenodd;stroke:none;stroke-width:1px;stroke-linecap:butt;stroke-linejoin:miter;stroke-opacity:1"
       sodipodi:nodetypes="ccccccccccccccc" />
    <path
       id="path2455"
       d="M 11.616754,476.96954 L 78.791898,476.96954 L 223.24371,431.0076 L 248.49752,423.43146 L 255.56859,436.56344 L 313.65236,475.45431 L 266.68027,439.08882 L 263.64981,398.17764 L 258.59905,391.61165 L 247.99245,405.24871 L 58.083771,475.95939 L 11.111678,473.93908 L 11.616754,476.96954 L 11.616754,476.96954"
       style="opacity:0.625;fill:#000000;fill-rule:evenodd;stroke:none;stroke-width:1px;stroke-linecap:butt;stroke-linejoin:miter;stroke-opacity:1" />
    <path
       id="path3227"
       d="M 389.4138,345.64971 L 431.33513,352.72078 L 448.00265,372.41875 L 408.10163,408.27917 L 389.4138,345.64971 L 389.4138,345.64971"
       style="opacity:0.28448277;fill:#000000;fill-rule:evenodd;stroke:none;stroke-width:1px;stroke-linecap:butt;stroke-linejoin:miter;stroke-opacity:1" />
    <path
       sodipodi:nodetypes="ccccccc"
       style="opacity:0.62068954;fill:#800000;fill-rule:evenodd;stroke:none;stroke-width:1px;stroke-linecap:butt;stroke-linejoin:miter;stroke-opacity:1"
       d="M 518.22368,321.61636 L 546.31416,325.40102 L 552.09749,317.8317 L 558.70701,347.16284 L 543.03558,337.47744 L 524.3213,342.21353 L 518.22368,321.61636 L 518.22368,321.61636"
       id="path2457" />
    <path
       sodipodi:nodetypes="cccccc"
       id="path7571"
       d="M 337.5,137.32143 L 338.57143,147.67857 L 344.82143,159.28572 L 348.75,161.42857 L 341.25,150.35714 L 337.5,137.32143 L 337.5,137.32143"
       style="opacity:0.45299144;fill:#aa4400;fill-rule:evenodd;stroke:none;stroke-width:1px;stroke-linecap:butt;stroke-linejoin:miter;stroke-opacity:1" />
    <path
       sodipodi:nodetypes="ccccccccccccc"
       id="path7578"
       d="M 313.21428,156.42857 L 316.42857,173.21429 L 331.42857,185.35714 L 346.78571,219.28571 L 347.14286,228.21429 L 357.14286,205.71429 L 361.42857,190.35714 L 389.28571,182.85714 L 393.58726,166.39031 L 364.10715,159.10715 L 353.21428,171.42857 L 341.07143,156.42857 L 313.21428,156.42857 L 313.21428,156.42857"
       style="opacity:0.45299144;fill:#800000;fill-rule:evenodd;stroke:none;stroke-width:1px;stroke-linecap:butt;stroke-linejoin:miter;stroke-opacity:1" />
    <path
       sodipodi:nodetypes="cccccccc"
       id="path7582"
       d="M 308.92857,215.71429 L 330,223.57143 L 339.64286,215 L 339.28571,221.07143 L 335.71429,230.71429 L 340.71429,246.78571 L 320.35714,224.64286 L 308.92857,215.71429 L 308.92857,215.71429"
       style="opacity:0.37179488;fill:#501616;fill-rule:evenodd;stroke:#000000;stroke-width:1px;stroke-linecap:butt;stroke-linejoin:miter;stroke-opacity:1" />
    <path
       id="path7584"
       d="M 357.14286,220.71429 L 371.07143,231.07143 L 382.85714,231.78571 L 392.14286,222.14286 L 382.14286,252.14286 L 381.78571,258.57143 L 367.5,246.78571 L 354.64286,233.92857 L 354.64286,220.71429 L 357.14286,220.71429 L 357.14286,220.71429"
       style="opacity:0.42735045;fill:#550000;fill-rule:evenodd;stroke:none;stroke-width:1px;stroke-linecap:butt;stroke-linejoin:miter;stroke-opacity:1" />
    <path
       sodipodi:nodetypes="cccccc"
       id="path7586"
       d="M 375.71428,118.21429 L 371.96428,144.28571 L 369.10714,153.03571 L 371.25,150 L 375.35714,131.42857 L 375.71428,118.21429 L 375.71428,118.21429"
       style="opacity:0.34615383;fill:#000000;fill-rule:evenodd;stroke:none;stroke-width:1px;stroke-linecap:butt;stroke-linejoin:miter;stroke-opacity:1" />
    <path
       sodipodi:nodetypes="ccccccccc"
       id="path7588"
       d="M 344.30418,148.98564 L 350.04942,152.52117 L 352.196,154.00484 L 354.34257,154.82558 L 358.38318,153.91013 L 363.87589,151.06908 L 365.92776,150.15363 L 354.895,152.93155 L 344.30418,148.98564 L 344.30418,148.98564"
       style="opacity:0.23504274;fill:#000000;fill-rule:evenodd;stroke:none;stroke-width:1px;stroke-linecap:butt;stroke-linejoin:miter;stroke-opacity:1" />
    <path
       sodipodi:nodetypes="cccccsc"
       id="path7590"
       d="M 344.08321,148.95407 L 354.2163,150.40617 L 354.94235,151.29005 L 355.63683,150.7534 L 365.89619,150.24833 L 354.59511,152.86841 L 344.08321,148.95407 L 344.08321,148.95407"
       style="opacity:0.09401706;fill:#000000;fill-rule:evenodd;stroke:none;stroke-width:1px;stroke-linecap:butt;stroke-linejoin:miter;stroke-opacity:1" />
    <path
       id="path5020"
       d="M 324.68166,286.45864 L 338.04403,273.51898 L 341.12945,271.93644 L 347.13012,271.96902 L 351.51011,272.94842 L 358.81495,268.37835 L 364.35731,268.46786 L 369.13894,268.36014 L 377.60131,268.05454 L 385.8226,272.80299 L 392.76341,278.39116 L 394.87062,284.19076 L 391.02919,286.70996 L 390.27305,293.93486 L 383.2706,298.75908 L 380.10004,305.08459 L 374.24101,310.77161 L 371.54769,315.28749 L 374.0235,318.35098 L 378.11527,319.33377 L 378.94206,322.82898 L 376.59842,326.36143 L 372.72866,328.36553 L 363.4111,327.80495 L 359.05473,326.20675 L 356.09227,322.68509 L 356.17265,319.95238 L 356.04983,318.76833 L 350.82405,319.19053 L 345.81557,321.46572 L 352.07612,320.97983 L 353.96607,321.78231 L 352.6903,323.75593 L 335.26462,329.93965 L 331.64526,332.30161 L 330.89389,337.51628 L 328.51244,341.40998 L 313.94572,329.3139 L 307.89791,324.23067 L 303.3149,315.36759 L 312.52393,308.71342 L 321.27465,302.11619 L 323.84513,296.41626 L 322.65457,290.50281 L 323.50514,287.09098 L 324.68166,286.45864 L 324.68166,286.45864"
       style="fill:#ffb380;fill-rule:evenodd;stroke:none;stroke-width:0.48263708px;stroke-linecap:butt;stroke-linejoin:miter;stroke-opacity:1" />
    <path
       id="path5022"
       d="M 355.38935,270.06798 L 361.3191,271.95694 L 362.21681,273.59577 L 363.61534,275.95031 L 361.52218,276.69651 L 351.70379,275.42021 L 349.95089,272.9152 L 353.12132,272.87795 L 355.38935,270.06798 L 355.38935,270.06798"
       style="fill:#aa4400;fill-rule:evenodd;stroke:none;stroke-width:0.48263708px;stroke-linecap:butt;stroke-linejoin:miter;stroke-opacity:1" />
    <path
       sodipodi:nodetypes="cccccccccccc"
       id="path5026"
       d="M 363.5727,281.46591 L 364.29547,288.31263 L 367.14922,294.05192 L 370.03613,295.15195 L 372.1669,303.47687 L 372.37964,297.90773 L 374.42565,292.11088 L 372.52636,285.89649 L 369.34653,283.66597 L 367.01242,283.17796 L 365.9021,280.82003 L 363.5727,281.46591 L 363.5727,281.46591"
       style="fill:#ff7f2a;fill-rule:evenodd;stroke:none;stroke-width:0.48263708px;stroke-linecap:butt;stroke-linejoin:miter;stroke-opacity:1" />
    <path
       sodipodi:nodetypes="ccccccc"
       id="path5028"
       d="M 359.62765,268.47189 L 363.50681,268.73557 L 365.34943,273.91976 L 366.95594,272.7154 L 366.56853,270.91595 L 366.15278,268.6014 L 359.62765,268.47189 L 359.62765,268.47189"
       style="fill:#552200;fill-rule:evenodd;stroke:none;stroke-width:0.48263708px;stroke-linecap:butt;stroke-linejoin:miter;stroke-opacity:1" />
    <path
       sodipodi:nodetypes="cccccccccc"
       id="path5030"
       d="M 370.36483,279.63365 L 369.54503,280.98339 L 376.00869,283.665 L 378.55769,288.58318 L 378.60709,298.91697 L 379.0041,293.55183 L 380.4547,291.0865 L 380.20434,287.58452 L 378.40188,282.60602 L 370.36483,279.63365 L 370.36483,279.63365"
       style="fill:#ffb380;fill-rule:evenodd;stroke:none;stroke-width:0.48263708px;stroke-linecap:butt;stroke-linejoin:miter;stroke-opacity:1" />
    <path
       id="path5032"
       d="M 349.92712,279.82224 L 351.15562,279.0862 L 352.35101,279.8453 L 352.51157,283.81222 L 350.74444,284.19378 L 350.41371,283.42452 L 350.99493,281.40752 L 350.5319,280.33056 L 349.92712,279.82224 L 349.92712,279.82224"
       style="fill:#aa4400;fill-rule:evenodd;stroke:none;stroke-width:0.48263708px;stroke-linecap:butt;stroke-linejoin:miter;stroke-opacity:1" />
    <path
       id="path5034"
       d="M 351.52402,285.78245 L 353.21555,286.12338 L 354.34956,284.7184 L 354.42994,281.98568 L 352.92745,279.83852 L 354.07093,277.5572 L 359.46205,279.09169 L 365.0044,279.1812 L 364.65944,281.29851 L 363.07657,281.88408 L 362.32996,285.08853 L 360.59594,283.97495 L 360.67631,281.24223 L 358.53595,280.08189 L 356.77352,281.59734 L 357.31209,285.09594 L 354.28336,287.70867 L 352.33194,287.88622 L 351.52402,285.78245 L 351.52402,285.78245"
       style="fill:#aa4400;fill-rule:evenodd;stroke:none;stroke-width:0.48263708px;stroke-linecap:butt;stroke-linejoin:miter;stroke-opacity:1" />
    <path
       sodipodi:nodetypes="cccccccccc"
       id="path5036"
       d="M 340.23626,280.86387 L 343.03339,282.42884 L 345.33909,285.54587 L 345.84159,297.51837 L 345.34792,291.99986 L 340.54588,287.88915 L 335.28446,284.16927 L 337.31154,280.1251 L 340.23626,280.86387 L 340.23626,280.86387"
       style="fill:#d45500;fill-rule:evenodd;stroke:none;stroke-width:0.48263708px;stroke-linecap:butt;stroke-linejoin:miter;stroke-opacity:1" />
    <path
       id="path5560"
       d="M 338.91353,109.8314 L 337.59781,118.32514 L 336.03321,125.95393 L 337.431,142.48821 L 341.50507,151.92124 L 347.11605,159.18939 L 352.32952,163.68601 L 358.45358,162.17291 L 367.58713,155.27264 L 373.77898,147.87897 L 375.68444,136.7087 L 376.45403,123.53681 L 372.90128,108.68739 L 368.99236,107.89065 L 361.68407,104.45394 L 355.17491,108.24276 L 354.1517,110.2468 L 348.09546,105.87933 L 342.83423,107.05497 L 338.91353,109.8314 L 338.91353,109.8314"
       style="fill:#ffccaa;fill-rule:evenodd;stroke:none;stroke-width:1px;stroke-linecap:butt;stroke-linejoin:miter;stroke-opacity:1" />
    <path
       id="path5562"
       d="M 338.51313,122.6183 L 341.83995,120.83599 L 348.92355,124.88183 L 352.17843,127.29763 L 351.71312,130.40665 L 350.44928,134.91059 L 349.79049,126.22679 L 345.90164,125.22173 L 342.00862,122.53425 L 338.51313,122.6183 L 338.51313,122.6183"
       style="fill:#552200;fill-rule:evenodd;stroke:none;stroke-width:1px;stroke-linecap:butt;stroke-linejoin:miter;stroke-opacity:1" />
    <path
       id="path5564"
       d="M 356.84163,125.43369 L 365.71866,122.92404 L 370.36597,122.95084 L 373.43624,125.55914 L 368.23104,124.42739 L 363.4434,125.85886 L 358.38681,126.63368 L 356.84163,125.43369 L 356.84163,125.43369"
       style="fill:#552200;fill-rule:evenodd;stroke:none;stroke-width:1px;stroke-linecap:butt;stroke-linejoin:miter;stroke-opacity:1" />
    <path
       sodipodi:nodetypes="ccccccc"
       id="path5566"
       d="M 340.5201,127.6473 L 344.01145,125.88082 L 348.12502,126.27675 L 351.21535,128.67672 L 344.81147,131.37183 L 341.94391,130.54072 L 340.5201,127.6473 L 340.5201,127.6473"
       style="fill:#ffb380;fill-rule:evenodd;stroke:none;stroke-width:1px;stroke-linecap:butt;stroke-linejoin:miter;stroke-opacity:1" />
    <path
       sodipodi:nodetypes="ccccccc"
       id="path5568"
       d="M 358.65987,128.97274 L 363.01405,126.86879 L 368.03467,128.19304 L 369.31504,130.41881 L 366.36192,132.9128 L 363.32252,133.15351 L 358.65987,128.97274 L 358.65987,128.97274"
       style="fill:#ffb380;fill-rule:evenodd;stroke:none;stroke-width:1px;stroke-linecap:butt;stroke-linejoin:miter;stroke-opacity:1" />
    <path
       sodipodi:nodetypes="cccccccccc"
       id="path5570"
       d="M 357.97751,127.4353 L 355.64622,132.6775 L 355.72499,139.62344 L 355.80374,146.56938 L 358.01059,140.89469 L 357.15956,137.65898 L 357.53639,132.01841 L 363.05063,133.39016 L 358.59971,129.59771 L 357.97751,127.4353 L 357.97751,127.4353"
       style="fill:#ff9955;fill-rule:evenodd;stroke:none;stroke-width:1px;stroke-linecap:butt;stroke-linejoin:miter;stroke-opacity:1" />
    <path
       id="path5572"
       d="M 338.53443,139.65089 L 341.25971,144.11825 L 345.35321,144.7225 L 349.96806,139.91035 L 345.35736,146.40492 L 340.11204,145.68981 L 338.64293,141.9741 L 338.53443,139.65089 L 338.53443,139.65089"
       style="opacity:0.09051723;fill:#ff9955;fill-rule:evenodd;stroke:none;stroke-width:1px;stroke-linecap:butt;stroke-linejoin:miter;stroke-opacity:1" />
    <path
       id="path5574"
       d="M 358.70887,140.54139 L 363.11968,144.75049 L 366.16578,145.88469 L 369.18356,143.86237 L 373.30891,140.68513 L 364.74153,152.05522 L 365.61613,148.14457 L 364.01081,147.56955 L 361.86762,145.68125 L 360.05353,143.82461 L 358.70887,140.54139 L 358.70887,140.54139"
       style="opacity:0.09051723;fill:#ff9955;fill-rule:evenodd;stroke:none;stroke-width:1px;stroke-linecap:butt;stroke-linejoin:miter;stroke-opacity:1" />
    <path
       sodipodi:nodetypes="ccccccsc"
       id="path5580"
       d="M 345.28542,150.60307 L 352.95463,150.28997 L 354.20799,151.04901 L 355.58434,150.17358 L 361.91157,151.0289 L 355.46707,153.82338 L 352.1311,153.59055 L 345.28542,150.60307 L 345.28542,150.60307"
       style="fill:#803300;fill-rule:evenodd;stroke:none;stroke-width:1px;stroke-linecap:butt;stroke-linejoin:miter;stroke-opacity:1" />
    <path
       sodipodi:nodetypes="cccccccccccccccccccccccccccccccccccccccccccc"
       id="path3244"
       d="M 361.80352,105.29354 L 366.65057,108.59918 L 375.47753,117.42019 L 375.41364,131.06765 L 371.3396,149.17698 L 375.41364,166.52677 L 364.31375,183.92181 L 370.12947,193.96888 L 366.06637,209.34535 L 378.33467,221.38806 L 374.82944,199.30973 L 387.09774,171.87909 L 391.77138,162.51253 L 399.95024,164.51964 L 407.5449,165.18869 L 413.97115,189.27413 L 409.88172,162.51253 L 387.09774,152.47693 L 383.0083,136.41996 L 382.1564,122.7998 L 379.29936,108.25807 L 377.94955,101.76373 L 369.52277,93.405307 L 354.55568,86.852506 L 340.01454,92.103071 L 333.92401,105.58505 L 329.84567,121.03203 L 328.67726,140.4342 L 324.58782,159.16733 L 334.51931,189.94318 L 343.28237,208.00725 L 337.44033,234.09982 L 342.11397,246.8116 L 357.8875,258.18527 L 347.37181,239.45215 L 350.87704,221.38806 L 359.64011,195.96454 L 350.87704,180.57661 L 335.10351,161.84348 L 332.76669,143.77941 L 338.60874,127.72244 L 340.12397,112.25913 L 351.71378,112.45317 L 361.80352,105.29354 L 361.80352,105.29354"
       style="fill:#552200;fill-rule:evenodd;stroke:none;stroke-width:1px;stroke-linecap:butt;stroke-linejoin:miter;stroke-opacity:1" />
    <path
       id="path5582"
       d="M 340.29514,127.58303 L 343.45187,130.73976 L 345.3459,130.23468 L 351.40682,128.71945 L 344.9671,131.3711 L 342.56798,131.3711 L 341.55783,130.73976 L 340.29514,127.58303 L 340.29514,127.58303"
       style="fill:#aa4400;fill-rule:evenodd;stroke:none;stroke-width:1px;stroke-linecap:butt;stroke-linejoin:miter;stroke-opacity:1" />
    <path
       sodipodi:nodetypes="ccccccccc"
       id="path5584"
       d="M 358.62714,128.87505 L 363.25444,132.87101 L 365.84482,132.40292 L 367.79751,131.35578 L 369.3867,130.38262 L 365.92776,133.39141 L 362.13969,133.39141 L 359.61431,130.99229 L 358.62714,128.87505 L 358.62714,128.87505"
       style="fill:#aa4400;fill-rule:evenodd;stroke:none;stroke-width:1px;stroke-linecap:butt;stroke-linejoin:miter;stroke-opacity:1" />
    <path
       sodipodi:nodetypes="cccccccccccccccccccccccccccccccccc"
       id="path3240"
       d="M 377.18139,264.18895 L 362.85579,282.40419 L 367.50304,298.24789 L 375.58218,280.37889 L 370.87733,300.17248 L 362.43037,316.61008 L 344.56097,323.27573 L 332.10324,330.8292 L 325.26187,355.75636 L 320.28836,370.02174 L 322.9622,375.9445 L 300.91891,388.78054 L 288.49635,403.19494 L 287.32895,409.85851 L 274.67289,425.60566 L 284.36399,440.90577 L 283.55803,424.32119 L 294.81315,416.57043 L 311.41598,420.66523 L 329.38453,409.90278 L 337.76753,404.42284 L 344.78477,413.80029 L 361.69144,430.28412 L 394.62844,432.94543 L 410.4253,420.45564 L 379.39134,413.99347 L 378.04805,386.35252 L 390.93756,369.27271 L 373.06179,351.25883 L 391.46212,330.97001 L 401.60746,294.24563 L 397.66066,274.40377 L 386.80214,265.76725 L 377.18139,264.18895 L 377.18139,264.18895"
       style="fill:#552200;fill-rule:evenodd;stroke:none;stroke-width:1px;stroke-linecap:butt;stroke-linejoin:miter;stroke-opacity:1" />
    <path
       style="fill:#ff7f2a;fill-rule:evenodd;stroke:none;stroke-width:1px;stroke-linecap:butt;stroke-linejoin:miter;stroke-opacity:1"
       d="M 313.39983,327.21443 L 333.35034,317.36544 L 331.58257,308.5266 L 345.97725,314.08244 L 362.8973,316.60783 L 332.84527,331.25504 L 329.30973,341.35656 L 313.39983,327.21443 z"
       id="path5816"
       sodipodi:nodetypes="cccccccc" />
  </g>
</svg>
