<?xml version="1.0" encoding="UTF-8" standalone="no"?>
<!-- Created with Inkscape (http://www.inkscape.org/) -->
<svg
   xmlns:dc="http://purl.org/dc/elements/1.1/"
   xmlns:cc="http://creativecommons.org/ns#"
   xmlns:rdf="http://www.w3.org/1999/02/22-rdf-syntax-ns#"
   xmlns:svg="http://www.w3.org/2000/svg"
   xmlns="http://www.w3.org/2000/svg"
   xmlns:sodipodi="http://sodipodi.sourceforge.net/DTD/sodipodi-0.dtd"
   xmlns:inkscape="http://www.inkscape.org/namespaces/inkscape"
   width="800"
   height="480"
   id="svg2"
   sodipodi:version="0.32"
   inkscape:version="0.46"
   version="1.0"
   sodipodi:docname="title.svg"
   inkscape:output_extension="org.inkscape.output.svg.inkscape">
  <sodipodi:namedview
     id="base"
     pagecolor="#ffffff"
     bordercolor="#666666"
     borderopacity="1.0"
     gridtolerance="10000"
     guidetolerance="10"
     objecttolerance="10"
     inkscape:pageopacity="0.0"
     inkscape:pageshadow="2"
     inkscape:zoom="1.979899"
     inkscape:cx="342.39225"
     inkscape:cy="271.84516"
     inkscape:document-units="px"
     inkscape:current-layer="layer1"
     showgrid="false"
     inkscape:window-width="1280"
     inkscape:window-height="729"
     inkscape:window-x="0"
     inkscape:window-y="25"
     showguides="true"
     inkscape:guide-bbox="true" />
  <defs
     id="defs4">
    <inkscape:perspective
       id="perspective10"
       inkscape:persp3d-origin="372.04724 : 350.78739 : 1"
       inkscape:vp_z="744.09448 : 526.18109 : 1"
       inkscape:vp_y="0 : 1000 : 0"
       inkscape:vp_x="0 : 526.18109 : 1"
       sodipodi:type="inkscape:persp3d" />
    <inkscape:perspective
       sodipodi:type="inkscape:persp3d"
       inkscape:vp_x="0 : 526.18109 : 1"
       inkscape:vp_y="0 : 1000 : 0"
       inkscape:vp_z="744.09448 : 526.18109 : 1"
       inkscape:persp3d-origin="372.04724 : 350.78739 : 1"
       id="perspective2390" />
    <inkscape:perspective
       sodipodi:type="inkscape:persp3d"
       inkscape:vp_x="0 : 526.18109 : 1"
       inkscape:vp_y="0 : 1000 : 0"
       inkscape:vp_z="744.09448 : 526.18109 : 1"
       inkscape:persp3d-origin="372.04724 : 350.78739 : 1"
       id="perspective2394" />
    <inkscape:perspective
       id="perspective2439"
       inkscape:persp3d-origin="372.04724 : 350.78739 : 1"
       inkscape:vp_z="744.09448 : 526.18109 : 1"
       inkscape:vp_y="0 : 1000 : 0"
       inkscape:vp_x="0 : 526.18109 : 1"
       sodipodi:type="inkscape:persp3d" />
    <inkscape:perspective
       id="perspective2437"
       inkscape:persp3d-origin="372.04724 : 350.78739 : 1"
       inkscape:vp_z="744.09448 : 526.18109 : 1"
       inkscape:vp_y="0 : 1000 : 0"
       inkscape:vp_x="0 : 526.18109 : 1"
       sodipodi:type="inkscape:persp3d" />
    <inkscape:perspective
       sodipodi:type="inkscape:persp3d"
       inkscape:vp_x="0 : 526.18109 : 1"
       inkscape:vp_y="0 : 1000 : 0"
       inkscape:vp_z="744.09448 : 526.18109 : 1"
       inkscape:persp3d-origin="372.04724 : 350.78739 : 1"
       id="perspective2435" />
    <inkscape:perspective
       id="perspective2433"
       inkscape:persp3d-origin="372.04724 : 350.78739 : 1"
       inkscape:vp_z="744.09448 : 526.18109 : 1"
       inkscape:vp_y="0 : 1000 : 0"
       inkscape:vp_x="0 : 526.18109 : 1"
       sodipodi:type="inkscape:persp3d" />
    <inkscape:perspective
       sodipodi:type="inkscape:persp3d"
       inkscape:vp_x="0 : 526.18109 : 1"
       inkscape:vp_y="0 : 1000 : 0"
       inkscape:vp_z="744.09448 : 526.18109 : 1"
       inkscape:persp3d-origin="372.04724 : 350.78739 : 1"
       id="perspective2431" />
    <inkscape:perspective
       sodipodi:type="inkscape:persp3d"
       inkscape:vp_x="0 : 526.18109 : 1"
       inkscape:vp_y="0 : 1000 : 0"
       inkscape:vp_z="744.09448 : 526.18109 : 1"
       inkscape:persp3d-origin="372.04724 : 350.78739 : 1"
       id="perspective2452" />
    <inkscape:perspective
       id="perspective5825"
       inkscape:persp3d-origin="372.04724 : 350.78739 : 1"
       inkscape:vp_z="744.09448 : 526.18109 : 1"
       inkscape:vp_y="0 : 1000 : 0"
       inkscape:vp_x="0 : 526.18109 : 1"
       sodipodi:type="inkscape:persp3d" />
    <inkscape:perspective
       id="perspective5844"
       inkscape:persp3d-origin="372.04724 : 350.78739 : 1"
       inkscape:vp_z="744.09448 : 526.18109 : 1"
       inkscape:vp_y="0 : 1000 : 0"
       inkscape:vp_x="0 : 526.18109 : 1"
       sodipodi:type="inkscape:persp3d" />
  </defs>
  <metadata
     id="metadata7">
    <rdf:RDF>
      <cc:Work
         rdf:about="">
        <dc:format>image/svg+xml</dc:format>
        <dc:type
           rdf:resource="http://purl.org/dc/dcmitype/StillImage" />
      </cc:Work>
    </rdf:RDF>
  </metadata>
  <g
     id="layer1"
     inkscape:groupmode="layer"
     inkscape:label="Layer 1">
    <rect
       y="1.0101776"
       x="-3.3100732e-05"
       height="480"
       width="800"
       id="rect2419"
       style="fill:#803300;fill-opacity:1;fill-rule:nonzero;stroke:none" />
    <path
       id="path2451"
       d="M 238.41643,42.225063 L 185.7565,23.647295 L 155.04115,12.954314 L 113.78164,13.477215 L 86.323678,32.260109 L 98.357441,73.666051 L 91.000101,117.76863 L 50.167916,159.95113 L 5.6903238,191.41727 L 47.478956,165.31322 L 55.616372,145.81614 L 123.73016,93.37779 L 132.46723,44.888767 L 126.87365,3.7208841 L 161.55189,9.7815514 L 215.05681,40.432138 L 238.41643,42.225063 z"
       style="opacity:0.56896548;fill:#2b1100;fill-rule:evenodd;stroke:none;stroke-width:1px;stroke-linecap:butt;stroke-linejoin:miter;stroke-opacity:1"
       sodipodi:nodetypes="ccccccccccccccccc" />
    <path
       id="path3218"
       d="M 548.2196,168.24339 L 359.37372,76.128524 L 215.19504,176.95758 L 168.51154,246.31497 L 182.72769,254.26529 L 158.89276,279.28829 L 128.423,324.67214 L 117.40178,374.92621 L 80.085981,453.97271 L 87.734488,471.43097 L 90.801307,434.55574 L 91.444111,396.44212 L 152.66515,315.97825 L 182.10765,170.41999 L 193.77991,227.5718 L 380.31259,67.28039 L 583.39218,209.42678 L 593.14896,288.42941 L 657.84987,313.8897 L 679.48155,451.20476 L 691.49782,373.84318 C 691.49782,373.84318 633.46388,325.09608 636.22888,319.89524 C 638.99387,314.69441 485.67587,112.04499 485.67587,112.04499 L 450.27139,118.50265 L 525.46938,156.65872 L 549.59973,137.04661 L 548.2196,168.24339 z"
       style="opacity:0.38362068;fill:#aa4400;fill-rule:evenodd;stroke:none;stroke-width:1px;stroke-linecap:butt;stroke-linejoin:miter;stroke-opacity:1"
       sodipodi:nodetypes="cccccccccccccccccccccsccccc" />
    <path
       id="path3264"
       d="M 38.385797,475.95938 L 28.284271,338.57864 L 116.34086,218.76787 L 98.994949,134.52783 L 163.64471,63.817152 L 321.22851,41.593796 L 430.32498,3.2079996 L 507.09658,96.142034 L 668.72098,118.36538 L 662.66007,176.95423 L 747.51288,261.80705 L 735.39105,314.33498 C 735.39105,314.33498 802.06112,409.28932 791.95959,413.32993 C 781.85807,417.37054 779.83776,480 779.83776,480 L 692.96464,480 L 753.5738,387.06596 L 636.3961,282.0101 L 632.35549,233.52277 L 591.94939,168.87301 L 598.01031,146.64966 L 367.69553,53.715627 C 367.69553,53.715627 305.06607,63.817152 294.96454,71.898373 C 284.86302,79.979593 237.37713,98.529994 237.37713,98.529994 L 208.09142,136.54813 L 158.66574,153.42486 L 129.29953,235.54308 L 68.690373,302.21315 L 103.03556,358.78169 L 38.385797,475.95938 z"
       style="opacity:0.1837607;fill:#000000;fill-rule:evenodd;stroke:none;stroke-width:1px;stroke-linecap:butt;stroke-linejoin:miter;stroke-opacity:1"
       sodipodi:nodetypes="ccccccccccccsccccccccsccccccc" />
    <path
       sodipodi:nodetypes="cscccccccc"
       id="path3266"
       d="M 325.26912,138.56844 C 325.26912,138.56844 185.86807,282.0101 177.78685,286.05071 C 169.70563,290.09132 157.5838,362.8223 157.5838,362.8223 L 98.994949,488.08122 L 662.66007,488.08122 L 646.92476,336.59679 L 557.6042,312.31468 L 523.25902,183.01515 L 351.53309,110.28417 L 325.26912,138.56844 z"
       style="fill:#552200;fill-rule:evenodd;stroke:none;stroke-width:1px;stroke-linecap:butt;stroke-linejoin:miter;stroke-opacity:1" />
    <path
       id="path3268"
       d="M 210.11173,492.12183 L 256.57875,344.63956 L 383.85797,195.13698 L 521.23871,306.25376 L 505.07627,344.63956 L 591.94939,376.96444 L 496.99505,411.30963 L 600.03061,469.89847 L 614.17275,494.14214 L 210.11173,492.12183 z"
       style="fill:#28170b;fill-rule:evenodd;stroke:none;stroke-width:1px;stroke-linecap:butt;stroke-linejoin:miter;stroke-opacity:1" />
    <path
       id="path3195"
       d="M 364.18419,394.38724 L 384.18419,382.95867 L 395.61277,411.5301 L 332.75562,451.5301 L 324.18419,427.24439 L 371.32705,394.38724 L 364.18419,394.38724 z"
       style="fill:none;fill-rule:evenodd;stroke:none;stroke-width:1px;stroke-linecap:butt;stroke-linejoin:miter;stroke-opacity:1" />
    <path
       sodipodi:nodetypes="ccccccccccccccccccccccccccc"
       id="path3197"
       d="M 202.75562,492.95867 L 259.1842,279.38724 L 328.46991,275.81582 L 341.6842,261.5301 L 318.11276,235.10153 L 337.04133,130.81582 L 388.46991,117.24439 L 435.61277,137.24439 L 443.46991,227.95867 L 437.75563,245.81581 L 414.18419,268.67296 L 495.61277,275.81582 L 565.61277,397.24438 L 551.32705,270.10153 L 572.75562,232.95867 L 598.89856,393.77287 L 610.89061,436.91445 L 594.1842,482.95868 L 564.18419,462.95868 L 501.32705,377.24439 L 504.18419,417.24439 L 481.32705,444.38724 L 471.32705,492.95867 L 334.18419,492.95867 L 297.04134,352.95867 L 267.04133,494.38725 L 202.75562,492.95867 z"
       style="fill:#000000;fill-rule:evenodd;stroke:none;stroke-width:1px;stroke-linecap:butt;stroke-linejoin:miter;stroke-opacity:1" />
    <path
       id="path3191"
       d="M 301.32705,392.95867 L 571.32705,170.10153 L 595.61277,200.10153 L 549.89848,272.95867 L 529.89848,270.10153 L 427.04134,368.67296 L 405.61277,362.95867 L 308.46991,428.67296 L 301.32705,392.95867 z"
       style="fill:#000080;fill-rule:evenodd;stroke:none;stroke-width:1px;stroke-linecap:butt;stroke-linejoin:miter;stroke-opacity:1" />
    <path
       id="path3193"
       d="M 404.18419,310.10153 L 397.04134,250.10153 L 479.89848,214.38724 L 497.04134,232.95867 L 404.18419,310.10153 z"
       style="fill:#000080;fill-rule:evenodd;stroke:none;stroke-width:1px;stroke-linecap:butt;stroke-linejoin:miter;stroke-opacity:1" />
    <path
       sodipodi:nodetypes="ccccccccc"
       id="path3201"
       d="M 355.61277,241.5301 L 341.32705,210.10153 L 351.6842,153.31581 L 389.89848,174.38724 L 425.61277,152.95867 L 425.61277,214.38724 L 411.32705,244.38724 L 385.61277,258.67296 L 355.61277,241.5301 z"
       style="fill:#800000;fill-rule:evenodd;stroke:none;stroke-width:1px;stroke-linecap:butt;stroke-linejoin:miter;stroke-opacity:1" />
    <path
       id="path3211"
       d="M 262.04134,281.5301 L 337.04134,306.5301 L 367.04134,292.95867 L 386.32705,310.10153 L 384.18419,277.24439 L 333.46991,289.38724 C 333.46991,289.38724 324.18419,277.95867 321.32705,278.67296 L 262.04134,281.5301 z"
       style="opacity:0.45564515;fill:#800080;fill-rule:evenodd;stroke:none;stroke-width:1px;stroke-linecap:butt;stroke-linejoin:miter;stroke-opacity:1"
       sodipodi:nodetypes="cccccccc" />
    <path
       id="path3213"
       d="M 350.61277,129.38724 L 380.61277,123.67296 L 383.46991,140.10153 L 350.61277,129.38724 z"
       style="opacity:0.24358975;fill:#800080;fill-rule:evenodd;stroke:none;stroke-width:1px;stroke-linecap:butt;stroke-linejoin:miter;stroke-opacity:1" />
    <path
       id="path3215"
       d="M 474.18419,338.67296 L 489.18419,397.24439 L 432.75562,372.24439 L 474.18419,338.67296 z"
       style="opacity:0.29059831;fill:#800080;fill-rule:evenodd;stroke:none;stroke-width:1px;stroke-linecap:butt;stroke-linejoin:miter;stroke-opacity:1" />
    <path
       sodipodi:nodetypes="ccccc"
       id="path3217"
       d="M 479.18419,214.38724 L 468.46991,219.38725 L 487.39848,240.10153 L 496.32705,232.95867 L 479.18419,214.38724 z"
       style="fill:#00ffff;fill-rule:evenodd;stroke:none;stroke-width:1px;stroke-linecap:butt;stroke-linejoin:miter;stroke-opacity:1" />
    <path
       id="path3219"
       d="M 574.89848,170.10153 L 565.61277,175.10153 L 589.89848,206.5301 L 596.32705,201.5301 L 574.89848,170.10153 z"
       style="fill:#008000;fill-rule:evenodd;stroke:none;stroke-width:1px;stroke-linecap:butt;stroke-linejoin:miter;stroke-opacity:1" />
    <path
       sodipodi:nodetypes="cccccccccccccc"
       id="path3221"
       d="M 551.86276,270.81581 L 525.96991,250.45868 L 531.32705,243.31582 L 541.32705,247.60153 L 537.04134,238.31581 L 540.96991,233.31582 L 547.04134,241.17296 L 543.85598,229.67546 L 547.81787,224.2285 L 555.73528,231.19065 L 551.15043,220.64531 L 557.52501,213.72334 L 573.46991,236.88725 L 551.86276,270.81581 z"
       style="fill:#000000;fill-rule:evenodd;stroke:none;stroke-width:1px;stroke-linecap:butt;stroke-linejoin:miter;stroke-opacity:1" />
    <path
       sodipodi:nodetypes="ccccccc"
       id="path3223"
       d="M 545.96991,260.81582 L 555.4342,264.74439 L 557.04134,274.0301 L 575.61277,256.17296 L 568.46991,249.74439 L 563.82705,233.67296 L 545.96991,260.81582 z"
       style="opacity:0.20085473;fill:#800080;fill-rule:evenodd;stroke:none;stroke-width:1px;stroke-linecap:butt;stroke-linejoin:miter;stroke-opacity:1" />
    <path
       id="path3225"
       d="M 499.89848,418.67296 L 398.46991,434.38724 L 478.46991,442.95867 L 499.89848,418.67296 z"
       style="opacity:0.14957263;fill:#800080;fill-rule:evenodd;stroke:none;stroke-width:1px;stroke-linecap:butt;stroke-linejoin:miter;stroke-opacity:1" />
    <path
       style="opacity:0.03225804;fill:#000000;fill-rule:evenodd;stroke:#000000;stroke-width:1px;stroke-linecap:butt;stroke-linejoin:miter;stroke-opacity:1"
       d="M 206.32705,488.67296 L 294.18419,445.10153 L 329.1842,410.81581 L 352.75562,400.10153 L 369.1842,385.81581 L 371.32706,396.5301 L 358.46991,410.81582 L 367.04134,436.5301 L 313.46991,463.67296 L 268.46991,495.81582 L 206.32705,488.67296 z"
       id="path3233"
       sodipodi:nodetypes="ccccccccccc" />
    <path
       sodipodi:nodetypes="ccccccccccc"
       id="path3229"
       d="M 208.46991,486.5301 L 296.32705,442.95867 L 331.32706,408.67295 L 354.89848,397.95867 L 371.32706,383.67295 L 373.46992,394.38724 L 360.61277,408.67296 L 369.1842,434.38724 L 315.61277,461.5301 L 270.61277,493.67296 L 208.46991,486.5301 z"
       style="fill:#000000;fill-rule:evenodd;stroke:#000000;stroke-width:1px;stroke-linecap:butt;stroke-linejoin:miter;stroke-opacity:1" />
    <path
       id="path3231"
       d="M 309.18419,433.67296 L 340.61277,413.67296 L 352.04134,408.67296 L 354.18419,400.10153 L 332.75562,407.24439 L 309.18419,433.67296 z"
       style="fill:#800080;fill-rule:evenodd;stroke:#000000;stroke-width:1px;stroke-linecap:butt;stroke-linejoin:miter;stroke-opacity:1" />
    <path
       style="opacity:0.2692308;fill:#800080;fill-rule:evenodd;stroke:#000000;stroke-width:1px;stroke-linecap:butt;stroke-linejoin:miter;stroke-opacity:1"
       d="M 210.61276,485.81581 L 298.46991,442.24438 L 333.46992,407.95866 L 357.04134,397.24438 L 371.14849,385.45866 L 373.11278,395.10152 L 362.75563,407.95867 L 369.89849,417.95866 L 210.61276,485.81581 z"
       id="path3235"
       sodipodi:nodetypes="ccccccccc" />
    <path
       id="path3237"
       d="M 482.75562,250.10153 L 418.46991,301.5301 L 331.32705,377.24439 L 332.75562,394.38724 L 374.18419,377.24439 L 411.32705,350.10153 L 425.61277,357.24439 L 517.04134,267.24439 L 482.75562,250.10153 z"
       style="opacity:0.35483871;fill:#000000;fill-rule:evenodd;stroke:#000000;stroke-width:1px;stroke-linecap:butt;stroke-linejoin:miter;stroke-opacity:1" />
    <path
       sodipodi:nodetypes="ccccscccc"
       id="path2383"
       d="M 112.72846,26.935129 L 144.76947,26.261699 L 144.92271,73.6481 L 171.43501,73.39619 C 171.43501,73.39619 174.24001,85.580819 170.86862,85.855825 C 167.63253,86.11981 135.07704,86.121853 135.07704,86.121853 L 135.07937,38.121154 L 112.65966,38.121154 L 112.72846,26.935129 z"
       style="fill:#00ffff;fill-rule:evenodd;stroke:none;stroke-width:1.3312062px;stroke-linecap:butt;stroke-linejoin:miter;stroke-opacity:1" />
    <path
       sodipodi:nodetypes="ccccccccc"
       id="path2385"
       d="M 126.70943,58.163812 L 112.93532,66.058956 L 112.98774,79.198426 L 127.9185,81.638806 L 127.98263,79.329576 L 121.4682,76.829576 L 121.10798,68.097216 L 126.83549,60.210942 L 126.70943,58.163812 z"
       style="fill:#00ffff;fill-rule:evenodd;stroke:none;stroke-width:1.80328798px;stroke-linecap:butt;stroke-linejoin:miter;stroke-opacity:1" />
    <path
       sodipodi:nodetypes="ccccccccccccscc"
       id="path2387"
       d="M 270.97255,9.5241289 L 271.20508,31.909929 L 253.63262,32.261989 L 242.73323,44.388849 L 245.21037,58.536849 L 260.07317,75.211289 L 282.07411,75.112259 L 281.87194,78.748289 L 259.78017,78.954149 L 241.97517,59.654259 L 238.89125,43.282379 L 252.35872,28.221269 C 259.66485,28.327299 264.35723,32.032909 267.47769,28.588789 C 270.78282,24.940869 268.13623,16.670579 267.5552,9.3732389 L 270.97255,9.5241289 z"
       style="fill:#00ffff;fill-rule:evenodd;stroke:none;stroke-width:0.82473832px;stroke-linecap:butt;stroke-linejoin:miter;stroke-opacity:1" />
    <path
       sodipodi:nodetypes="ccccccccccccccccc"
       id="path2389"
       d="M 279.02185,56.157939 L 279.02185,49.100819 L 271.77194,49.135719 L 272.17488,67.052349 L 279.12258,66.778529 L 279.02185,62.573509 L 297.05749,62.690269 L 297.20915,79.586819 L 286.80202,85.669551 L 278.01338,88.702827 L 264.52091,83.185184 L 262.62793,86.631885 L 277.63254,92.405896 L 290.6921,88.556555 L 305.41885,80.857876 L 305.29152,57.045079 L 279.02185,56.157939 z"
       style="fill:#00ffff;fill-rule:evenodd;stroke:none;stroke-width:0.49212551px;stroke-linecap:butt;stroke-linejoin:miter;stroke-opacity:1" />
    <path
       sodipodi:nodetypes="ccccccccccc"
       id="path2391"
       d="M 463.43119,41.572979 L 463.25736,33.157239 L 466.49091,33.332719 L 466.47729,55.707089 L 463.68085,55.639199 L 463.6408,46.569149 L 457.09321,46.281709 L 457.34073,74.057009 L 453.37783,74.063169 L 453.34673,41.489209 L 463.43119,41.572979 z"
       style="fill:#00ffff;fill-rule:evenodd;stroke:none;stroke-width:0.37391347px;stroke-linecap:butt;stroke-linejoin:miter;stroke-opacity:1" />
    <path
       sodipodi:nodetypes="ccccccccccccccccc"
       id="path2393"
       d="M 463.80141,10.993679 L 463.79247,20.631479 L 485.7234,34.274459 L 486.16459,51.587009 L 471.29903,60.878749 L 471.29903,69.119009 L 463.43119,68.883569 L 463.42712,72.338059 L 471.29903,72.650549 L 471.22107,79.204849 L 497.74373,96.665033 L 502.77042,92.662617 L 473.48455,74.534039 L 473.38469,61.960399 L 491.84286,51.696739 L 491.85219,29.198889 L 463.80141,10.993679 z"
       style="fill:#00ffff;fill-rule:evenodd;stroke:none;stroke-width:0.37391347px;stroke-linecap:butt;stroke-linejoin:miter;stroke-opacity:1" />
    <path
       id="path2395"
       d="M 692.58706,23.799919 L 692.58706,12.273459 L 703.50686,14.093429 L 702.29356,99.025187 L 688.94716,95.99191 L 690.76716,39.572959 L 668.32088,37.146329 L 667.10757,25.013229 L 692.58706,23.799919 z"
       style="fill:#00ffff;fill-rule:evenodd;stroke:none;stroke-width:1px;stroke-linecap:butt;stroke-linejoin:miter;stroke-opacity:1" />
    <path
       id="path2397"
       d="M 722.31326,16.520049 L 722.91986,79.005559 L 733.83966,75.972279 L 733.83966,47.459479 L 744.15276,46.246169 L 744.15276,32.899749 L 733.23296,34.113059 L 733.23296,17.126709 L 722.31326,16.520049 z"
       style="fill:#00ffff;fill-rule:evenodd;stroke:none;stroke-width:1px;stroke-linecap:butt;stroke-linejoin:miter;stroke-opacity:1" />
    <path
       sodipodi:nodetypes="ccccccccccccccccccccccc"
       id="path2401"
       d="M 533.63269,56.590989 L 533.31254,23.341389 L 526.03514,23.450049 L 525.60696,34.993689 L 507.32402,62.440759 L 515.2322,86.935021 L 534.92832,94.203243 L 557.41037,87.476956 L 567.24256,62.673799 L 546.58601,35.080939 L 546.37231,23.104039 L 538.77555,23.112619 L 540.48431,56.473729 L 547.54803,56.363629 L 547.22947,41.489769 L 562.53739,62.567989 L 555.26949,84.497017 L 535.57097,90.484022 L 517.1594,83.643351 L 512.23496,62.992679 L 525.17877,42.261899 L 525.60775,56.586699 L 533.63269,56.590989 z"
       style="fill:#00ffff;fill-rule:evenodd;stroke:none;stroke-width:0.7052753px;stroke-linecap:butt;stroke-linejoin:miter;stroke-opacity:1" />
    <path
       sodipodi:nodetypes="ccccccccccccccccccccc"
       id="path2403"
       d="M 345.60783,14.659919 L 346.40245,18.240689 L 323.75571,30.415299 L 323.75571,44.380279 L 351.62518,54.351679 L 351.96481,65.506799 L 365.18498,65.810129 L 365.07608,68.371419 L 352.36212,68.729499 L 351.96481,74.458719 L 327.72882,90.572171 L 325.97299,86.85674 L 346.00514,71.952189 L 344.89226,56.125059 L 315.80949,46.170669 L 315.80949,39.725289 L 306.02837,39.864369 L 305.50078,34.219479 L 316.18542,34.328969 L 316.48875,27.908759 L 345.60783,14.659919 z"
       style="fill:#00ffff;fill-rule:evenodd;stroke:none;stroke-width:0.62174356px;stroke-linecap:butt;stroke-linejoin:miter;stroke-opacity:1" />
    <path
       sodipodi:nodetypes="ccccccccc"
       id="path2405"
       d="M 370.25601,26.066509 L 369.95268,36.320769 L 363.17948,36.124239 L 363.12472,20.351319 L 403.44162,20.472019 L 403.06349,86.142005 L 399.18346,86.182237 L 398.40201,25.849869 L 370.25601,26.066509 z"
       style="fill:#00ffff;fill-rule:evenodd;stroke:none;stroke-width:0.54338843px;stroke-linecap:butt;stroke-linejoin:miter;stroke-opacity:1" />
    <path
       sodipodi:nodetypes="ccccccc"
       id="path2407"
       d="M 404.99502,12.452479 L 405.03718,29.933939 L 437.61279,30.181549 L 437.49275,23.010069 L 412.00626,22.863039 L 412.04945,12.624259 L 404.99502,12.452479 z"
       style="fill:#00ffff;fill-rule:evenodd;stroke:none;stroke-width:0.54338843px;stroke-linecap:butt;stroke-linejoin:miter;stroke-opacity:1" />
    <path
       sodipodi:nodetypes="ccccccccccccccccccccccc"
       style="fill:#00ffff;fill-rule:evenodd;stroke:none;stroke-width:0.37824497px;stroke-linecap:butt;stroke-linejoin:miter;stroke-opacity:1"
       d="M 591.19718,87.592123 L 586.16072,87.613639 L 585.9253,32.560029 L 580.29898,32.409729 L 580.28982,27.346469 L 591.01539,27.346469 L 591.12263,32.131059 L 598.95789,32.377639 L 599.88123,47.942299 L 617.73842,74.558199 L 617.73842,57.179659 L 619.26343,57.216209 L 619.19273,50.807519 L 622.28313,50.807519 L 623.67206,87.849672 L 620.46525,87.881745 L 620.10167,81.799266 L 616.5495,81.547543 L 616.46589,78.323549 L 599.56472,54.240149 L 599.97932,77.486719 L 591.00188,77.468319 L 591.19718,87.592123 z"
       id="path2409" />
    <path
       id="path2433"
       d="M 189.25214,85.447271 L 184.21567,85.468787 L 183.98026,30.415179 L 178.35393,30.264879 L 178.34478,25.201619 L 189.07035,25.201619 L 189.17759,29.986209 L 197.01284,30.232789 L 197.93618,45.797449 L 215.79337,72.413349 L 215.79337,55.034799 L 217.31838,55.071359 L 217.24768,48.662669 L 220.33809,48.662669 L 221.72702,85.704821 L 218.52021,85.736893 L 218.15662,79.654409 L 214.60446,79.402689 L 214.52084,76.178699 L 197.61968,52.095299 L 198.03427,75.341869 L 189.05684,75.323469 L 189.25214,85.447271 z"
       style="fill:#00ffff;fill-rule:evenodd;stroke:none;stroke-width:0.37824497px;stroke-linecap:butt;stroke-linejoin:miter;stroke-opacity:1"
       sodipodi:nodetypes="ccccccccccccccccccccccc" />
    <path
       style="fill:#000000;fill-rule:evenodd;stroke:none;stroke-width:1.3312062px;stroke-linecap:butt;stroke-linejoin:miter;stroke-opacity:1"
       d="M 111.87048,33.737847 L 143.91151,33.17398 L 144.06477,72.851348 L 170.57705,72.640421 C 170.57705,72.640421 173.38209,82.842794 170.01066,83.073066 C 166.77461,83.294097 134.2191,83.295806 134.2191,83.295806 L 134.22142,43.104099 L 111.8017,43.104099 L 111.87048,33.737847 z"
       id="path3246"
       sodipodi:nodetypes="ccccscccc" />
    <path
       style="fill:#000000;fill-rule:evenodd;stroke:none;stroke-width:1.80328798px;stroke-linecap:butt;stroke-linejoin:miter;stroke-opacity:1"
       d="M 126.20861,55.035597 L 112.07738,59.698705 L 112.12982,82.843442 L 127.23912,84.256282 L 127.30327,80.188637 L 120.61026,78.67078 L 120.25004,63.289018 L 126.33471,58.641541 L 126.20861,55.035597 z"
       id="path3248"
       sodipodi:nodetypes="ccccccccc" />
    <path
       style="fill:#000000;fill-rule:evenodd;stroke:none;stroke-width:0.82473832px;stroke-linecap:butt;stroke-linejoin:miter;stroke-opacity:1"
       d="M 270.11461,17.221039 L 270.34715,35.965019 L 252.77468,36.259809 L 241.87529,46.413809 L 244.35243,58.260159 L 259.21523,72.221919 L 281.21617,72.138999 L 281.014,75.183499 L 258.92223,75.355879 L 241.11723,59.195779 L 238.03331,45.487349 L 251.50078,32.876449 C 258.8069,32.965229 263.49929,36.067999 266.61976,33.184179 C 269.92488,30.129719 267.27829,23.204879 266.69727,17.094709 L 270.11461,17.221039 z"
       id="path3250"
       sodipodi:nodetypes="ccccccccccccscc" />
    <path
       style="fill:#000000;fill-rule:evenodd;stroke:none;stroke-width:0.49212551px;stroke-linecap:butt;stroke-linejoin:miter;stroke-opacity:1"
       d="M 278.16391,56.268259 L 278.16391,50.359219 L 270.914,50.388439 L 271.31694,65.390309 L 278.26465,65.161039 L 278.16391,61.640109 L 296.19955,61.737879 L 296.35121,75.885619 L 285.94408,80.978782 L 277.15544,83.518594 L 263.66297,78.898589 L 261.76999,81.78456 L 276.7746,86.61923 L 289.83416,83.396119 L 304.56091,76.949889 L 304.43358,57.011069 L 278.16391,56.268259 z"
       id="path3252"
       sodipodi:nodetypes="ccccccccccccccccc" />
    <path
       style="fill:#000000;fill-rule:evenodd;stroke:none;stroke-width:0.37391347px;stroke-linecap:butt;stroke-linejoin:miter;stroke-opacity:1"
       d="M 462.57325,44.056049 L 462.39942,37.009409 L 465.63297,37.156349 L 465.61935,55.890749 L 462.82291,55.833909 L 462.78286,48.239419 L 456.23526,47.998729 L 456.48279,71.255429 L 452.5199,71.260579 L 452.48879,43.985899 L 462.57325,44.056049 z"
       id="path3254"
       sodipodi:nodetypes="ccccccccccc" />
    <path
       style="fill:#000000;fill-rule:evenodd;stroke:none;stroke-width:0.37391347px;stroke-linecap:butt;stroke-linejoin:miter;stroke-opacity:1"
       d="M 462.94347,18.451519 L 462.93453,26.521399 L 484.86546,37.944879 L 485.30665,52.440939 L 470.44109,60.221059 L 470.44109,67.120759 L 462.57325,66.923629 L 462.56918,69.816119 L 470.44109,70.077779 L 470.36313,75.565789 L 496.88579,90.185472 L 501.91248,86.834186 L 472.6266,71.654849 L 472.52675,61.126749 L 490.98492,52.532819 L 490.99425,33.695029 L 462.94347,18.451519 z"
       id="path3256"
       sodipodi:nodetypes="ccccccccccccccccc" />
    <path
       style="fill:#000000;fill-rule:evenodd;stroke:none;stroke-width:1px;stroke-linecap:butt;stroke-linejoin:miter;stroke-opacity:1"
       d="M 691.72916,29.174379 L 691.72916,19.523099 L 702.64896,21.046989 L 701.43566,92.161664 L 688.08926,89.621856 L 689.90926,42.381389 L 667.46292,40.349539 L 666.24963,30.190299 L 691.72916,29.174379 z"
       id="path3258" />
    <path
       style="fill:#000000;fill-rule:evenodd;stroke:none;stroke-width:1px;stroke-linecap:butt;stroke-linejoin:miter;stroke-opacity:1"
       d="M 721.45526,23.078839 L 722.06186,75.398919 L 732.98176,72.859109 L 732.98176,48.984899 L 743.29486,47.968969 L 743.29486,36.793809 L 732.37506,37.809739 L 732.37506,23.586799 L 721.45526,23.078839 z"
       id="path3260" />
    <path
       style="fill:#000000;fill-rule:evenodd;stroke:none;stroke-width:0.7052753px;stroke-linecap:butt;stroke-linejoin:miter;stroke-opacity:1"
       d="M 532.77475,56.630849 L 532.4546,28.790449 L 525.1772,28.881439 L 524.74902,38.547109 L 506.46608,61.528949 L 514.37426,82.038382 L 534.07038,88.124176 L 556.55243,82.492154 L 566.38462,61.724089 L 545.72807,38.620159 L 545.51438,28.591709 L 537.91761,28.598899 L 539.62637,56.532669 L 546.69009,56.440489 L 546.37153,43.986369 L 561.67945,61.635489 L 554.41155,79.996999 L 534.71303,85.010015 L 516.30146,79.282219 L 511.37702,61.991089 L 524.32083,44.632889 L 524.74981,56.627259 L 532.77475,56.630849 z"
       id="path3262"
       sodipodi:nodetypes="ccccccccccccccccccccccc" />
    <path
       style="fill:#000000;fill-rule:evenodd;stroke:none;stroke-width:0.62174356px;stroke-linecap:butt;stroke-linejoin:miter;stroke-opacity:1"
       d="M 344.74989,21.521329 L 345.54451,24.519559 L 322.89777,34.713539 L 322.89777,46.406639 L 350.76724,54.755849 L 351.10687,64.096209 L 364.32705,64.350189 L 364.21814,66.494789 L 351.50418,66.794609 L 351.10687,71.591789 L 326.87088,85.083823 L 325.11505,81.972834 L 345.1472,69.493019 L 344.03432,56.240729 L 314.95155,47.905759 L 314.95155,42.508939 L 305.17043,42.625399 L 304.64283,37.898839 L 315.32748,37.990529 L 315.63081,32.614779 L 344.74989,21.521329 z"
       id="path2479"
       sodipodi:nodetypes="ccccccccccccccccccccc" />
    <path
       style="fill:#000000;fill-rule:evenodd;stroke:none;stroke-width:0.54338843px;stroke-linecap:butt;stroke-linejoin:miter;stroke-opacity:1"
       d="M 369.39807,31.072239 L 369.09474,39.658289 L 362.32154,39.493729 L 362.26678,26.286819 L 402.58368,26.387879 L 402.20555,81.374377 L 398.32552,81.408063 L 397.54407,30.890839 L 369.39807,31.072239 z"
       id="path2481"
       sodipodi:nodetypes="ccccccccc" />
    <path
       style="fill:#000000;fill-rule:evenodd;stroke:none;stroke-width:0.54338843px;stroke-linecap:butt;stroke-linejoin:miter;stroke-opacity:1"
       d="M 404.13708,19.672999 L 404.17924,34.310499 L 436.75485,34.517819 L 436.63481,28.513029 L 411.14832,28.389919 L 411.19151,19.816829 L 404.13708,19.672999 z"
       id="path2483"
       sodipodi:nodetypes="ccccccc" />
    <path
       id="path2485"
       d="M 590.33924,82.588583 L 585.30278,82.606597 L 585.06736,36.509369 L 579.44104,36.383509 L 579.43188,32.143969 L 590.15745,32.143969 L 590.26469,36.150179 L 598.09995,36.356639 L 599.02329,49.389179 L 616.88048,71.675079 L 616.88048,57.123749 L 618.40548,57.154369 L 618.3348,51.788269 L 621.42519,51.788269 L 622.81413,82.804233 L 619.6073,82.831089 L 619.24372,77.738139 L 615.69156,77.527359 L 615.60795,74.827869 L 598.70678,54.662459 L 599.12138,74.127179 L 590.14395,74.111769 L 590.33924,82.588583 z"
       style="fill:#000000;fill-rule:evenodd;stroke:none;stroke-width:0.37824497px;stroke-linecap:butt;stroke-linejoin:miter;stroke-opacity:1"
       sodipodi:nodetypes="ccccccccccccccccccccccc" />
    <path
       sodipodi:nodetypes="ccccccccccccccccccccccc"
       style="fill:#000000;fill-rule:evenodd;stroke:none;stroke-width:0.37824497px;stroke-linecap:butt;stroke-linejoin:miter;stroke-opacity:1"
       d="M 188.3942,80.792667 L 183.35771,80.810681 L 183.12234,34.713449 L 177.49602,34.587589 L 177.48684,30.348049 L 188.21239,30.348049 L 188.31963,34.354259 L 196.1549,34.560719 L 197.07824,47.593259 L 214.93544,69.879159 L 214.93544,55.327839 L 216.46044,55.358449 L 216.38974,49.992349 L 219.48014,49.992349 L 220.86908,81.008317 L 217.66226,81.035171 L 217.29868,75.942219 L 213.74652,75.731449 L 213.6629,73.031949 L 196.76173,52.866549 L 197.17633,72.331259 L 188.1989,72.315849 L 188.3942,80.792667 z"
       id="path2487" />
    <path
       id="path3592"
       d="M 427.14286,375 L 398.57143,429.28571 L 387.85714,377.85714 L 405.71429,365.71429 L 427.14286,375 z"
       style="fill:none;fill-rule:evenodd;stroke:#000000;stroke-width:1px;stroke-linecap:butt;stroke-linejoin:miter;stroke-opacity:1" />
    <path
       sodipodi:nodetypes="ccccccccccccsccccccccsccccccc"
       style="opacity:0.1837607;fill:#000000;fill-rule:evenodd;stroke:none;stroke-width:1px;stroke-linecap:butt;stroke-linejoin:miter;stroke-opacity:1"
       d="M 65.938208,409.43396 L 57.212843,307.68881 L 121.45541,232.76304 L 120.43326,120.17553 L 178.56131,60.26994 L 320.24843,41.442464 L 418.3395,8.9222853 L 487.36657,87.655359 L 632.6867,106.48281 L 627.23719,156.11889 L 703.53025,228.0056 L 692.63123,272.5069 C 692.63123,272.5069 752.57579,352.95155 743.49328,356.37472 C 734.41078,359.79791 781.1657,398.57144 781.1657,398.57144 L 762.34185,392.14286 L 708.97976,334.12408 L 603.62267,245.12149 L 599.98966,204.04335 L 563.65963,149.27253 L 569.10915,130.44507 L 362.02796,51.711995 C 362.02796,51.711995 305.71642,60.26994 296.6339,67.116284 C 287.5514,73.962648 218.52433,84.232173 218.52433,84.232173 L 218.52433,121.88712 L 167.6623,135.57982 L 163.39507,144.32638 L 93.185733,262.23737 L 58.351985,315.87613 L 65.938208,409.43396 z"
       id="path2444" />
    <path
       sodipodi:nodetypes="cccccc"
       id="path2446"
       d="M 373.57143,439.28571 L 397.67857,434.64286 L 335,488.39286 L 326.42857,457.14286 L 335,455.71429 L 373.57143,439.28571 z"
       style="opacity:0.05172412;fill:#ff00ff;fill-rule:evenodd;stroke:#000000;stroke-width:1px;stroke-linecap:butt;stroke-linejoin:miter;stroke-opacity:1" />
    <path
       id="path3220"
       d="M 177.14286,474.28571 L 174.28571,452.85714 L 217.14286,398.57143 L 174.28571,307.14286 L 224.28571,280 L 282.85714,220 L 302.85714,200 C 302.85714,200 280,240 270,238.57143 C 260,237.14286 237.14286,260 237.14286,260 L 228.57143,285.71429 L 231.42857,328.57143 L 184.28571,374.28571 L 187.14286,431.42857 L 191.42857,472.85714 L 177.14286,474.28571 z"
       style="opacity:0.25;fill:#000000;fill-rule:evenodd;stroke:#000000;stroke-width:1px;stroke-linecap:butt;stroke-linejoin:miter;stroke-opacity:1" />
    <path
       id="path3222"
       d="M 796.33576,94.691816 L 747.14286,104.28571 L 718.57143,110 L 692.85714,130 L 691.42857,158.57143 L 734.28571,187.14286 L 767.14286,227.14286 L 777.14286,281.42857 L 775.71429,328.57143 L 780,287.14286 L 768.57143,267.14286 L 767.14286,191.42857 L 731.42857,147.14286 L 692.85714,115.71429 L 720,104.28571 L 780,104.28571 L 796.33576,94.691816 z"
       style="opacity:0.56896548;fill:#2b1100;fill-rule:evenodd;stroke:none;stroke-width:1px;stroke-linecap:butt;stroke-linejoin:miter;stroke-opacity:1"
       sodipodi:nodetypes="ccccccccccccccccc" />
    <path
       id="path3224"
       d="M 483.57143,243.57143 L 405.35714,306.42857 L 398.92857,252.85714 L 441.42857,233.57143 L 483.57143,243.57143 z"
       style="opacity:0.1896552;fill:#000000;fill-rule:evenodd;stroke:none;stroke-width:1px;stroke-linecap:butt;stroke-linejoin:miter;stroke-opacity:1" />
    <path
       style="fill:#d40000;fill-rule:evenodd;stroke:none;stroke-width:1.09636891px;stroke-linecap:butt;stroke-linejoin:miter;stroke-opacity:1"
       d="M 414.60633,185.11832 L 395.32741,188.83116 L 393.98221,206.55226 L 398.04467,217.65323 L 395.36342,220.11833 L 388.14565,229.22682 L 400.25192,232.93252 L 390.44318,241.12622 L 389.25597,252.93253 L 402.52689,245.67688 L 410.86415,227.29699 L 414.64376,214.33154 L 416.73431,194.96674 L 414.60633,185.11832 z"
       id="path5831"
       sodipodi:nodetypes="cccccccccccccc" />
    <path
       style="fill:#d40000;fill-rule:evenodd;stroke:none;stroke-width:1.09636891px;stroke-linecap:butt;stroke-linejoin:miter;stroke-opacity:1"
       d="M 391.3972,175.38433 L 385.2198,173.82565 L 387.93364,188.21085 L 387.77493,215.04199 L 388.64896,221.86008 L 394.99763,217.22337 L 395.73586,206.17633 L 395.38384,186.71873 L 415.51137,183.87413 L 411.36815,163.20332 L 391.3972,175.38433 z"
       id="path5850"
       sodipodi:nodetypes="ccccccccccc" />
    <path
       style="fill:#800000;fill-rule:evenodd;stroke:none;stroke-width:1px;stroke-linecap:butt;stroke-linejoin:miter;stroke-opacity:1"
       d="M 395.7535,191.34673 L 396.90341,200.92116 L 405.74052,206.88346 L 412.90952,201.62142 L 413.57626,187.18732 L 395.7535,191.34673 z"
       id="path6361" />
    <path
       style="fill:#aa0000;fill-rule:evenodd;stroke:none;stroke-width:1px;stroke-linecap:butt;stroke-linejoin:miter;stroke-opacity:1"
       d="M 361.76889,199.21989 L 371.9602,205.56574 L 380.62395,202.22448 L 381.02325,214.02506 L 374.95812,227.08204 L 362.53474,210.673 L 361.76889,199.21989 z"
       id="path6363"
       sodipodi:nodetypes="ccccccc" />
  </g>
</svg>
