<?xml version="1.0" encoding="UTF-8" standalone="no"?>
<!-- Created with Inkscape (http://www.inkscape.org/) -->
<svg
   xmlns:dc="http://purl.org/dc/elements/1.1/"
   xmlns:cc="http://creativecommons.org/ns#"
   xmlns:rdf="http://www.w3.org/1999/02/22-rdf-syntax-ns#"
   xmlns:svg="http://www.w3.org/2000/svg"
   xmlns="http://www.w3.org/2000/svg"
   xmlns:sodipodi="http://sodipodi.sourceforge.net/DTD/sodipodi-0.dtd"
   xmlns:inkscape="http://www.inkscape.org/namespaces/inkscape"
   width="800"
   height="480"
   id="svg2"
   sodipodi:version="0.32"
   inkscape:version="0.46"
   sodipodi:docname="chapter1.svg"
   inkscape:output_extension="org.inkscape.output.svg.inkscape"
   version="1.0">
  <defs
     id="defs4">
    <inkscape:perspective
       sodipodi:type="inkscape:persp3d"
       inkscape:vp_x="0 : 526.18109 : 1"
       inkscape:vp_y="0 : 1000 : 0"
       inkscape:vp_z="744.09448 : 526.18109 : 1"
       inkscape:persp3d-origin="372.04724 : 350.78739 : 1"
       id="perspective10" />
    <inkscape:perspective
       id="perspective2390"
       inkscape:persp3d-origin="372.04724 : 350.78739 : 1"
       inkscape:vp_z="744.09448 : 526.18109 : 1"
       inkscape:vp_y="0 : 1000 : 0"
       inkscape:vp_x="0 : 526.18109 : 1"
       sodipodi:type="inkscape:persp3d" />
    <inkscape:perspective
       id="perspective2403"
       inkscape:persp3d-origin="372.04724 : 350.78739 : 1"
       inkscape:vp_z="744.09448 : 526.18109 : 1"
       inkscape:vp_y="0 : 1000 : 0"
       inkscape:vp_x="0 : 526.18109 : 1"
       sodipodi:type="inkscape:persp3d" />
  </defs>
  <sodipodi:namedview
     id="base"
     pagecolor="#ffffff"
     bordercolor="#666666"
     borderopacity="1.0"
     gridtolerance="10000"
     guidetolerance="10"
     objecttolerance="10"
     inkscape:pageopacity="0.0"
     inkscape:pageshadow="2"
     inkscape:zoom="0.98994949"
     inkscape:cx="435.08215"
     inkscape:cy="238.00862"
     inkscape:document-units="px"
     inkscape:current-layer="layer1"
     showgrid="false"
     inkscape:window-width="1280"
     inkscape:window-height="729"
     inkscape:window-x="0"
     inkscape:window-y="25" />
  <metadata
     id="metadata7">
    <rdf:RDF>
      <cc:Work
         rdf:about="">
        <dc:format>image/svg+xml</dc:format>
        <dc:type
           rdf:resource="http://purl.org/dc/dcmitype/StillImage" />
      </cc:Work>
    </rdf:RDF>
  </metadata>
  <g
     inkscape:label="Layer 1"
     inkscape:groupmode="layer"
     id="layer1">
    <rect
       style="opacity:1;fill:#552200;fill-opacity:1;stroke:none"
       id="rect3215"
       width="799.90295"
       height="254.55605"
       x="0.34469542"
       y="227.91751" />
    <rect
       style="opacity:1;fill:#2b1100;fill-opacity:1;stroke:none"
       id="rect3217"
       width="803.37573"
       height="164.92627"
       x="-3.1281035"
       y="65.743187" />
    <rect
       style="opacity:1;fill:#800000;fill-opacity:1;stroke:none"
       id="rect3219"
       width="804.53333"
       height="59.167088"
       x="-4.2857194"
       y="-0.49497822" />
    <path
       style="fill:#483737;fill-rule:evenodd;stroke:none;stroke-width:1px;stroke-linecap:butt;stroke-linejoin:miter;stroke-opacity:1"
       d="M 125.98138,123.46911 L 129.99611,245.80524 L -3.1281119,344.8757 L -2.9495405,196.46936 L 125.98138,123.46911 z"
       id="path3247"
       sodipodi:nodetypes="ccccc" />
    <path
       style="fill:#782121;fill-rule:evenodd;stroke:none;stroke-width:1px;stroke-linecap:butt;stroke-linejoin:miter;stroke-opacity:1"
       d="M 121.8929,193.51803 L 220.28907,124.71911 L 379.69908,132.23809 L 324.55551,229.76565 L 121.8929,193.51803 z"
       id="path3199"
       sodipodi:nodetypes="ccccc" />
    <path
       style="fill:#550000;fill-rule:evenodd;stroke:none;stroke-width:1px;stroke-linecap:butt;stroke-linejoin:miter;stroke-opacity:1"
       d="M 185.64327,130.38996 L 184.40341,154.99064 L 348.93033,165.2149 L 353.72937,116.82906 L 306.9106,113.07217 L 302.47881,138.47889 L 185.64327,130.38996 z"
       id="path3191"
       sodipodi:nodetypes="ccccccc" />
    <path
       style="fill:#c83737;fill-rule:evenodd;stroke:none;stroke-width:1px;stroke-linecap:butt;stroke-linejoin:miter;stroke-opacity:1"
       d="M 185.50284,130.32081 L 215.12099,118.50695 L 305.27351,122.30101 L 303.43779,137.50592 L 185.50284,130.32081 z"
       id="path3193"
       sodipodi:nodetypes="ccccc" />
    <path
       style="fill:#800000;fill-rule:evenodd;stroke:none;stroke-width:1px;stroke-linecap:butt;stroke-linejoin:miter;stroke-opacity:1"
       d="M 353.73003,116.98496 L 348.78288,165.99846 L 369.91406,131.53239 L 369.14724,102.44317 L 353.73003,116.98496 z"
       id="path3197"
       sodipodi:nodetypes="ccccc" />
    <path
       style="fill:#c83737;fill-rule:evenodd;stroke:none;stroke-width:1px;stroke-linecap:butt;stroke-linejoin:miter;stroke-opacity:1"
       d="M 306.77016,112.9124 L 321.00044,101.18918 L 369.1984,102.46736 L 353.68213,116.86625 L 306.77016,112.9124 z"
       id="path3195"
       sodipodi:nodetypes="ccccc" />
    <path
       style="fill:#333333;fill-rule:evenodd;stroke:none;stroke-width:1px;stroke-linecap:butt;stroke-linejoin:miter;stroke-opacity:1"
       d="M 333.1723,471.5349 L 324.63164,229.73408 L 121.62997,192.11049 L 94.110457,437.06627 L 333.1723,471.5349 z"
       id="path3203"
       sodipodi:nodetypes="ccccc" />
    <path
       sodipodi:nodetypes="ccccc"
       id="path3180"
       d="M 333.1723,471.5349 L 324.63164,229.73408 L 121.62997,192.11049 L 94.110457,437.06627 L 333.1723,471.5349 z"
       style="fill:#000000;fill-rule:evenodd;stroke:none;stroke-width:1px;stroke-linecap:butt;stroke-linejoin:miter;stroke-opacity:1;opacity:0.36327585000000001" />
    <path
       style="opacity:1;fill:#6c5d53;fill-rule:evenodd;stroke:none;stroke-width:1px;stroke-linecap:butt;stroke-linejoin:miter;stroke-opacity:1"
       d="M 309.52991,252.30632 L 135.78412,483.84955 L 318.68523,485.22553 L 309.52991,252.30632 z"
       id="path2413"
       sodipodi:nodetypes="cccc" />
    <path
       style="fill:#6c5353;fill-rule:evenodd;stroke:none;stroke-width:1px;stroke-linecap:butt;stroke-linejoin:miter;stroke-opacity:1"
       d="M 324.63983,229.62989 L 332.83324,473.41167 L 374.25012,298.09242 L 379.70129,132.23036 L 324.63983,229.62989 z"
       id="path3201"
       sodipodi:nodetypes="ccccc" />
    <path
       style="opacity:1;fill:#550000;fill-rule:evenodd;stroke:none;stroke-width:0.66279262000000005px;stroke-linecap:butt;stroke-linejoin:miter;stroke-opacity:1"
       d="M 2.52328,288.56376 L 95.766522,214.63625 L 309.56104,252.52273 L 134.56749,485.38793 L 2.8424579,484.50199 L 2.52328,288.56376 z"
       id="path2409"
       sodipodi:nodetypes="cccccc" />
    <path
       style="fill:#552200;fill-rule:evenodd;stroke:none;stroke-width:1px;stroke-linecap:butt;stroke-linejoin:miter;stroke-opacity:1"
       d="M 0.28196749,375.77858 L 200.61606,215.60709 L 195.97943,284.33264 L 1.5022913,479.72162 L 0.28196749,375.77858 z"
       id="path3189"
       sodipodi:nodetypes="ccccc" />
    <path
       style="fill:#000000;fill-rule:evenodd;stroke:none;stroke-width:1px;stroke-linecap:butt;stroke-linejoin:miter;stroke-opacity:1;opacity:0.08000000000000000"
       d="M 0,210.28927 L 126.26907,148.66996 L 127.27922,192.10652 L -7.0710678,280.99995 L 0,210.28927 z"
       id="path4375" />
    <path
       style="fill:#c83737;fill-rule:evenodd;stroke:none;stroke-width:1px;stroke-linecap:butt;stroke-linejoin:miter;stroke-opacity:1"
       d="M 0.34469045,237.54937 L 72.116016,190.76609 L 200.60984,215.5337 L -0.05529589,375.90484 L 0.34469045,237.54937 z"
       id="path3187"
       sodipodi:nodetypes="ccccc" />
    <path
       style="fill:#483737;fill-rule:evenodd;stroke:none;stroke-width:1px;stroke-linecap:butt;stroke-linejoin:miter;stroke-opacity:1"
       d="M 382.35334,293.9645 L 390.92896,361.87508 L 401.73512,156.58724 L 387.47657,130.40332 L 382.35334,293.9645 z"
       id="path3207"
       sodipodi:nodetypes="ccccc" />
    <path
       style="fill:#782121;fill-rule:evenodd;stroke:none;stroke-width:1px;stroke-linecap:butt;stroke-linejoin:miter;stroke-opacity:1"
       d="M 387.41505,130.37563 L 401.77373,156.5669 L 605.07831,156.94843 L 577.51856,128.88755 L 387.41505,130.37563 z"
       id="path3209"
       sodipodi:nodetypes="ccccc" />
    <path
       style="fill:#483e37;fill-rule:evenodd;stroke:none;stroke-width:1px;stroke-linecap:butt;stroke-linejoin:miter;stroke-opacity:1"
       d="M 390.93605,361.72132 L 608.31841,360.41449 L 605.29328,156.8092 L 401.69532,156.46115 L 390.93605,361.72132 z"
       id="path3211"
       sodipodi:nodetypes="ccccc" />
    <path
       sodipodi:nodetypes="ccccc"
       id="path3178"
       d="M 390.93605,361.72132 L 608.31841,360.41449 L 605.29328,156.8092 L 401.69532,156.46115 L 390.93605,361.72132 z"
       style="fill:#000000;fill-rule:evenodd;stroke:none;stroke-width:1px;stroke-linecap:butt;stroke-linejoin:miter;stroke-opacity:1;opacity:0.41379310000000002" />
    <path
       style="opacity:0.28017240999999998;fill:#000000;fill-rule:evenodd;stroke:none;stroke-width:1.30378294000000006px;stroke-linecap:butt;stroke-linejoin:miter;stroke-opacity:1"
       d="M 391.00944,363.08781 L 362.79665,481.86842 L 482.70103,476.70404 L 439.37424,357.92343 L 391.00944,363.08781 z"
       id="path3190" />
    <path
       style="opacity:1;fill:#483737;fill-rule:evenodd;stroke:none;stroke-width:1px;stroke-linecap:butt;stroke-linejoin:miter;stroke-opacity:1"
       d="M 414.58547,184.27072 L 398.55977,391.65898 L 408.97819,482.47358 L 526.88904,481.83449 L 414.58547,184.27072 z"
       id="path2415"
       sodipodi:nodetypes="ccccc" />
    <path
       style="fill:#483737;fill-rule:evenodd;stroke:none;stroke-width:1px;stroke-linecap:butt;stroke-linejoin:miter;stroke-opacity:1"
       d="M 662.37815,142.71524 L 663.00729,289.66997 L 802.56283,413.67464 L 802.56283,248.55719 L 662.37815,142.71524 z"
       id="path3243"
       sodipodi:nodetypes="ccccc" />
    <path
       style="opacity:1;fill:#782121;fill-rule:evenodd;stroke:none;stroke-width:1px;stroke-linecap:butt;stroke-linejoin:miter;stroke-opacity:1"
       d="M 610.78404,184.9688 L 801.20667,351.51952 L 804.73765,482.73829 L 526.88905,484.35035 L 414.57758,184.26056 L 610.78404,184.9688 z"
       id="path2411"
       sodipodi:nodetypes="cccccc" />
    <path
       style="fill:#800000;fill-rule:evenodd;stroke:none;stroke-width:1px;stroke-linecap:butt;stroke-linejoin:miter;stroke-opacity:1"
       d="M 662.18875,142.75241 L 801.34192,248.80548 L 799.70482,147.61724 L 662.18875,142.75241 z"
       id="path3241" />
    <path
       style="fill:#800000;fill-rule:evenodd;stroke:none;stroke-width:1px;stroke-linecap:butt;stroke-linejoin:miter;stroke-opacity:1"
       d="M -3.2142841,196.9317 L 126.52331,123.34313 L -4.2857127,119.21519 L -3.2142841,196.9317 z"
       id="path3245"
       sodipodi:nodetypes="cccc" />
    <rect
       style="opacity:1;fill:#803300;fill-opacity:1;stroke:none"
       id="rect3319"
       width="806.84857"
       height="28.895554"
       x="-3.2504628"
       y="28.643843" />
    <rect
       style="opacity:1;fill:#d45500;fill-opacity:1;stroke:none"
       id="rect3321"
       width="804.53333"
       height="9.6318512"
       x="-3.3969328"
       y="47.990959" />
    <path
       style="fill:#000000;fill-rule:evenodd;stroke:none;stroke-width:1px;stroke-linecap:butt;stroke-linejoin:miter;stroke-opacity:1;opacity:0.49568965999999998;fill-opacity:1"
       d="M 184.22657,154.73088 L 158.97276,174.93393 L 289.28244,186.04561 L 273.75134,202.20805 L 321.22851,207.25881 L 349.38651,165.08494 L 184.22657,154.73088 z"
       id="path2406"
       sodipodi:nodetypes="ccccccc" />
    <rect
       y="37.990959"
       x="-3.3969328"
       height="9.6318512"
       width="804.53333"
       id="rect3182"
       style="opacity:0.52155172000000005;fill:#d45500;fill-opacity:1;stroke:none" />
    <rect
       y="14.358129"
       x="-3.2504628"
       height="28.895554"
       width="806.84857"
       id="rect3184"
       style="opacity:0.47413792999999999;fill:#803300;fill-opacity:1;stroke:none" />
    <path
       style="fill:#552200;fill-opacity:1;stroke:none"
       d="M -3.3969328,56.960503 L 41.163715,55.192736 L 120.71406,56.640468 L 304.05628,54.957748 L 340.92608,50.280601 L 360.61884,55.86974 L 511.64414,55.481701 L 621.7512,57.809343 L 801.13639,56.960503 L 801.13639,69.622811 L 579.32075,79.055398 L 356.07245,68.322078 L 246.98479,72.954839 L 145.45754,68.792731 L 57.073617,72.653269 L -3.3969328,69.622811 L -3.3969328,56.960503 z"
       id="rect3186"
       sodipodi:nodetypes="ccccccccccccccccc" />
    <path
       style="fill:#000000;fill-rule:evenodd;stroke:none;stroke-width:1px;stroke-linecap:butt;stroke-linejoin:miter;stroke-opacity:1;opacity:0.18103448000000000"
       d="M 375.77675,298.17254 L 379.81736,481.01015 L 331.74949,481.41139 L 375.77675,298.17254 z"
       id="path3192"
       sodipodi:nodetypes="cccc" />
    <path
       style="fill:#000000;fill-rule:evenodd;stroke:none;stroke-width:1px;stroke-linecap:butt;stroke-linejoin:miter;stroke-opacity:1"
       d="M 318.45059,470.15101 L 333.60288,471.91878 L 330.31988,482.27284 L 318.95567,482.27284 L 318.45059,470.15101 z"
       id="path3194" />
    <path
       style="fill:#000000;fill-rule:evenodd;stroke:none;stroke-width:1px;stroke-linecap:butt;stroke-linejoin:miter;stroke-opacity:1"
       d="M 391.07143,361.25 L 398.39286,390.71429 L 401.07143,360.71429 L 391.07143,361.25 z"
       id="path3196" />
    <path
       style="fill:#000000;fill-rule:evenodd;stroke:none;stroke-width:1px;stroke-linecap:butt;stroke-linejoin:miter;stroke-opacity:1;opacity:0.82327585999999997"
       d="M 170.71429,485 L 297.85714,300.71429 L 312.85714,482.85714 L 284.28571,481.42857 L 284.28571,320.71429 L 170.71429,485 z"
       id="path3198" />
    <path
       style="fill:#000000;fill-rule:evenodd;stroke:none;stroke-width:1px;stroke-linecap:butt;stroke-linejoin:miter;stroke-opacity:1;opacity:0.49568965999999998"
       d="M 328.75,231.42857 L 375.17858,146.60714 L 370.35714,293.21428 L 341.42858,405.35714 L 341.42857,379.28571 L 367.67857,293.39286 L 373.21429,151.42857 L 328.75,231.42857 z"
       id="path3202"
       sodipodi:nodetypes="cccccccc" />
    <path
       style="fill:#000000;fill-rule:evenodd;stroke:none;stroke-width:1px;stroke-linecap:butt;stroke-linejoin:miter;stroke-opacity:1;opacity:0.44827586000000003"
       d="M 678.57143,243.57143 L 681.42857,183.57143 L 800.71429,271.42857 L 802.85714,351.42857 L 678.57143,243.57143 z"
       id="path3204" />
    <path
       style="fill:#000000;fill-rule:evenodd;stroke:none;stroke-width:1px;stroke-linecap:butt;stroke-linejoin:miter;stroke-opacity:1"
       d="M 680,182.14286 L 696.42857,197.14286 L 697.85714,261.42857 L 680.71429,245 L 680,182.14286 z"
       id="path3206" />
    <path
       style="fill:#000000;fill-rule:evenodd;stroke:none;stroke-width:1px;stroke-linecap:butt;stroke-linejoin:miter;stroke-opacity:1;opacity:0.24786325000000001"
       d="M 342.14285,405.71428 L 329.28571,232.85714 L 345,200.71429 L 332.85714,230 L 342.14285,405.71428 z"
       id="path4708"
       sodipodi:nodetypes="ccccc" />
    <path
       style="fill:#803300;fill-rule:evenodd;stroke:none;stroke-width:1px;stroke-linecap:butt;stroke-linejoin:miter;stroke-opacity:1;opacity:0.27350427"
       d="M 445.71429,257.14286 L 515.71429,248.57143 L 598.57143,264.28571 L 685.71429,250 L 801.42857,350 L 804.28571,482.85714 L 530,484.28571 L 445.71429,257.14286 z"
       id="path5219" />
    <path
       style="fill:#ff6600;fill-rule:evenodd;stroke:none;stroke-width:1px;stroke-linecap:butt;stroke-linejoin:miter;stroke-opacity:1;opacity:0.08119658"
       d="M 396.23234,145.76578 L 460.62956,143.6192 L 522.24887,141.5989 L 551.54329,140.58874 L 586.64609,137.9371 L 605.46018,157.25626 L 402.04071,156.75119 L 396.23234,145.76578 z"
       id="path5223"
       sodipodi:nodetypes="cccccccc" />
    <path
       style="fill:#501616;fill-rule:evenodd;stroke:none;stroke-width:1px;stroke-linecap:butt;stroke-linejoin:miter;stroke-opacity:1;opacity:0.56837607000000001"
       d="M 418.20315,192.10652 L 620.23366,193.11668 L 614.17275,185.03546 L 413.65747,183.77276 L 418.20315,192.10652 z"
       id="path5225"
       sodipodi:nodetypes="ccccc" />
    <path
       style="fill:#000000;fill-rule:evenodd;stroke:none;stroke-width:1px;stroke-linecap:butt;stroke-linejoin:miter;stroke-opacity:1;opacity:0.06"
       d="M 330.31988,483.03046 L 376.7869,291.10147 L 380.82751,166.85271 L 227.28432,483.03046 L 330.31988,483.03046 z"
       id="path3864" />
  </g>
</svg>
