<?xml version="1.0" encoding="UTF-8" standalone="no"?>
<!-- Created with Inkscape (http://www.inkscape.org/) -->
<svg
   xmlns:dc="http://purl.org/dc/elements/1.1/"
   xmlns:cc="http://creativecommons.org/ns#"
   xmlns:rdf="http://www.w3.org/1999/02/22-rdf-syntax-ns#"
   xmlns:svg="http://www.w3.org/2000/svg"
   xmlns="http://www.w3.org/2000/svg"
   xmlns:sodipodi="http://sodipodi.sourceforge.net/DTD/sodipodi-0.dtd"
   xmlns:inkscape="http://www.inkscape.org/namespaces/inkscape"
   width="800"
   height="480"
   id="svg2613"
   sodipodi:version="0.32"
   inkscape:version="0.46"
   version="1.0"
   sodipodi:docname="chapter0c.svg"
   inkscape:output_extension="org.inkscape.output.svg.inkscape">
  <defs
     id="defs2615">
    <inkscape:perspective
       sodipodi:type="inkscape:persp3d"
       inkscape:vp_x="0 : 526.18109 : 1"
       inkscape:vp_y="0 : 1000 : 0"
       inkscape:vp_z="744.09448 : 526.18109 : 1"
       inkscape:persp3d-origin="372.04724 : 350.78739 : 1"
       id="perspective2621" />
  </defs>
  <sodipodi:namedview
     id="base"
     pagecolor="#ffffff"
     bordercolor="#666666"
     borderopacity="1.0"
     gridtolerance="10000"
     guidetolerance="10"
     objecttolerance="10"
     inkscape:pageopacity="0.0"
     inkscape:pageshadow="2"
     inkscape:zoom="0.7"
     inkscape:cx="186.67205"
     inkscape:cy="277.99607"
     inkscape:document-units="px"
     inkscape:current-layer="layer1"
     showgrid="false"
     inkscape:window-width="1278"
     inkscape:window-height="722"
     inkscape:window-x="0"
     inkscape:window-y="25" />
  <metadata
     id="metadata2618">
    <rdf:RDF>
      <cc:Work
         rdf:about="">
        <dc:format>image/svg+xml</dc:format>
        <dc:type
           rdf:resource="http://purl.org/dc/dcmitype/StillImage" />
      </cc:Work>
    </rdf:RDF>
  </metadata>
  <g
     inkscape:label="Layer 1"
     inkscape:groupmode="layer"
     id="layer1">
    <rect
       style="opacity:1;fill:#008000;fill-opacity:1;stroke:none"
       id="rect2409"
       width="808.57141"
       height="497.14285"
       x="-2.8571429"
       y="-5.7142859" />
    <path
       id="path3183"
       d="M 386.73158,273.53764 L 496.12551,397.46449 L 516.20128,492.93158 L 263.37299,493.55403 L 284.32118,375.73417 L 386.73158,273.53764 z"
       style="fill:#1a1a1a;fill-rule:evenodd;stroke:none;stroke-width:1.60606121999999996px;stroke-linecap:butt;stroke-linejoin:miter;stroke-opacity:1"
       sodipodi:nodetypes="cccccc" />
    <path
       sodipodi:nodetypes="cccccc"
       id="path3293"
       d="M 639.79844,77.623956 L 517.35135,216.85176 L 541.51847,281.75496 L 643.02072,166.60416 L 761.03722,246.16286 L 639.79844,77.623956 z"
       style="fill:#800000;fill-rule:evenodd;stroke:none;stroke-width:1px;stroke-linecap:butt;stroke-linejoin:miter;stroke-opacity:1" />
    <path
       id="path3295"
       d="M 762.24559,242.67346 L 610.7978,481.34966 L 517.35135,220.34116 L 636.57615,80.764416 L 762.24559,242.67346 z"
       style="opacity:0.56066948000000005;fill:#ff0000;fill-rule:evenodd;stroke:none;stroke-width:1px;stroke-linecap:butt;stroke-linejoin:miter;stroke-opacity:1" />
    <path
       style="fill:#999999;fill-rule:evenodd;stroke:none;stroke-width:1px;stroke-linecap:butt;stroke-linejoin:miter;stroke-opacity:1"
       d="M 464.28571,491.42857 L 430,380 L 410.49021,365.46918 L 473.50835,404.82308 L 499.16317,413.06019 L 502.85714,492.85714 L 464.28571,491.42857 z"
       id="path3185"
       sodipodi:nodetypes="ccccccc" />
    <path
       id="path3291"
       d="M 526.57898,-4.6568154 L 754.18986,-2.2837043 L 821.85803,87.045376 L 760.63445,246.16286 L 639.79844,77.275016 L 520.57363,219.64326 L 612.40894,476.46436 L 576.96371,505.77546 L 497.37713,409.6116 L 383.9125,271.14782 L 363.16085,206.55447 L 526.57898,-4.6568154 z"
       style="fill:#000000;fill-rule:evenodd;stroke:none;stroke-width:1px;stroke-linecap:butt;stroke-linejoin:miter;stroke-opacity:1"
       sodipodi:nodetypes="cccccccccccc" />
    <path
       sodipodi:nodetypes="cccccccccccc"
       id="path3297"
       d="M 643.02072,165.90626 L 622.07582,193.12366 L 591.46402,282.45276 L 574.14421,376.66706 L 586.22779,402.83776 L 641.40958,359.21996 L 667.18793,370.38606 L 683.2994,297.80626 L 692.96627,293.61896 L 710.68889,283.84856 L 745.73134,236.04356 L 643.02072,165.90626 z"
       style="fill:#ff9955;fill-rule:evenodd;stroke:none;stroke-width:1px;stroke-linecap:butt;stroke-linejoin:miter;stroke-opacity:1" />
    <path
       sodipodi:nodetypes="cccccc"
       id="path3299"
       d="M 642.61793,166.60416 L 541.92126,281.40596 L 575.35257,377.36496 L 591.46402,283.84856 L 626.90926,187.54066 L 642.61793,166.60416 z"
       style="fill:#ff7f2a;fill-rule:evenodd;stroke:none;stroke-width:1px;stroke-linecap:butt;stroke-linejoin:miter;stroke-opacity:1" />
    <path
       id="path3301"
       d="M 640.604,359.21996 L 648.65974,350.14746 L 667.18793,370.38606 L 640.604,359.21996 z"
       style="fill:#ff7f2a;fill-rule:evenodd;stroke:none;stroke-width:1px;stroke-linecap:butt;stroke-linejoin:miter;stroke-opacity:1" />
    <path
       sodipodi:nodetypes="ccccc"
       id="path3303"
       d="M 707.46659,283.84856 L 663.96564,244.06916 L 650.67368,312.81076 L 696.18858,280.01016 L 707.46659,283.84856 z"
       style="fill:#ff7f2a;fill-rule:evenodd;stroke:none;stroke-width:1px;stroke-linecap:butt;stroke-linejoin:miter;stroke-opacity:1" />
    <path
       sodipodi:nodetypes="cccccccc"
       id="path3305"
       d="M 634.05872,366.54776 L 606.76992,344.56446 L 610.79779,364.10526 L 617.24237,380.15646 L 623.68696,381.55226 L 626.90926,374.57346 L 633.85733,374.31176 L 634.05872,366.54776 z"
       style="fill:#aa4400;fill-rule:evenodd;stroke:none;stroke-width:1px;stroke-linecap:butt;stroke-linejoin:miter;stroke-opacity:1" />
    <path
       id="path3307"
       d="M 606.56853,344.65166 L 626.50647,373.96286 L 633.45454,374.31176 L 606.56853,344.65166 z"
       style="fill:#803300;fill-rule:evenodd;stroke:none;stroke-width:1px;stroke-linecap:butt;stroke-linejoin:miter;stroke-opacity:1" />
    <path
       id="path3309"
       d="M 694.57742,280.01016 L 663.96564,244.06916 L 677.7275,247.79936 L 699.47253,278.86496 L 694.57742,280.01016 z"
       style="fill:#aa4400;fill-rule:evenodd;stroke:none;stroke-width:1px;stroke-linecap:butt;stroke-linejoin:miter;stroke-opacity:1"
       sodipodi:nodetypes="ccccc" />
    <path
       sodipodi:nodetypes="ccccccc"
       id="path3311"
       d="M 665.17399,245.46496 L 664.7712,271.28666 L 668.79907,281.40596 L 676.85481,289.78056 L 687.32727,284.89536 L 694.17464,278.96336 L 665.17399,245.46496 z"
       style="fill:#d45500;fill-rule:evenodd;stroke:none;stroke-width:1px;stroke-linecap:butt;stroke-linejoin:miter;stroke-opacity:1" />
    <path
       id="path3313"
       d="M 744.52297,-3.6794743 L 813.80228,85.649616 L 788.02394,156.83376 L 564.07453,-5.0752343 L 744.52297,-3.6794743 z"
       style="opacity:0.63598328000000004;fill:#4d4d4d;fill-rule:evenodd;stroke:none;stroke-width:1.48452352999999992px;stroke-linecap:butt;stroke-linejoin:miter;stroke-opacity:1" />
    <path
       style="opacity:0.58189655;fill:#808080;fill-rule:evenodd;stroke:none;stroke-width:1px;stroke-linecap:butt;stroke-linejoin:miter;stroke-opacity:1"
       d="M 676.60713,290.75346 L 664.64284,308.61066 L 664.64284,315.39636 L 670.17855,313.25346 L 676.60713,290.75346 z"
       id="path3323" />
    <rect
       style="opacity:1;fill:#00ff00;fill-opacity:1;stroke:none"
       id="rect3283"
       width="257.33029"
       height="367.14285"
       x="-2.5000095"
       y="-6.0510998" />
    <path
       style="fill:#000000;fill-rule:evenodd;stroke:none;stroke-width:1px;stroke-linecap:butt;stroke-linejoin:miter;stroke-opacity:1"
       d="M -2.6330823,-6.8104247 L 184.07183,-4.7901246 L 226.49824,59.859635 L 188.11244,175.01703 L 112.351,52.788575 L 37.5997,155.82413 L 95.178403,341.69217 L 72.955043,362.90537 L -3.2248203,246.38072 L -2.6330823,-6.8104247 z"
       id="path3251"
       sodipodi:nodetypes="cccccccccc" />
    <path
       style="fill:#800000;fill-rule:evenodd;stroke:none;stroke-width:1px;stroke-linecap:butt;stroke-linejoin:miter;stroke-opacity:1"
       d="M 111.84592,52.536039 L 35.074324,153.29875 L 50.226604,200.27085 L 113.86622,116.93326 L 187.85989,174.51196 L 111.84592,52.536039 z"
       id="path3253"
       sodipodi:nodetypes="cccccc" />
    <path
       style="opacity:0.56066948000000005;fill:#ff0000;fill-rule:evenodd;stroke:none;stroke-width:1px;stroke-linecap:butt;stroke-linejoin:miter;stroke-opacity:1"
       d="M 189.12259,172.49165 L 94.168253,345.22777 L 35.57939,156.32921 L 110.3307,55.313945 L 189.12259,172.49165 z"
       id="path3255" />
    <path
       style="fill:#ff9955;fill-rule:evenodd;stroke:none;stroke-width:1px;stroke-linecap:butt;stroke-linejoin:miter;stroke-opacity:1"
       d="M 114.3713,116.93327 L 101.23932,136.63124 L 82.046413,201.281 L 71.187283,269.46627 L 78.763413,288.40667 L 113.36115,256.83937 L 129.52359,264.92057 L 139.62512,212.39268 L 145.68603,209.36222 L 156.79771,202.29115 L 178.76853,167.69342 L 114.3713,116.93327 z"
       id="path3257"
       sodipodi:nodetypes="cccccccccccc" />
    <path
       style="fill:#ff7f2a;fill-rule:evenodd;stroke:none;stroke-width:1px;stroke-linecap:butt;stroke-linejoin:miter;stroke-opacity:1"
       d="M 114.11876,117.43834 L 50.98422,200.52339 L 71.944893,269.97137 L 82.046413,202.29115 L 104.26978,132.59063 L 114.11876,117.43834 z"
       id="path3259"
       sodipodi:nodetypes="cccccc" />
    <path
       style="fill:#ff7f2a;fill-rule:evenodd;stroke:none;stroke-width:1px;stroke-linecap:butt;stroke-linejoin:miter;stroke-opacity:1"
       d="M 112.85607,256.83937 L 117.90684,250.27337 L 129.52359,264.92057 L 112.85607,256.83937 z"
       id="path3261" />
    <path
       style="fill:#ff7f2a;fill-rule:evenodd;stroke:none;stroke-width:1px;stroke-linecap:butt;stroke-linejoin:miter;stroke-opacity:1"
       d="M 154.7774,202.29115 L 127.50329,173.5018 L 119.16953,223.25182 L 147.70634,199.51323 L 154.7774,202.29115 z"
       id="path3263"
       sodipodi:nodetypes="ccccc" />
    <path
       style="fill:#aa4400;fill-rule:evenodd;stroke:none;stroke-width:1px;stroke-linecap:butt;stroke-linejoin:miter;stroke-opacity:1"
       d="M 108.75233,262.14267 L 91.642863,246.23279 L 94.168243,260.37497 L 98.208853,271.99167 L 102.24947,273.00187 L 104.26978,267.95107 L 108.62606,267.76167 L 108.75233,262.14267 z"
       id="path3265"
       sodipodi:nodetypes="cccccccc" />
    <path
       style="fill:#803300;fill-rule:evenodd;stroke:none;stroke-width:1px;stroke-linecap:butt;stroke-linejoin:miter;stroke-opacity:1"
       d="M 91.516593,246.29592 L 104.01724,267.50917 L 108.37352,267.76167 L 91.516593,246.29592 z"
       id="path3267" />
    <path
       style="fill:#aa4400;fill-rule:evenodd;stroke:none;stroke-width:1px;stroke-linecap:butt;stroke-linejoin:miter;stroke-opacity:1"
       d="M 146.69618,199.51323 L 127.50329,173.5018 L 154.01979,201.78607 L 146.69618,199.51323 z"
       id="path3269" />
    <path
       style="fill:#d45500;fill-rule:evenodd;stroke:none;stroke-width:1px;stroke-linecap:butt;stroke-linejoin:miter;stroke-opacity:1"
       d="M 128.2609,174.51196 L 128.00836,193.19978 L 130.53374,200.52338 L 135.58451,206.5843 L 142.1505,203.04876 L 146.44365,198.75562 L 128.2609,174.51196 z"
       id="path3273"
       sodipodi:nodetypes="ccccccc" />
    <path
       style="opacity:0.63598328000000004;fill:#4d4d4d;fill-rule:evenodd;stroke:none;stroke-width:1px;stroke-linecap:butt;stroke-linejoin:miter;stroke-opacity:1"
       d="M 178.01091,-5.8002746 L 221.44747,58.849485 L 205.28503,110.36727 L 64.87382,-6.8104247 L 178.01091,-5.8002746 z"
       id="path3275" />
    <path
       style="fill:#1a1a1a;fill-rule:evenodd;stroke:none;stroke-width:1.02172053000000007px;stroke-linecap:butt;stroke-linejoin:miter;stroke-opacity:1"
       d="M -2.6895705,246.7587 L 33.342629,301.89098 L 28.554502,367.92787 L -2.1407235,367.55479 L -2.6895705,246.7587 z"
       id="path3285"
       sodipodi:nodetypes="ccccc" />
  </g>
</svg>
