<?xml version="1.0" encoding="UTF-8" standalone="no"?>
<!-- Created with Inkscape (http://www.inkscape.org/) -->
<svg
   xmlns:dc="http://purl.org/dc/elements/1.1/"
   xmlns:cc="http://creativecommons.org/ns#"
   xmlns:rdf="http://www.w3.org/1999/02/22-rdf-syntax-ns#"
   xmlns:svg="http://www.w3.org/2000/svg"
   xmlns="http://www.w3.org/2000/svg"
   xmlns:xlink="http://www.w3.org/1999/xlink"
   xmlns:sodipodi="http://sodipodi.sourceforge.net/DTD/sodipodi-0.dtd"
   xmlns:inkscape="http://www.inkscape.org/namespaces/inkscape"
   width="800"
   height="480"
   id="svg2"
   sodipodi:version="0.32"
   inkscape:version="0.46"
   sodipodi:docname="chapter3.svg"
   inkscape:output_extension="org.inkscape.output.svg.inkscape"
   version="1.0">
  <defs
     id="defs4">
    <inkscape:perspective
       sodipodi:type="inkscape:persp3d"
       inkscape:vp_x="0 : 526.18109 : 1"
       inkscape:vp_y="0 : 1000 : 0"
       inkscape:vp_z="744.09448 : 526.18109 : 1"
       inkscape:persp3d-origin="372.04724 : 350.78739 : 1"
       id="perspective10" />
    <inkscape:perspective
       id="perspective2390"
       inkscape:persp3d-origin="372.04724 : 350.78739 : 1"
       inkscape:vp_z="744.09448 : 526.18109 : 1"
       inkscape:vp_y="0 : 1000 : 0"
       inkscape:vp_x="0 : 526.18109 : 1"
       sodipodi:type="inkscape:persp3d" />
    <inkscape:perspective
       id="perspective3257"
       inkscape:persp3d-origin="372.04724 : 350.78739 : 1"
       inkscape:vp_z="744.09448 : 526.18109 : 1"
       inkscape:vp_y="0 : 1000 : 0"
       inkscape:vp_x="0 : 526.18109 : 1"
       sodipodi:type="inkscape:persp3d" />
  </defs>
  <sodipodi:namedview
     id="base"
     pagecolor="#ffffff"
     bordercolor="#666666"
     borderopacity="1.0"
     gridtolerance="10000"
     guidetolerance="10"
     objecttolerance="10"
     inkscape:pageopacity="0.0"
     inkscape:pageshadow="2"
     inkscape:zoom="0.98994949"
     inkscape:cx="524.49468"
     inkscape:cy="222.16651"
     inkscape:document-units="px"
     inkscape:current-layer="layer1"
     showgrid="false"
     inkscape:window-width="1278"
     inkscape:window-height="722"
     inkscape:window-x="0"
     inkscape:window-y="25" />
  <metadata
     id="metadata7">
    <rdf:RDF>
      <cc:Work
         rdf:about="">
        <dc:format>image/svg+xml</dc:format>
        <dc:type
           rdf:resource="http://purl.org/dc/dcmitype/StillImage" />
      </cc:Work>
    </rdf:RDF>
  </metadata>
  <g
     inkscape:label="Layer 1"
     inkscape:groupmode="layer"
     id="layer1">
    <image
       y="-1223.7806"
       x="11117.143"
       id="image2392"
       height="2338"
       width="1700"
       sodipodi:absref="/home/daniel/Desktop/storyboards/foto4.jpg"
       xlink:href="foto4.jpg"
       style="stroke:none" />
    <path
       style="fill:#000000;fill-rule:evenodd;stroke:none;stroke-width:1px;stroke-linecap:butt;stroke-linejoin:miter;stroke-opacity:1"
       d="M 3.5083487,6.3102158 L 5.8664978,268.70463 L 150.14271,419.06534 L 747.43279,419.21932 L 809.64991,284.22891 L 808.81618,0.75698576 L 3.5083487,6.3102158 z"
       id="path2396"
       sodipodi:nodetypes="ccccccc" />
    <path
       style="fill:#28170b;fill-rule:evenodd;stroke:none;stroke-width:1px;stroke-linecap:butt;stroke-linejoin:miter;stroke-opacity:1;opacity:0.40000000000000002"
       d="M 401.03056,400.19795 L 672.76159,396.15734 L 810.14234,2.1978465 L 214.62882,4.3503021 L 401.03056,400.19795 z"
       id="path5941"
       sodipodi:nodetypes="ccccc" />
    <path
       id="path5935"
       d="M 283.50835,414.35854 L 781.01613,390.07283 L 804.80411,486.55171 L 244.93692,486.55171 L 283.50835,414.35854 z"
       style="opacity:0.3;fill:#aa4400;fill-rule:evenodd;stroke:none;stroke-width:1px;stroke-linecap:butt;stroke-linejoin:miter;stroke-opacity:1"
       sodipodi:nodetypes="ccccc" />
    <path
       style="fill:#d45500;fill-rule:evenodd;stroke:none;stroke-width:1px;stroke-linecap:butt;stroke-linejoin:miter;stroke-opacity:1"
       d="M 2.0797774,261.64225 L 2.0797774,414.93361 L 150.23856,415.67711 L 2.0797774,261.64225 z"
       id="path2398"
       sodipodi:nodetypes="cccc" />
    <path
       style="fill:#552200;fill-rule:evenodd;stroke:none;stroke-width:1px;stroke-linecap:butt;stroke-linejoin:miter;stroke-opacity:1"
       d="M 746.07574,414.35854 L 808.56668,276.91387 L 813.28298,485.16338 L 776.73167,485.16338 L 746.07574,414.35854 z"
       id="path2400" />
    <path
       sodipodi:nodetypes="cccc"
       id="path5420"
       d="M 2.0797774,217.35653 L 2.0797774,414.71985 L 241.66713,415.67711 L 2.0797774,217.35653 z"
       style="opacity:0.3;fill:#d45500;fill-rule:evenodd;stroke:none;stroke-width:1px;stroke-linecap:butt;stroke-linejoin:miter;stroke-opacity:1" />
    <path
       style="opacity:0.3;fill:#d45500;fill-rule:evenodd;stroke:none;stroke-width:1px;stroke-linecap:butt;stroke-linejoin:miter;stroke-opacity:1"
       d="M 2.0797774,243.07082 L 2.0797774,414.84397 L 210.23856,415.67711 L 2.0797774,243.07082 z"
       id="path5931"
       sodipodi:nodetypes="cccc" />
    <path
       style="opacity:0.3;fill:#d45500;fill-rule:evenodd;stroke:none;stroke-width:1px;stroke-linecap:butt;stroke-linejoin:miter;stroke-opacity:1"
       d="M 3.5083443,198.7851 L 3.5083443,413.20853 L 283.0957,414.24854 L 3.5083443,198.7851 z"
       id="path5933"
       sodipodi:nodetypes="cccc" />
    <path
       style="fill:#aa4400;fill-rule:evenodd;stroke:none;stroke-width:1px;stroke-linecap:butt;stroke-linejoin:miter;stroke-opacity:1"
       d="M 2.0797774,385.78711 L 745.89365,414.35854 L 779.08982,486.55171 L -2.2059369,486.55171 L 2.0797774,385.78711 z"
       id="path2404"
       sodipodi:nodetypes="ccccc" />
    <path
       style="fill:#000000;fill-rule:evenodd;stroke:#000000;stroke-width:1px;stroke-linecap:butt;stroke-linejoin:miter;stroke-opacity:1;opacity:0.2"
       d="M 45.714286,425.71429 L 120,448.57143 L 175.71429,445.71429 L 191.42857,474.28571 L 281.42857,480 L 374.28571,470 L 560,504.28571 L 587.14286,465.71429 L 634.28571,444.28571 L 705.71429,447.14286 L 730,431.42857 L 750,412.85714 L 798.57143,362.85714 L 792.85714,404.28571 L 758.57143,412.85714 L 682.85714,422.85714 L 591.42857,438.57143 L 577.14286,475.71429 C 577.14286,475.71429 458.57143,467.14286 452.85714,464.28571 C 447.14286,461.42857 361.42857,477.14286 361.42857,477.14286 L 298.57143,477.14286 L 227.14286,435.71429 L 145.71429,450 L 88.571429,468.57143 L 57.142857,440 L 45.714286,425.71429 z"
       id="path5937" />
    <path
       style="fill:#0000ff;fill-rule:evenodd;stroke:none;stroke-width:1px;stroke-linecap:butt;stroke-linejoin:miter;stroke-opacity:1"
       d="M 396.31983,478.03045 L 293.43656,460.15228 L 587.14286,368.57142 L 595,397.14285 L 396.31983,478.03045 z"
       id="path5415"
       sodipodi:nodetypes="ccccc" />
    <path
       style="fill:#1a1a1a;fill-rule:evenodd;stroke:none;stroke-width:1px;stroke-linecap:butt;stroke-linejoin:miter;stroke-opacity:1"
       d="M 259.71961,487.26599 L 292.56267,456.17946 L 352.83229,446.09899 L 355.82263,439.612 L 339.48774,431.52099 L 338.7176,367.86961 L 362.3675,330.82232 L 431.86448,330.38471 L 454.26689,367.86961 L 444.90271,433.40281 L 428.58922,439.04133 L 431.70746,442.03188 L 480.17232,443.16136 L 504.96709,462.27604 L 515.57876,490.04264 L 259.71961,487.26599 z"
       id="path2402"
       sodipodi:nodetypes="cccccccccccccccc" />
    <path
       style="opacity:0.25431034;fill:#666666;fill-rule:evenodd;stroke:none;stroke-width:1px;stroke-linecap:butt;stroke-linejoin:miter;stroke-opacity:1"
       d="M 367.01538,333.16136 L 354.04557,347.04465 L 396.16931,361.32534 L 437.07976,352.39677 L 429.57726,334.92445 L 367.01538,333.16136 z"
       id="path2406"
       sodipodi:nodetypes="cccccc" />
    <path
       style="fill:#000080;fill-rule:evenodd;stroke:none;stroke-width:1px;stroke-linecap:butt;stroke-linejoin:miter;stroke-opacity:1"
       d="M 448.57143,425.35714 L 591.78572,384.28571 L 595,397.85714 L 489.28572,440.71428 L 483.57143,431.42857 L 448.57143,425.35714 z"
       id="path4494" />
    <path
       style="fill:#666666;fill-rule:evenodd;stroke:none;stroke-width:1px;stroke-linecap:butt;stroke-linejoin:miter;stroke-opacity:1"
       d="M 515.71429,487.85714 L 528.57143,434.99999 L 542.14286,409.99999 L 545,387.14285 L 539.28572,392.85714 L 532.14286,412.85714 L 512.85714,417.14285 L 516.42857,430.71428 L 497.14286,454.28571 L 515.71429,487.85714 z"
       id="path5417" />
    <path
       style="fill:#808080;fill-rule:evenodd;stroke:none;stroke-width:1px;stroke-linecap:butt;stroke-linejoin:miter;stroke-opacity:1"
       d="M 511.60715,385.71428 L 513.21429,375.17857 L 517.67857,378.21428 L 520.71429,373.03571 L 525.17857,377.14285 L 527.32143,370.71428 L 531.96429,376.60714 L 533.57143,369.82142 L 538.03572,376.24999 L 538.21429,388.57142 L 536.25,390.71428 L 533.21429,388.39285 L 530.71429,391.24999 L 527.32143,388.21428 L 525.17857,391.78571 L 520.35715,388.74999 L 517.85715,394.10714 L 513.03572,390.53571 L 511.60715,385.71428 z"
       id="path5419" />
    <path
       style="fill:#000000;fill-rule:evenodd;stroke:none;stroke-width:1px;stroke-linecap:butt;stroke-linejoin:miter;stroke-opacity:1"
       d="M 518.03572,379.82142 L 520,387.49999 L 524.82143,390.89285 L 527.32143,386.96428 L 530.89286,390.35714 L 533.39286,387.85714 L 537.14286,391.24999 L 538.57143,388.39285 L 533.92857,386.78571 L 532.5,379.99999 L 533.21429,387.14285 L 530.71429,389.46428 L 527.32143,385.89285 L 525,378.74999 L 526.96429,385.89285 L 525,390.35714 L 520.71429,387.32142 L 518.03572,379.82142 z"
       id="path5421" />
    <path
       style="fill:#4d4d4d;fill-rule:evenodd;stroke:none;stroke-width:1px;stroke-linecap:butt;stroke-linejoin:miter;stroke-opacity:1"
       d="M 514.28572,417.49999 L 532.5,412.49999 L 523.21429,431.78571 L 503.92857,467.49999 L 497.5,453.92857 L 515.71429,429.64285 L 514.28572,417.49999 z"
       id="path4492" />
    <path
       style="fill:#333333;fill-rule:evenodd;stroke:none;stroke-width:1px;stroke-linecap:butt;stroke-linejoin:miter;stroke-opacity:1"
       d="M 344.28572,485.71428 L 385.71429,480.71428 L 402.85714,487.85714 L 416.42857,477.85714 L 440,470.71428 L 465,491.42857 L 344.28572,485.71428 z"
       id="path4496" />
    <path
       sodipodi:nodetypes="cccccc"
       id="path5939"
       d="M 372.33002,337.44707 L 365.83129,343.05593 L 386.93807,348.82534 L 407.43691,345.21819 L 403.67766,338.15936 L 372.33002,337.44707 z"
       style="opacity:0.25431034;fill:#ffffff;fill-rule:evenodd;stroke:none;stroke-width:1px;stroke-linecap:butt;stroke-linejoin:miter;stroke-opacity:1" />
    <path
       id="path3989"
       d="M 36.622913,419.65337 L 110.90863,442.51051 L 166.62292,439.65337 L 182.3372,468.22479 L 272.3372,473.93908 L 365.19434,463.93908 L 550.90863,498.22479 L 578.05149,459.65337 L 625.19434,438.22479 L 696.62292,441.08194 L 720.90863,425.36765 L 740.90863,406.79622 L 789.48006,356.79622 L 783.76577,398.22479 L 749.48006,406.79622 L 673.76577,416.79622 L 582.3372,432.51051 L 568.05149,469.65337 C 568.05149,469.65337 449.48006,461.08194 443.76577,458.22479 C 438.05149,455.36765 352.3372,471.08194 352.3372,471.08194 L 289.48006,471.08194 L 218.05149,429.65337 L 136.62292,443.93908 L 79.480056,462.51051 L 48.051484,433.93908 L 36.622913,419.65337 z"
       style="opacity:0.2;fill:#000000;fill-rule:evenodd;stroke:#000000;stroke-width:1px;stroke-linecap:butt;stroke-linejoin:miter;stroke-opacity:1" />
  </g>
</svg>
