<?xml version="1.0" encoding="UTF-8" standalone="no"?>
<!-- Created with Inkscape (http://www.inkscape.org/) -->
<svg
   xmlns:dc="http://purl.org/dc/elements/1.1/"
   xmlns:cc="http://creativecommons.org/ns#"
   xmlns:rdf="http://www.w3.org/1999/02/22-rdf-syntax-ns#"
   xmlns:svg="http://www.w3.org/2000/svg"
   xmlns="http://www.w3.org/2000/svg"
   xmlns:sodipodi="http://sodipodi.sourceforge.net/DTD/sodipodi-0.dtd"
   xmlns:inkscape="http://www.inkscape.org/namespaces/inkscape"
   width="800"
   height="480"
   id="svg2"
   sodipodi:version="0.32"
   inkscape:version="0.46"
   sodipodi:docname="electric2.svg"
   inkscape:output_extension="org.inkscape.output.svg.inkscape"
   version="1.0">
  <sodipodi:namedview
     id="base"
     pagecolor="#ffffff"
     bordercolor="#666666"
     borderopacity="1.0"
     gridtolerance="10000"
     guidetolerance="10"
     objecttolerance="10"
     inkscape:pageopacity="0.0"
     inkscape:pageshadow="2"
     inkscape:zoom="0.35"
     inkscape:cx="699.05358"
     inkscape:cy="409.37228"
     inkscape:document-units="px"
     inkscape:current-layer="layer1"
     showgrid="false"
     inkscape:window-width="1278"
     inkscape:window-height="722"
     inkscape:window-x="0"
     inkscape:window-y="25" />
  <defs
     id="defs4">
    <inkscape:perspective
       id="perspective10"
       inkscape:persp3d-origin="372.04724 : 350.78739 : 1"
       inkscape:vp_z="744.09448 : 526.18109 : 1"
       inkscape:vp_y="0 : 1000 : 0"
       inkscape:vp_x="0 : 526.18109 : 1"
       sodipodi:type="inkscape:persp3d" />
  </defs>
  <metadata
     id="metadata7">
    <rdf:RDF>
      <cc:Work
         rdf:about="">
        <dc:format>image/svg+xml</dc:format>
        <dc:type
           rdf:resource="http://purl.org/dc/dcmitype/StillImage" />
      </cc:Work>
    </rdf:RDF>
  </metadata>
  <g
     id="layer1"
     inkscape:groupmode="layer"
     inkscape:label="Layer 1">
    <path
       id="path2391"
       d="M73.568747 21.469139L74.339947 55.184389L56.517647 91.488183L20.781663 129.83168L3.6694931 133.41621L-18.737847 119.35721L-44.537257 99.999773L-50.276797 95.134993L-101.3475 85.948053L-107.16672 100.14296L-101.21838 79.999089L-76.877697 74.232729L-37.373307 100.79241L-12.990747 116.17939L15.178803 110.97534L28.017743 119.60723L36.985943 106.52347L53.547247 97.538813L58.572547 73.756469L66.051747 67.719329L68.714447 60.455869L72.501447 39.864849L73.568747 21.469139L73.568747 21.469139"
       style="opacity:0.78571424;fill:#00ffff;fill-rule:evenodd;stroke:none;stroke-width:1px;stroke-linecap:butt;stroke-linejoin:miter;stroke-opacity:1" />
    <path
       sodipodi:nodetypes="cccccccccccccccccccccccccccc"
       id="path2393"
       d="M148.02075 -13.865981L100.61675 -12.402171L90.965147 -2.5857311L76.219447 5.0496389L45.901647 -6.8152911L20.594773 -22.672281L-10.669587 -44.985711L-39.837137 -56.916141L-64.074127 -61.713861L-83.997167 -62.432721L-121.45957 -57.828281L-143.47642 -51.632231L-164.99685 -25.695211L-163.63708 -1.6788811L-136.8531 4.2093889L-104.60503 14.111029L-147.74117 -9.3797414L-148.85427 -32.174541L-108.6011 -51.764821L-61.937237 -56.893241L-8.4093469 -39.554331L28.646043 -23.130761L51.282547 -8.9750614L73.712447 -1.6032811L96.469347 -4.1347411L122.67675 -6.8626911L137.01235 -10.767961L148.02075 -13.865981L148.02075 -13.865981"
       style="opacity:0.55882353;fill:#008080;fill-rule:evenodd;stroke:none;stroke-width:1.14952362px;stroke-linecap:butt;stroke-linejoin:miter;stroke-opacity:1" />
    <path
       id="path2395"
       d="M-85.397657 85.104293L-33.597357 95.665503L5.4521431 128.92825L31.350543 141.76283L51.411947 149.49829L95.647847 158.1335L123.77365 140.98882L135.95115 109.27289L137.28185 47.861979L114.76515 -7.1394011L57.389147 -81.526851L-4.1882569 -124.46682L-33.453257 -155.56684L-41.094857 -178.20516L-37.308957 -192.35022L-35.996757 -178.22099L-23.834257 -149.50469L-3.8610569 -117.15754L22.856843 -93.603641L60.263447 -66.671441L92.160247 -37.529021L115.83485 -9.8231914L143.45325 30.054329L154.54615 61.454359L162.92645 89.207633L158.72885 105.54708L150.25285 132.62162L131.25355 152.41841L92.442747 151.07677L78.956947 153.55539L35.136443 127.61777L7.8377431 125.26566L-12.966257 127.52326L-31.300157 116.61461L-60.649857 95.018373L-85.397657 85.104293L-85.397657 85.104293"
       style="opacity:0.23529412;fill:#00ffff;fill-rule:evenodd;stroke:none;stroke-width:1px;stroke-linecap:butt;stroke-linejoin:miter;stroke-opacity:1" />
    <path
       sodipodi:nodetypes="cccccccccccscccsscscccccccc"
       id="path2397"
       d="M-174.67242 12.982389L-132.60133 48.289389L-89.311127 47.767739L-64.619527 42.778509L-38.684927 31.787619L-12.395527 21.301959L11.792373 22.071959L33.997843 29.086059L47.597347 43.273239L66.666847 58.774419L96.825747 70.639129L111.84705 71.307289L156.67825 52.255059L170.60835 37.120489L167.80025 31.825759L155.46785 41.463899L131.63185 56.739059L93.188947 69.345499L64.920047 70.535319L41.030247 57.236389L16.165573 38.663089L-12.070527 23.060079L-42.587027 26.230089L-91.853927 46.736909L-113.05773 59.284219L-141.50253 52.451459L-174.67242 12.982389L-174.67242 12.982389"
       style="opacity:0.11344539;fill:#000080;fill-rule:evenodd;stroke:none;stroke-width:1px;stroke-linecap:butt;stroke-linejoin:miter;stroke-opacity:1" />
    <path
       id="path2399"
       d="M109.35175 17.476139L113.57345 -23.941831L56.580047 -58.770571L-41.047457 -68.183751L-63.739247 -49.357401L-102.26256 -23.000511L-120.73263 14.652179L-127.06523 46.656969L-109.65059 106.90128L-99.096247 126.66895L-120.73263 97.488113L-126.00979 77.720449L-138.14727 37.243799L-107.01201 25.006669L-88.014207 -9.8220714L-74.293587 -38.061591L-41.047457 -66.301111L-15.189357 -75.714291L11.724173 -45.592131L39.165447 -54.063991L94.575647 -65.359801L108.82395 -25.824461L108.29625 -4.1741711L112.51805 7.1216489L109.35175 17.476139L109.35175 17.476139"
       style="opacity:0.55882353;fill:#00ffff;fill-rule:evenodd;stroke:none;stroke-width:1px;stroke-linecap:butt;stroke-linejoin:miter;stroke-opacity:1" />
    <path
       id="path2401"
       d="M-44.525317 96.929323L-35.307237 8.1017789L-17.534197 -8.3264914L10.675883 -15.578821L14.583353 -64.563641L43.901947 -79.169801L57.970047 -84.857951L69.254147 -127.42739L80.505047 -142.10128L101.80255 -149.62207L122.98215 -124.07274L137.84945 -75.098401L123.26565 -98.278221L97.674147 -113.00926L81.042747 -131.83039L66.042747 -69.222291L48.671047 -60.069641L22.066743 -81.919871L-2.8214469 -27.515391L-4.8175569 -0.43570114L-23.699127 23.346429L-36.861417 59.925449L-44.525317 96.929323L-44.525317 96.929323"
       style="opacity:0.55882353;fill:#008080;fill-rule:evenodd;stroke:none;stroke-width:1px;stroke-linecap:butt;stroke-linejoin:miter;stroke-opacity:1" />
    <path
       style="fill:#00ffff;fill-rule:evenodd;stroke:none;stroke-width:0.77184999px;stroke-linecap:butt;stroke-linejoin:miter;stroke-opacity:1"
       d="M79.915347 41.190599L80.686647 21.108039L62.861347 -0.51640114L27.119343 -23.355801L10.004313 -25.490931L-12.406797 -17.116661L-38.210537 -5.5863511L-43.951037 -2.6886311L-95.030327 2.7835889L-100.85051 -5.6716411L-94.901167 6.3270989L-70.556407 9.7618489L-31.045387 -6.0584911L-6.6587269 -15.223781L21.515553 -12.123971L34.356643 -17.265581L43.326347 -9.4722014L59.890447 -4.1204811L64.916547 10.045529L72.397047 13.641569L75.060247 17.968059L78.847847 30.233159L79.915347 41.190599L79.915347 41.190599"
       id="path2403" />
    <path
       style="fill:#008080;fill-rule:evenodd;stroke:none;stroke-width:0.88725978px;stroke-linecap:butt;stroke-linejoin:miter;stroke-opacity:1"
       d="M-178.83129 -73.072921L-127.75681 -48.811841L-112.15657 -53.950431L-92.345597 -54.005981L-66.675377 -24.935461L-48.500867 5.6335789L-27.536167 46.282579L-3.1215569 74.796169L19.961453 93.072893L40.698147 104.68192L82.945347 120.20463L109.68115 125.63208L146.67785 109.8872L158.35925 83.717893L133.17085 62.899679L104.38065 34.856869L137.29275 83.216543L126.01715 107.95812L72.621447 106.7832L20.329323 86.805203L-26.965357 39.301029L-57.290187 1.7351989L-73.562277 -25.578481L-93.322287 -45.596751L-118.84054 -55.307291L-148.12563 -66.688571L-165.46335 -70.359181L-178.83129 -73.072921L-178.83129 -73.072921"
       id="path2405"
       sodipodi:nodetypes="cccccccccccccccccccccccccccc" />
    <path
       style="opacity:0.18067226;fill:#0000ff;fill-rule:evenodd;stroke:none;stroke-width:0.77184999px;stroke-linecap:butt;stroke-linejoin:miter;stroke-opacity:1"
       d="M83.895747 38.781569L48.630147 62.244279L37.148347 92.023873L24.026243 107.36487L12.544403 118.19381L-17.800497 138.04687L-50.605697 139.85169L-79.310197 129.02275L-117.0362 100.14558L-131.79858 65.853929L-130.15832 9.9043989L-106.3745 -32.508951L-101.4538 -57.776481L-108.8349 -71.312661L-120.31676 -76.727131L-112.9356 -69.507841L-105.5544 -51.459601L-102.2739 -28.899311L-109.6551 -8.1438414L-123.59728 18.026099L-131.79858 43.293629L-134.25897 64.951509L-132.61871 93.828693L-122.77715 112.77934L-112.9356 129.02275L-99.813497 135.33964L-76.849897 145.26616L-49.785597 147.9734L-19.440697 133.53481L-7.1387969 129.92516L12.544403 101.9504L33.047643 91.121463L51.090547 84.804573L59.291847 73.073219L69.953547 52.317749L83.895747 38.781569L83.895747 38.781569"
       id="path2407" />
    <path
       style="opacity:0.0630252;fill:#000080;fill-rule:evenodd;stroke:none;stroke-width:0.77184999px;stroke-linecap:butt;stroke-linejoin:miter;stroke-opacity:1"
       d="M 564.02944,436.24659 L 606.10761,493.103 L 649.405,492.26296 L 674.10076,484.22859 L 700.03978,466.52948 L 726.3336,449.64396 L 750.52552,450.88393 L 772.73478,462.17904 L 786.33648,485.02528 L 805.40925,509.98751 L 835.5732,529.09377 C 835.5732,529.09377 847.63935,531.73135 850.597,530.16975 C 853.55468,528.60815 895.43572,499.4891 895.43572,499.4891 L 909.36818,475.11724 L 906.5596,466.59089 C 906.5596,466.59089 897.56739,479.34603 894.22516,482.11161 C 890.88291,484.87719 873.34283,505.14828 870.38515,506.70988 C 867.4275,508.27147 831.93574,527.01058 831.93574,527.01058 C 831.93574,527.01058 806.5602,531.40018 803.66216,528.9266 C 800.76413,526.45301 779.76832,507.51075 779.76832,507.51075 L 754.89949,477.60136 L 726.65859,452.47514 L 696.13696,457.57994 L 646.86177,490.60298 L 625.65441,510.80847 L 597.20486,499.80537 L 564.02944,436.24659 z"
       id="path2409"
       sodipodi:nodetypes="cccccccccccscccsscscccccccc" />
    <path
       style="opacity:0.55882353;fill:#00ffff;fill-rule:evenodd;stroke:none;stroke-width:0.77184999px;stroke-linecap:butt;stroke-linejoin:miter;stroke-opacity:1"
       d="M-125.97983 42.345349L-156.55743 30.441149L-135.00893 -29.427001L-64.999527 -113.31935L-34.884827 -125.01489L12.548473 -146.95123L51.768447 -148.1789L77.793447 -141.50864L103.88225 -104.79555L108.66435 -88.763191L106.33265 -117.41734L97.431047 -129.10393L80.243847 -154.13037L47.878447 -133.0347L10.106573 -130.32378L-19.205327 -129.51167L-63.759327 -112.62023L-90.145227 -94.821591L-91.313027 -61.472111L-118.31453 -42.020231L-169.00942 -0.58441114L-154.08993 25.830819L-139.41703 33.436219L-135.27193 41.107569L-125.97983 42.345349L-125.97983 42.345349"
       id="path2411" />
    <path
       style="fill:#008080;fill-rule:evenodd;stroke:none;stroke-width:0.77184999px;stroke-linecap:butt;stroke-linejoin:miter;stroke-opacity:1"
       d="M-167.76166 125.11997L-100.35117 123.01586L-73.873667 100.73658L-44.429067 63.158799L-8.2801669 63.600439L27.046243 25.377999L43.114647 6.8819589L81.407247 -3.4806411L101.02535 -17.081151L124.62205 -45.210111L126.01175 -77.070471L106.24015 -103.08824L109.01775 -80.492421L96.550147 -43.894721L94.628947 -19.022361L39.702347 -5.9556611L18.437933 16.632979L9.8458331 55.448239L-48.219267 82.951383L-68.059967 82.483749L-100.41947 105.40781L-136.34567 119.03417L-167.76166 125.11997L-167.76166 125.11997"
       id="path2413" />
  </g>
</svg>
