<?xml version="1.0" encoding="UTF-8" standalone="no"?>
<!-- Created with Inkscape (http://www.inkscape.org/) -->
<svg
   xmlns:dc="http://purl.org/dc/elements/1.1/"
   xmlns:cc="http://creativecommons.org/ns#"
   xmlns:rdf="http://www.w3.org/1999/02/22-rdf-syntax-ns#"
   xmlns:svg="http://www.w3.org/2000/svg"
   xmlns="http://www.w3.org/2000/svg"
   xmlns:sodipodi="http://sodipodi.sourceforge.net/DTD/sodipodi-0.dtd"
   xmlns:inkscape="http://www.inkscape.org/namespaces/inkscape"
   width="800"
   height="480"
   id="svg2"
   sodipodi:version="0.32"
   inkscape:version="0.46"
   version="1.0"
   sodipodi:docname="guns_fire3.svg"
   inkscape:output_extension="org.inkscape.output.svg.inkscape">
  <defs
     id="defs4">
    <inkscape:perspective
       sodipodi:type="inkscape:persp3d"
       inkscape:vp_x="0 : 526.18109 : 1"
       inkscape:vp_y="0 : 1000 : 0"
       inkscape:vp_z="744.09448 : 526.18109 : 1"
       inkscape:persp3d-origin="372.04724 : 350.78739 : 1"
       id="perspective10" />
  </defs>
  <sodipodi:namedview
     id="base"
     pagecolor="#ffffff"
     bordercolor="#666666"
     borderopacity="1.0"
     gridtolerance="10000"
     guidetolerance="10"
     objecttolerance="10"
     inkscape:pageopacity="0.0"
     inkscape:pageshadow="2"
     inkscape:zoom="0.7"
     inkscape:cx="253.51646"
     inkscape:cy="243.78908"
     inkscape:document-units="px"
     inkscape:current-layer="layer1"
     showgrid="false"
     inkscape:window-width="1280"
     inkscape:window-height="729"
     inkscape:window-x="0"
     inkscape:window-y="25" />
  <metadata
     id="metadata7">
    <rdf:RDF>
      <cc:Work
         rdf:about="">
        <dc:format>image/svg+xml</dc:format>
        <dc:type
           rdf:resource="http://purl.org/dc/dcmitype/StillImage" />
      </cc:Work>
    </rdf:RDF>
  </metadata>
  <g
     inkscape:label="Layer 1"
     inkscape:groupmode="layer"
     id="layer1">
    <path
       style="opacity:0.20085473;fill:#008000;fill-rule:evenodd;stroke:none;stroke-width:1.8410095px;stroke-linecap:butt;stroke-linejoin:miter;stroke-opacity:1"
       d="M 504.67416,354.76095 C 506.61421,354.36704 536.12641,343.02656 536.12641,343.02656 L 555.84621,350.61015 L 584.35201,336.79998 C 584.35201,336.79998 602.34201,348.30024 606.70701,347.41394 C 611.07201,346.52764 667.60711,331.48301 669.54711,331.0891 C 671.48711,330.69519 680.07981,330.73318 680.07981,330.73318 C 680.07981,330.73318 706.21401,345.03661 708.81281,345.40029 C 711.41161,345.76395 762.09871,341.71167 762.09871,341.71167 L 679.79411,369.11956 L 617.71371,381.72473 L 604.08871,369.33818 L 583.33451,369.09543 L 517.98801,368.10207 L 504.67416,354.76095 z"
       id="path2384"
       sodipodi:nodetypes="ccccsscsccccccc" />
    <path
       style="opacity:0.61111109;fill:#00ff00;fill-rule:evenodd;stroke:none;stroke-width:1px;stroke-linecap:butt;stroke-linejoin:miter;stroke-opacity:1"
       d="M 505.88516,425.00416 L 500.19575,381.81051 L 472.92894,397.0987 L 479.51705,379.22932 L 480.50508,370.32965 L 448.11695,359.88013 L 482.70887,352.82322 L 458.7868,333.45908 L 427.47207,326.38801 L 475.45432,328.91339 L 485.05077,319.31694 L 491.11168,301.1342 L 514.85026,339.01493 L 535.55843,338.50985 L 528.48733,357.70275 L 523.43656,356.6926 L 516.61803,353.28333 L 505.63262,353.53587 L 505.88516,425.00416 z"
       id="path2386"
       sodipodi:nodetypes="ccccccccccccccccccc" />
    <path
       style="fill:#0000ff;fill-rule:evenodd;stroke:none;stroke-width:1px;stroke-linecap:butt;stroke-linejoin:miter;stroke-opacity:1"
       d="M 593.09938,488.25474 L 503.46682,349.99657 L 508.92203,347.74898 L 513.55611,350.04121 L 679.31503,489.818 L 593.09938,488.25474 z"
       id="path2383"
       sodipodi:nodetypes="cccccc" />
    <path
       style="opacity:0.35092444;fill:#000080;fill-rule:evenodd;stroke:none;stroke-width:1px;stroke-linecap:butt;stroke-linejoin:miter;stroke-opacity:1"
       d="M 508.77932,347.76443 L 534.67218,375.71086 L 544.94004,376.60372 L 513.77932,350.17515 L 508.77932,347.76443 z"
       id="path3176"
       sodipodi:nodetypes="ccccc" />
    <path
       style="fill:#000080;fill-rule:evenodd;stroke:none;stroke-width:1px;stroke-linecap:butt;stroke-linejoin:miter;stroke-opacity:1"
       d="M 503.60075,349.818 L 503.60075,392.67514 L 543.66388,488.24707 L 593.14271,488.14433 L 503.60075,349.818 z"
       id="path2385"
       sodipodi:nodetypes="ccccc" />
    <path
       style="opacity:0.38793102;fill:#00ff00;fill-rule:evenodd;stroke:none;stroke-width:1px;stroke-linecap:butt;stroke-linejoin:miter;stroke-opacity:1"
       d="M 515.05587,348.37348 L 501.92388,347.8684 L 501.92388,391.81004 L 507.47972,402.92172 L 516.5711,393.32527 L 513.54064,384.73897 L 507.9848,368.57653 L 513.54064,364.03084 L 517.07617,358.475 L 528.18785,365.54607 L 531.72338,364.03084 L 515.05587,348.37348 z"
       id="path2388" />
    <path
       style="fill:#000080;fill-rule:evenodd;stroke:none;stroke-width:1px;stroke-linecap:butt;stroke-linejoin:miter;stroke-opacity:1"
       d="M 533.85329,395.16957 L 535.95544,371.11001 L 547.35968,378.13683 L 553.60075,424.10372 L 533.85329,395.16957 z"
       id="path2387"
       sodipodi:nodetypes="ccccc" />
    <path
       style="fill:#00112b;fill-rule:evenodd;stroke:none;stroke-width:1px;stroke-linecap:butt;stroke-linejoin:miter;stroke-opacity:1"
       d="M 553.36883,423.9922 L 578.98468,419.21601 L 597.76325,420.2456 L 583.16834,378.2828 L 546.80285,378.2828 L 553.36883,423.9922 z"
       id="path2389"
       sodipodi:nodetypes="cccccc" />
    <path
       style="fill:#000000;fill-rule:evenodd;stroke:none;stroke-width:1px;stroke-linecap:butt;stroke-linejoin:miter;stroke-opacity:1"
       d="M 418.62807,489.46086 L 504.75483,426.77012 L 507.38099,404.54677 L 511.32026,375.75742 L 516.28511,384.31834 L 514.82183,409.59753 L 521.82496,426.77012 L 525.35535,437.04759 L 526.89828,441.65455 L 519.63648,447.47825 L 482.9178,488.6853 L 418.62807,489.46086 z"
       id="path2583"
       sodipodi:nodetypes="cccccccccccc" />
    <path
       style="fill:#800080;fill-rule:evenodd;stroke:none;stroke-width:1px;stroke-linecap:butt;stroke-linejoin:miter;stroke-opacity:1"
       d="M 426.08335,487.318 L 503.76897,428.03229 L 509.51226,379.10372 L 511.93049,381.96086 L 509.51226,405.88943 L 508.00088,407.318 L 509.20999,409.10372 L 508.90771,429.46086 L 505.88492,429.46086 L 506.1872,432.318 L 490.77099,449.10372 L 460.8454,488.03229 L 426.08335,487.318 z"
       id="path2585"
       sodipodi:nodetypes="ccccccccccccc" />
    <path
       style="fill:#00002a;fill-opacity:1;fill-rule:evenodd;stroke:none;stroke-width:1px;stroke-linecap:butt;stroke-linejoin:miter;stroke-opacity:1"
       d="M 513.44189,414.46086 L 518.27834,425.53229 L 522.20797,436.96086 L 518.88291,438.38943 L 517.37152,433.74657 L 512.53505,429.46086 L 513.44189,414.46086 z"
       id="path2587" />
    <path
       style="opacity:0.32051284;fill:#ffcc00;fill-opacity:1;fill-rule:evenodd;stroke:none;stroke-width:0.39894184px;stroke-linecap:butt;stroke-linejoin:miter;stroke-opacity:1"
       d="M 381.54121,254.78698 L 386.64309,227.11236 L 418.67162,226.71128 L 424.05695,254.78698 L 416.76854,237.1394 L 391.66401,236.73831 L 381.94612,254.3859 L 381.54121,254.3859 L 381.54121,254.78698 z"
       id="path2466" />
    <path
       id="path2468"
       d="M 381.53982,255.34576 L 386.64205,282.86268 L 418.67266,282.86268 L 424.05834,255.34576 L 416.76944,272.64921 L 391.66328,273.04247 L 381.94476,255.73902 L 381.53982,255.73902 L 381.53982,255.34576 z"
       style="opacity:0.32051284;fill:#ffcc00;fill-opacity:1;fill-rule:evenodd;stroke:none;stroke-width:0.39504597px;stroke-linecap:butt;stroke-linejoin:miter;stroke-opacity:1" />
    <path
       style="fill:#000000;fill-rule:evenodd;stroke:none;stroke-width:1px;stroke-linecap:butt;stroke-linejoin:miter;stroke-opacity:1"
       d="M 511.95258,408.58738 L 554.88406,485.35898 L 593.77494,487.37928 L 544.27746,487.37928 L 511.95258,408.58738 z"
       id="path2390"
       sodipodi:nodetypes="ccccc" />
    <path
       style="opacity:0.56302526;fill:#000080;fill-rule:evenodd;stroke:none;stroke-width:1px;stroke-linecap:butt;stroke-linejoin:miter;stroke-opacity:1"
       d="M 554.52693,423.85696 L 580.75123,420.86493 L 595.29016,426.26505 L 676.13826,488.12421 L 596.20841,420.46937 L 579.64321,419.40758 L 554.52693,423.85696 z"
       id="path2392"
       sodipodi:nodetypes="ccccccc" />
    <path
       style="fill:#0000ff;fill-rule:evenodd;stroke:none;stroke-width:1px;stroke-linecap:butt;stroke-linejoin:miter;stroke-opacity:1"
       d="M 535.69117,371.21173 L 546.80284,378.2828 L 583.67341,378.2828 L 554.37899,371.21173 L 535.69117,371.21173 z"
       id="path3164" />
    <path
       style="opacity:1;fill:#000000;fill-rule:evenodd;stroke:none;stroke-width:1px;stroke-linecap:butt;stroke-linejoin:miter;stroke-opacity:1"
       d="M 1.95667,479.76551 L 2.20875,240.80731 L 30.69117,482.61947 L 402.71428,470.14432 L 772.8508,482.71283 L 802.51003,241.28377 L 802.71433,480.14432 L 1.95667,479.76551 z"
       id="path3166"
       sodipodi:nodetypes="cccccccc" />
    <path
       style="opacity:1;fill:#000000;fill-rule:evenodd;stroke:none;stroke-width:1px;stroke-linecap:butt;stroke-linejoin:miter;stroke-opacity:1"
       d="M 0.71428,0.1443186 L 400.71428,30.144319 L 800.71433,0.1443186 L 0.71428,0.1443186 z"
       id="path3168"
       sodipodi:nodetypes="cccc" />
    <path
       style="fill:#00ffff;fill-rule:evenodd;stroke:#000000;stroke-width:1px;stroke-linecap:butt;stroke-linejoin:miter;stroke-opacity:1"
       d="M 548.06503,379.46086 L 582.17218,378.92514 L 594.49361,416.42514 L 553.24361,418.74657 L 548.06503,379.46086 z"
       id="path3178" />
    <path
       style="opacity:0.23109245;fill:#005544;fill-rule:evenodd;stroke:none;stroke-width:1px;stroke-linecap:butt;stroke-linejoin:miter;stroke-opacity:1"
       d="M 548.91325,383.65729 L 583.95788,385.57693 L 581.81503,379.193 L 548.42218,379.63943 L 548.91325,383.65729 z"
       id="path3180"
       sodipodi:nodetypes="ccccc" />
    <path
       style="opacity:0.83613443;fill:#37abc8;fill-rule:evenodd;stroke:none;stroke-width:1px;stroke-linecap:butt;stroke-linejoin:miter;stroke-opacity:1"
       d="M 552.52932,409.28229 L 553.60075,418.21086 L 593.89093,415.95639 L 557.61861,416.15729 L 552.52932,409.28229 z"
       id="path3182"
       sodipodi:nodetypes="ccccc" />
    <path
       style="opacity:0.11344539;fill:#0b2228;fill-rule:evenodd;stroke:none;stroke-width:1px;stroke-linecap:butt;stroke-linejoin:miter;stroke-opacity:1"
       d="M 578.11757,419.19398 L 640.24196,484.60136 L 674.08207,486.62166 L 597.56301,420.45667 L 578.11757,419.19398 z"
       id="path3184"
       sodipodi:nodetypes="ccccc" />
  </g>
</svg>
